<svg width="120" height="41" viewBox="0 0 120 41" fill="none" xmlns="http://www.w3.org/2000/svg">
<mask id="mask0_1_23" style="mask-type:luminance" maskUnits="userSpaceOnUse" x="0" y="0" width="120" height="41">
<path d="M119.664 0.399994H0V40.4H119.664V0.399994Z" fill="white"/>
</mask>
<g mask="url(#mask0_1_23)">
<path d="M110.135 0.39988H9.53468C9.16798 0.39988 8.80568 0.39988 8.43995 0.40188C8.1338 0.40388 7.83009 0.40969 7.521 0.41458C6.84951 0.422482 6.17961 0.481556 5.5171 0.59129C4.85552 0.703412 4.21467 0.914796 3.61622 1.21829C3.0185 1.52435 2.47235 1.92204 1.99757 2.39695C1.5203 2.87051 1.12246 3.41789 0.81935 4.01804C0.5154 4.61698 0.304641 5.25881 0.19435 5.92136C0.0830109 6.58306 0.0230984 7.2524 0.01515 7.92336C0.00587 8.22996 0.00489 8.53758 0 8.84422V31.9585C0.00489 32.269 0.00587 32.5698 0.01515 32.8804C0.0231008 33.5513 0.0830134 34.2206 0.19435 34.8823C0.304336 35.5452 0.515108 36.1874 0.81935 36.7866C1.12233 37.3848 1.52022 37.93 1.99757 38.4009C2.47054 38.8779 3.01705 39.2759 3.61622 39.5796C4.21467 39.8839 4.85545 40.0965 5.5171 40.2104C6.17972 40.3192 6.84956 40.3783 7.521 40.3872C7.83009 40.394 8.1338 40.3979 8.43995 40.3979C8.80567 40.3999 9.168 40.3999 9.53468 40.3999H110.135C110.494 40.3999 110.859 40.3999 111.219 40.3979C111.523 40.3979 111.836 40.394 112.141 40.3872C112.811 40.3788 113.479 40.3197 114.141 40.2104C114.804 40.0957 115.448 39.8831 116.049 39.5796C116.647 39.2757 117.193 38.8777 117.666 38.4009C118.142 37.9281 118.541 37.3833 118.848 36.7866C119.15 36.187 119.358 35.5448 119.467 34.8823C119.578 34.2205 119.64 33.5514 119.652 32.8804C119.656 32.5698 119.656 32.269 119.656 31.9585C119.664 31.5952 119.664 31.2339 119.664 30.8647V9.93601C119.664 9.5698 119.664 9.20652 119.656 8.84422C119.656 8.53758 119.656 8.22996 119.652 7.92332C119.64 7.2523 119.578 6.58311 119.467 5.92132C119.358 5.25916 119.149 4.61738 118.848 4.018C118.23 2.81507 117.252 1.8359 116.049 1.2182C115.448 0.915447 114.804 0.70412 114.141 0.5912C113.48 0.480982 112.811 0.421887 112.141 0.41444C111.836 0.40956 111.523 0.4037 111.219 0.40175C110.859 0.39975 110.494 0.39988 110.135 0.39988Z" fill="#A6A6A6"/>
<path d="M8.44487 39.525C8.14019 39.525 7.84287 39.5211 7.54058 39.5143C6.91436 39.5061 6.2896 39.4516 5.67144 39.3512C5.09503 39.2519 4.53664 39.0673 4.0147 38.8033C3.49754 38.5415 3.02585 38.1983 2.6177 37.7867C2.20364 37.38 1.85891 36.9082 1.59719 36.3902C1.33258 35.8688 1.14945 35.3099 1.05419 34.733C0.951311 34.1131 0.895651 33.4863 0.887687 32.858C0.881347 32.6471 0.873047 31.9449 0.873047 31.9449V8.84433C0.873047 8.84433 0.881887 8.15292 0.887737 7.94979C0.895363 7.32247 0.950699 6.69664 1.05327 6.07772C1.14871 5.49924 1.33197 4.93874 1.59673 4.41562C1.85749 3.89793 2.2003 3.42585 2.61187 3.01767C3.02297 2.60561 3.49617 2.26059 4.01421 1.9952C4.53495 1.73208 5.09228 1.54872 5.66753 1.45126C6.28772 1.34983 6.91465 1.29499 7.54304 1.2872L8.44536 1.27499H111.214L112.127 1.28769C112.75 1.29509 113.371 1.34944 113.985 1.45028C114.566 1.54897 115.13 1.73361 115.656 1.99813C116.694 2.53298 117.539 3.37915 118.071 4.41806C118.332 4.93757 118.512 5.4935 118.607 6.06698C118.71 6.69098 118.768 7.32173 118.78 7.95419C118.783 8.23739 118.783 8.54159 118.783 8.84433C118.791 9.21933 118.791 9.57626 118.791 9.93612V30.8648C118.791 31.2281 118.791 31.5826 118.783 31.94C118.783 32.2652 118.783 32.5631 118.779 32.8697C118.768 33.4909 118.711 34.1104 118.608 34.7232C118.515 35.3043 118.333 35.8675 118.068 36.3932C117.805 36.9056 117.462 37.3733 117.053 37.7789C116.644 38.1927 116.172 38.5379 115.653 38.8014C115.128 39.0674 114.566 39.2527 113.985 39.3512C113.367 39.4522 112.742 39.5067 112.116 39.5143C111.823 39.5211 111.517 39.525 111.219 39.525L110.135 39.527L8.44487 39.525Z" fill="black"/>
<path d="M24.769 20.7006C24.7797 19.8659 25.0014 19.0475 25.4135 18.3216C25.8255 17.5956 26.4145 16.9857 27.1256 16.5485C26.6738 15.9034 26.0779 15.3724 25.385 14.9979C24.6922 14.6233 23.9216 14.4155 23.1344 14.3908C21.4552 14.2146 19.8272 15.3957 18.9715 15.3957C18.0992 15.3957 16.7817 14.4083 15.363 14.4375C14.4453 14.4672 13.551 14.734 12.7671 15.2121C11.9832 15.6901 11.3365 16.3631 10.8901 17.1654C8.95607 20.5138 10.3987 25.4349 12.2513 28.1415C13.1782 29.4668 14.2615 30.9473 15.6789 30.8948C17.066 30.8372 17.584 30.0103 19.2583 30.0103C20.9171 30.0103 21.4031 30.8948 22.8493 30.8614C24.3377 30.8372 25.2754 29.5302 26.1698 28.1923C26.8358 27.2479 27.3483 26.2042 27.6882 25.0997C26.8235 24.734 26.0856 24.1218 25.5665 23.3395C25.0474 22.5572 24.77 21.6394 24.769 20.7006Z" fill="white"/>
<path d="M22.0373 12.6108C22.8489 11.6366 23.2487 10.3844 23.1518 9.12021C21.912 9.25044 20.7668 9.84299 19.9443 10.7798C19.5421 11.2375 19.2341 11.7699 19.0379 12.3467C18.8416 12.9235 18.761 13.5333 18.8006 14.1412C19.4207 14.1476 20.0342 14.0132 20.5949 13.7481C21.1555 13.483 21.6487 13.0942 22.0373 12.6108Z" fill="white"/>
<path d="M42.3025 27.5397H37.5691L36.4324 30.8961H34.4275L38.9109 18.4781H40.9939L45.4773 30.8961H43.4382L42.3025 27.5397ZM38.0593 25.9908H41.8113L39.9617 20.5436H39.91L38.0593 25.9908Z" fill="white"/>
<path d="M55.1599 26.3697C55.1599 29.1832 53.6541 30.9908 51.3816 30.9908C50.806 31.0209 50.2335 30.8883 49.7297 30.6082C49.2259 30.328 48.8112 29.9117 48.533 29.4068H48.49V33.8912H46.6316V21.8423H48.4305V23.3482H48.4646C48.7556 22.8457 49.1773 22.4316 49.6849 22.1497C50.1926 21.8679 50.7671 21.7289 51.3474 21.7476C53.6453 21.7476 55.1599 23.564 55.1599 26.3697ZM53.2498 26.3697C53.2498 24.5367 52.3025 23.3316 50.8572 23.3316C49.4373 23.3316 48.4822 24.5621 48.4822 26.3697C48.4822 28.1939 49.4373 29.4156 50.8572 29.4156C52.3025 29.4156 53.2498 28.2193 53.2498 26.3697Z" fill="white"/>
<path d="M65.1248 26.3697C65.1248 29.1832 63.6189 30.9908 61.3465 30.9908C60.7708 31.0209 60.1983 30.8883 59.6945 30.6081C59.1907 30.328 58.776 29.9117 58.4978 29.4068H58.4548V33.8912H56.5964V21.8423H58.3953V23.3482H58.4294C58.7204 22.8457 59.1421 22.4315 59.6498 22.1497C60.1574 21.8679 60.7319 21.7289 61.3123 21.7476C63.6101 21.7476 65.1248 23.564 65.1248 26.3697ZM63.2146 26.3697C63.2146 24.5367 62.2674 23.3316 60.822 23.3316C59.4021 23.3316 58.447 24.5621 58.447 26.3697C58.447 28.1939 59.4021 29.4156 60.822 29.4156C62.2674 29.4156 63.2146 28.2193 63.2146 26.3697Z" fill="white"/>
<path d="M71.7107 27.4362C71.8484 28.6676 73.0447 29.4762 74.6795 29.4762C76.2459 29.4762 77.3728 28.6676 77.3728 27.5572C77.3728 26.5934 76.6931 26.0162 75.0838 25.6207L73.4744 25.233C71.1941 24.6822 70.1355 23.6158 70.1355 21.8854C70.1355 19.7428 72.0027 18.2711 74.6541 18.2711C77.2781 18.2711 79.0769 19.7428 79.1375 21.8854H77.2615C77.1492 20.6461 76.1248 19.8981 74.6277 19.8981C73.1306 19.8981 72.1062 20.6549 72.1062 21.7565C72.1062 22.6344 72.7605 23.151 74.3611 23.5465L75.7292 23.8824C78.2771 24.4849 79.3357 25.5084 79.3357 27.3248C79.3357 29.648 77.4851 31.1031 74.5417 31.1031C71.7878 31.1031 69.9285 29.6822 69.8083 27.4361L71.7107 27.4362Z" fill="white"/>
<path d="M83.3464 19.6998V21.8424H85.0681V23.3141H83.3464V28.3053C83.3464 29.0807 83.6912 29.442 84.448 29.442C84.6524 29.4384 84.8564 29.4241 85.0593 29.399V30.8619C84.719 30.9255 84.3732 30.9543 84.0271 30.9478C82.1941 30.9478 81.4792 30.2593 81.4792 28.5035V23.3141H80.1628V21.8424H81.4792V19.6998H83.3464Z" fill="white"/>
<path d="M86.0652 26.3697C86.0652 23.5211 87.7429 21.7311 90.3591 21.7311C92.9841 21.7311 94.6541 23.5211 94.6541 26.3697C94.6541 29.2262 92.9929 31.0084 90.3591 31.0084C87.7263 31.0084 86.0652 29.2262 86.0652 26.3697ZM92.7605 26.3697C92.7605 24.4156 91.865 23.2623 90.3591 23.2623C88.8533 23.2623 87.9587 24.4244 87.9587 26.3697C87.9587 28.3316 88.8533 29.4762 90.3591 29.4762C91.865 29.4762 92.7605 28.3316 92.7605 26.3697Z" fill="white"/>
<path d="M96.1863 21.8425H97.9587V23.3835H98.0017C98.1217 22.9022 98.4036 22.4769 98.8002 22.179C99.1968 21.8811 99.6838 21.7288 100.179 21.7478C100.394 21.747 100.607 21.7703 100.816 21.8171V23.5554C100.546 23.4728 100.264 23.4348 99.9812 23.4431C99.7112 23.4321 99.4421 23.4797 99.1922 23.5826C98.9424 23.6855 98.7178 23.8412 98.5338 24.0391C98.3498 24.237 98.2108 24.4724 98.1264 24.7291C98.042 24.9857 98.0141 25.2576 98.0447 25.5261V30.8962H96.1863V21.8425Z" fill="white"/>
<path d="M109.385 28.2369C109.135 29.8805 107.534 31.0084 105.486 31.0084C102.852 31.0084 101.218 29.2437 101.218 26.4127C101.218 23.5729 102.861 21.7311 105.408 21.7311C107.913 21.7311 109.488 23.4518 109.488 26.1969V26.8336H103.094V26.9459C103.064 27.2791 103.106 27.6148 103.216 27.9306C103.326 28.2464 103.502 28.5352 103.733 28.7778C103.963 29.0203 104.242 29.2111 104.552 29.3374C104.862 29.4637 105.195 29.5226 105.529 29.5103C105.968 29.5515 106.409 29.4498 106.786 29.2203C107.162 28.9909 107.455 28.646 107.62 28.2369H109.385ZM103.102 25.5348H107.629C107.645 25.2352 107.6 24.9354 107.495 24.6541C107.391 24.3729 107.229 24.1164 107.02 23.9006C106.812 23.6849 106.561 23.5145 106.284 23.4003C106.006 23.2861 105.708 23.2305 105.408 23.2369C105.105 23.2351 104.805 23.2933 104.525 23.408C104.245 23.5227 103.991 23.6918 103.776 23.9054C103.562 24.1191 103.392 24.373 103.276 24.6527C103.161 24.9323 103.102 25.2321 103.102 25.5348Z" fill="white"/>
<path d="M37.8262 9.13064C38.2158 9.10268 38.6067 9.16154 38.9709 9.30297C39.335 9.4444 39.6632 9.66488 39.9317 9.94851C40.2003 10.2321 40.4026 10.5718 40.524 10.9431C40.6454 11.3144 40.6829 11.708 40.6338 12.0955C40.6338 14.0017 39.6035 15.0975 37.8262 15.0975H35.6709V9.13064H37.8262ZM36.5976 14.2536H37.7226C38.0011 14.2703 38.2797 14.2246 38.5382 14.12C38.7967 14.0154 39.0287 13.8545 39.2172 13.6489C39.4057 13.4433 39.546 13.1983 39.6278 12.9317C39.7097 12.6651 39.7311 12.3836 39.6904 12.1076C39.7281 11.8328 39.7046 11.553 39.6215 11.2884C39.5383 11.0237 39.3977 10.7807 39.2096 10.5768C39.0216 10.3728 38.7907 10.213 38.5337 10.1088C38.2766 10.0046 37.9996 9.95848 37.7226 9.97385H36.5976V14.2536Z" fill="white"/>
<path d="M41.6807 12.844C41.6524 12.5481 41.6862 12.2496 41.7801 11.9675C41.8739 11.6854 42.0257 11.4261 42.2256 11.2061C42.4256 10.9861 42.6693 10.8103 42.9411 10.6901C43.213 10.5698 43.507 10.5077 43.8042 10.5077C44.1015 10.5077 44.3955 10.5698 44.6673 10.6901C44.9392 10.8103 45.1829 10.9861 45.3828 11.2061C45.5828 11.4261 45.7345 11.6854 45.8284 11.9675C45.9222 12.2496 45.9561 12.5481 45.9278 12.844C45.9566 13.1403 45.9232 13.4392 45.8296 13.7218C45.736 14.0043 45.5843 14.2641 45.3843 14.4845C45.1843 14.7049 44.9404 14.8811 44.6683 15.0016C44.3962 15.1221 44.1019 15.1844 43.8042 15.1844C43.5066 15.1844 43.2123 15.1221 42.9402 15.0016C42.668 14.8811 42.4241 14.7049 42.2241 14.4845C42.0242 14.2641 41.8725 14.0043 41.7789 13.7218C41.6853 13.4392 41.6519 13.1403 41.6807 12.844ZM45.0137 12.844C45.0137 11.868 44.5752 11.2972 43.8057 11.2972C43.0332 11.2972 42.5987 11.868 42.5987 12.8441C42.5987 13.8279 43.0333 14.3943 43.8057 14.3943C44.5752 14.3943 45.0137 13.824 45.0137 12.844Z" fill="white"/>
<path d="M51.5732 15.0975H50.6514L49.7207 11.7811H49.6504L48.7236 15.0975H47.8105L46.5693 10.5946H47.4707L48.2773 14.0306H48.3438L49.2695 10.5946H50.1221L51.0479 14.0306H51.1182L51.9209 10.5946H52.8096L51.5732 15.0975Z" fill="white"/>
<path d="M53.8535 10.5946H54.709V11.31H54.7754C54.888 11.053 55.0781 10.8377 55.3189 10.6939C55.5598 10.55 55.8395 10.485 56.1191 10.5077C56.3382 10.4912 56.5582 10.5243 56.7628 10.6044C56.9674 10.6845 57.1514 10.8096 57.3011 10.9704C57.4508 11.1313 57.5623 11.3237 57.6275 11.5335C57.6927 11.7434 57.7099 11.9652 57.6777 12.1825V15.0975H56.7891V12.4057C56.7891 11.682 56.4746 11.3222 55.8174 11.3222C55.6686 11.3152 55.5201 11.3406 55.3821 11.3964C55.244 11.4522 55.1197 11.5372 55.0175 11.6456C54.9154 11.754 54.8379 11.8832 54.7904 12.0243C54.7429 12.1655 54.7264 12.3152 54.7422 12.4633V15.0976H53.8535V10.5946Z" fill="white"/>
<path d="M59.0938 8.83676H59.9824V15.0975H59.0938V8.83676Z" fill="white"/>
<path d="M61.2178 12.8441C61.1895 12.5482 61.2234 12.2496 61.3172 11.9675C61.4111 11.6854 61.5629 11.4261 61.7628 11.2061C61.9628 10.9861 62.2065 10.8104 62.4784 10.6901C62.7503 10.5698 63.0443 10.5077 63.3416 10.5077C63.6389 10.5077 63.9329 10.5698 64.2047 10.6901C64.4766 10.8104 64.7203 10.9861 64.9203 11.2061C65.1203 11.4261 65.272 11.6854 65.3659 11.9675C65.4598 12.2496 65.4936 12.5482 65.4653 12.8441C65.4942 13.1404 65.4607 13.4393 65.3671 13.7219C65.2734 14.0044 65.1217 14.2642 64.9217 14.4846C64.7217 14.705 64.4778 14.8811 64.2057 15.0017C63.9335 15.1222 63.6392 15.1845 63.3416 15.1845C63.0439 15.1845 62.7496 15.1222 62.4775 15.0017C62.2053 14.8811 61.9614 14.705 61.7614 14.4846C61.5614 14.2642 61.4097 14.0044 61.3161 13.7219C61.2225 13.4393 61.189 13.1404 61.2178 12.8441ZM64.5508 12.8441C64.5508 11.8681 64.1123 11.2973 63.3428 11.2973C62.5703 11.2973 62.1358 11.8681 62.1358 12.8441C62.1358 13.828 62.5704 14.3944 63.3428 14.3944C64.1123 14.3944 64.5508 13.8241 64.5508 12.8441Z" fill="white"/>
<path d="M66.4009 13.8241C66.4009 13.0135 67.0044 12.5462 68.0757 12.4798L69.2954 12.4095V12.0208C69.2954 11.5453 68.981 11.2767 68.3735 11.2767C67.8774 11.2767 67.5337 11.4588 67.4351 11.7772H66.5747C66.6655 11.0038 67.3931 10.5077 68.4146 10.5077C69.5435 10.5077 70.1802 11.0697 70.1802 12.0208V15.0975H69.3247V14.4647H69.2544C69.1117 14.6917 68.9113 14.8767 68.6737 15.0009C68.436 15.1252 68.1697 15.1841 67.9019 15.1717C67.7128 15.1914 67.5218 15.1712 67.341 15.1125C67.1602 15.0538 66.9938 14.9579 66.8524 14.8309C66.711 14.7039 66.5977 14.5487 66.52 14.3753C66.4422 14.2019 66.4016 14.0141 66.4009 13.8241ZM69.2954 13.4393V13.0628L68.1958 13.1331C67.5757 13.1746 67.2944 13.3856 67.2944 13.7826C67.2944 14.1878 67.646 14.4237 68.1294 14.4237C68.2711 14.438 68.4142 14.4237 68.5502 14.3816C68.6862 14.3395 68.8123 14.2705 68.9211 14.1787C69.0299 14.0868 69.1191 13.974 69.1834 13.847C69.2477 13.72 69.2858 13.5813 69.2954 13.4393Z" fill="white"/>
<path d="M71.3481 12.8441C71.3481 11.4213 72.0796 10.5199 73.2173 10.5199C73.4987 10.5069 73.778 10.5743 74.0225 10.7142C74.267 10.8541 74.4667 11.0607 74.5981 11.3099H74.6646V8.83676H75.5532V15.0975H74.7017V14.3861H74.6314C74.4897 14.6336 74.2831 14.8376 74.0339 14.9761C73.7846 15.1146 73.5022 15.1822 73.2173 15.1717C72.0718 15.1718 71.3481 14.2704 71.3481 12.8441ZM72.2661 12.8441C72.2661 13.7992 72.7163 14.3739 73.4693 14.3739C74.2183 14.3739 74.6812 13.7909 74.6812 12.848C74.6812 11.9095 74.2134 11.3182 73.4693 11.3182C72.7212 11.3182 72.2661 11.8968 72.2661 12.8441Z" fill="white"/>
<path d="M79.23 12.844C79.2017 12.5481 79.2356 12.2496 79.3294 11.9675C79.4232 11.6854 79.575 11.4261 79.7749 11.2061C79.9749 10.9861 80.2186 10.8103 80.4904 10.6901C80.7623 10.5698 81.0563 10.5077 81.3536 10.5077C81.6508 10.5077 81.9448 10.5698 82.2167 10.6901C82.4885 10.8103 82.7322 10.9861 82.9322 11.2061C83.1321 11.4261 83.2839 11.6854 83.3777 11.9675C83.4715 12.2496 83.5054 12.5481 83.4771 12.844C83.5059 13.1403 83.4725 13.4392 83.3789 13.7218C83.2853 14.0043 83.1336 14.2641 82.9336 14.4845C82.7336 14.7049 82.4897 14.8811 82.2176 15.0016C81.9455 15.1221 81.6512 15.1844 81.3536 15.1844C81.0559 15.1844 80.7616 15.1221 80.4895 15.0016C80.2173 14.8811 79.9735 14.7049 79.7735 14.4845C79.5735 14.2641 79.4218 14.0043 79.3282 13.7218C79.2346 13.4392 79.2012 13.1403 79.23 12.844ZM82.563 12.844C82.563 11.868 82.1245 11.2972 81.355 11.2972C80.5826 11.2972 80.148 11.868 80.148 12.8441C80.148 13.8279 80.5826 14.3943 81.355 14.3943C82.1245 14.3943 82.563 13.824 82.563 12.844Z" fill="white"/>
<path d="M84.6694 10.5946H85.5249V11.31H85.5913C85.704 11.053 85.894 10.8377 86.1348 10.6939C86.3757 10.55 86.6555 10.485 86.9351 10.5077C87.1542 10.4912 87.3742 10.5243 87.5788 10.6044C87.7834 10.6845 87.9673 10.8096 88.117 10.9704C88.2667 11.1313 88.3783 11.3237 88.4435 11.5335C88.5087 11.7434 88.5258 11.9652 88.4937 12.1825V15.0975H87.605V12.4057C87.605 11.682 87.2905 11.3222 86.6333 11.3222C86.4846 11.3152 86.336 11.3406 86.198 11.3964C86.0599 11.4522 85.9356 11.5372 85.8335 11.6456C85.7313 11.754 85.6539 11.8832 85.6063 12.0243C85.5588 12.1655 85.5423 12.3152 85.5581 12.4633V15.0976H84.6694V10.5946Z" fill="white"/>
<path d="M93.5151 9.47348V10.6151H94.4907V11.3636H93.5151V13.6791C93.5151 14.1507 93.7095 14.3573 94.1519 14.3573C94.2651 14.3569 94.3783 14.3501 94.4907 14.3368V15.077C94.3311 15.1055 94.1694 15.1207 94.0073 15.1224C93.019 15.1224 92.6255 14.7747 92.6255 13.9066V11.3636H91.9106V10.615H92.6255V9.47348H93.5151Z" fill="white"/>
<path d="M95.7046 8.83676H96.5854V11.3182H96.6558C96.7739 11.0589 96.9691 10.8423 97.2148 10.698C97.4605 10.5536 97.7447 10.4885 98.0288 10.5116C98.2467 10.4997 98.4646 10.5361 98.6669 10.6181C98.8692 10.7002 99.0508 10.8259 99.199 10.9862C99.3471 11.1465 99.458 11.3376 99.5238 11.5457C99.5896 11.7539 99.6086 11.9739 99.5795 12.1903V15.0975H98.69V12.4095C98.69 11.6903 98.355 11.326 97.7271 11.326C97.5743 11.3135 97.4207 11.3345 97.2769 11.3875C97.1332 11.4406 97.0027 11.5244 96.8947 11.6332C96.7867 11.7419 96.7038 11.8729 96.6517 12.0171C96.5997 12.1612 96.5797 12.315 96.5933 12.4676V15.0975H95.7046V8.83676Z" fill="white"/>
<path d="M104.761 13.8818C104.64 14.2933 104.379 14.6493 104.022 14.8874C103.665 15.1256 103.236 15.2307 102.81 15.1845C102.513 15.1923 102.218 15.1355 101.946 15.018C101.673 14.9004 101.43 14.725 101.232 14.5039C101.034 14.2827 100.887 14.0212 100.8 13.7374C100.713 13.4535 100.689 13.1543 100.73 12.8603C100.69 12.5654 100.715 12.2655 100.801 11.9808C100.888 11.6961 101.034 11.4334 101.231 11.2103C101.428 10.9872 101.671 10.809 101.942 10.6878C102.214 10.5666 102.509 10.5052 102.806 10.5077C104.059 10.5077 104.815 11.3637 104.815 12.7777V13.0878H101.635V13.1376C101.621 13.3029 101.642 13.4692 101.696 13.626C101.75 13.7827 101.837 13.9264 101.949 14.0479C102.062 14.1693 102.199 14.2658 102.352 14.3312C102.504 14.3966 102.669 14.4295 102.834 14.4276C103.047 14.4532 103.262 14.4149 103.453 14.3177C103.644 14.2205 103.801 14.0687 103.906 13.8817L104.761 13.8818ZM101.635 12.4306H103.91C103.921 12.2795 103.9 12.1277 103.849 11.9849C103.798 11.8422 103.718 11.7117 103.614 11.6019C103.509 11.492 103.383 11.4052 103.243 11.3471C103.103 11.2889 102.953 11.2606 102.801 11.2641C102.647 11.2622 102.495 11.291 102.353 11.349C102.21 11.4069 102.081 11.4928 101.972 11.6015C101.864 11.7102 101.778 11.8396 101.72 11.982C101.662 12.1244 101.633 12.2769 101.635 12.4306Z" fill="white"/>
</g>
</svg>
