<svg width="37" height="39" viewBox="0 0 37 39" fill="none" xmlns="http://www.w3.org/2000/svg">
<path opacity="0.7" d="M18.4961 37.6299C28.7134 37.6299 36.9961 29.3472 36.9961 19.1299C36.9961 8.91261 28.7134 0.629883 18.4961 0.629883C8.27883 0.629883 -0.00390625 8.91261 -0.00390625 19.1299C-0.00390625 29.3472 8.27883 37.6299 18.4961 37.6299Z" fill="#EFF1FF"/>
<path d="M16.9925 21.5267C16.5389 21.5267 16.2732 21.274 16.2732 20.8204V20.2956C14.3683 20.166 12.4698 19.7772 10.5 19.0321V17.9629C12.9233 19.0256 15.3531 19.4014 17.9968 19.4014C20.6469 19.4014 23.0767 19.0256 25.5 17.9629V19.0321C23.5302 19.7772 21.6318 20.166 19.7268 20.2956V20.8204C19.7268 21.274 19.4612 21.5267 19.0076 21.5267H16.9925ZM12.5022 25.8355H23.4979C24.8392 25.8355 25.5 25.1876 25.5 23.8593V17.5547C25.5 16.2264 24.8392 15.5785 23.4979 15.5785H12.5022C11.1674 15.5785 10.5 16.2264 10.5 17.5547V23.8593C10.5 25.1876 11.1674 25.8355 12.5022 25.8355ZM14.7117 16.1422H15.716V14.9953C15.716 14.5029 16.0076 14.2243 16.513 14.2243H19.487C19.9925 14.2243 20.2776 14.5029 20.2776 14.9953V16.1292H21.2819V15.0666C21.2819 13.8484 20.6404 13.2783 19.4676 13.2783H16.5259C15.4179 13.2783 14.7117 13.8484 14.7117 15.0666V16.1422Z" fill="#40196D"/>
<path d="M16.9925 21.5287C16.5389 21.5287 16.2732 21.276 16.2732 20.8224V20.2976C14.3683 20.168 12.4698 19.7793 10.5 19.0341V17.965C12.9233 19.0276 15.3531 19.4034 17.9968 19.4034C20.6469 19.4034 23.0767 19.0276 25.5 17.965V19.0341C23.5302 19.7793 21.6318 20.168 19.7268 20.2976V20.8224C19.7268 21.276 19.4612 21.5287 19.0076 21.5287H16.9925ZM12.5022 25.8376H23.4979C24.8392 25.8376 25.5 25.1897 25.5 23.8613V17.5568C25.5 16.2285 24.8392 15.5805 23.4979 15.5805H12.5022C11.1674 15.5805 10.5 16.2285 10.5 17.5568V23.8613C10.5 25.1897 11.1674 25.8376 12.5022 25.8376ZM14.7117 16.1442H15.716V14.9974C15.716 14.5049 16.0076 14.2263 16.513 14.2263H19.487C19.9925 14.2263 20.2776 14.5049 20.2776 14.9974V16.1313H21.2819V15.0686C21.2819 13.8505 20.6404 13.2803 19.4676 13.2803H16.5259C15.4179 13.2803 14.7117 13.8505 14.7117 15.0686V16.1442Z" fill="#40196D"/>
</svg>
