<svg width="17" height="25" viewBox="0 0 17 25" fill="none" xmlns="http://www.w3.org/2000/svg">
<path d="M8.39996 16.3691C12.8182 16.3691 16.4 12.7874 16.4 8.36914C16.4 3.95086 12.8182 0.369141 8.39996 0.369141C3.98169 0.369141 0.399963 3.95086 0.399963 8.36914C0.399963 12.7874 3.98169 16.3691 8.39996 16.3691Z" fill="#DFE3FF"/>
<path d="M6.79741 10.3106L11.3134 5.5823C11.5848 5.29809 12.025 5.29809 12.2964 5.5823C12.5679 5.86652 12.5679 6.32734 12.2964 6.61156L6.79741 12.3691L3.60355 9.02506C3.3321 8.74084 3.3321 8.28003 3.60355 7.99581C3.875 7.71159 4.31511 7.71159 4.58657 7.99581L6.79741 10.3106Z" fill="#40196D"/>
</svg>
