<svg width="70" height="65" viewBox="0 0 70 65" fill="none" xmlns="http://www.w3.org/2000/svg">
<g clip-path="url(#clip0_1_975)">
<g clip-path="url(#clip1_1_975)">
<g clip-path="url(#clip2_1_975)">
<path d="M66.8341 29.9188C65.0908 26.4912 60.9001 25.1289 57.4764 26.8732C57.2065 27.0103 56.9508 27.1658 56.7053 27.3303L38.3442 40.044H60.6373C61.6976 40.044 62.7834 39.8022 63.793 39.2872C67.2156 37.5378 68.5783 33.3463 66.8341 29.9188Z" fill="#0CB14B"/>
<path d="M66.8341 29.9188C65.0908 26.4912 60.9001 25.1289 57.4764 26.8732C57.2065 27.0103 56.9508 27.1658 56.7053 27.3303L38.3442 40.044H60.6373C61.6976 40.044 62.7834 39.8022 63.793 39.2872C67.2156 37.5378 68.5783 33.3463 66.8341 29.9188Z" stroke="white" stroke-width="2.298" stroke-miterlimit="3.864"/>
<path d="M49.0026 15.478L39.3771 37.6443L59.2166 23.9026C59.6438 23.606 60.0446 23.2525 60.4089 22.8522C62.9508 20.026 62.7214 15.674 59.8995 13.1313C57.0797 10.5846 52.7306 10.8152 50.1898 13.6403C49.6855 14.2031 49.2918 14.8238 49.0026 15.478Z" fill="#0089D0"/>
<path d="M49.0026 15.478L39.3771 37.6443L59.2166 23.9026C59.6438 23.606 60.0446 23.2525 60.4089 22.8522C62.9508 20.026 62.7214 15.674 59.8995 13.1313C57.0797 10.5846 52.7306 10.8152 50.1898 13.6403C49.6855 14.2031 49.2918 14.8238 49.0026 15.478Z" stroke="white" stroke-width="2.298" stroke-miterlimit="3.864"/>
<path d="M48.956 12.2097C49.2188 11.59 49.3953 10.9226 49.4684 10.2186C49.8712 6.39281 47.096 2.96526 43.2757 2.56297C39.4543 2.1617 36.0307 4.93808 35.6298 8.76386C35.5903 9.14583 35.5791 9.52678 35.6024 9.90266H35.5953C35.5953 10.0185 35.6461 10.0723 35.776 10.0723C35.9038 10.0723 37.4482 10.0723 37.6237 10.0723C38.0012 10.0723 38.5654 10.1841 38.5654 10.4817C38.5654 10.7093 37.5618 10.9226 36.9429 11.5189C36.2904 12.1457 35.9941 13.2662 36.1504 14.344V14.3379L39.2412 35.1796L48.956 12.2097Z" fill="#645FAA"/>
<path d="M48.956 12.2097C49.2188 11.59 49.3953 10.9226 49.4684 10.2186C49.8712 6.39281 47.096 2.96526 43.2757 2.56297C39.4543 2.1617 36.0307 4.93808 35.6298 8.76386C35.5903 9.14583 35.5791 9.52678 35.6024 9.90266H35.5953C35.5953 10.0185 35.6461 10.0723 35.776 10.0723C35.9038 10.0723 37.4482 10.0723 37.6237 10.0723C38.0012 10.0723 38.5654 10.1841 38.5654 10.4817C38.5654 10.7093 37.5618 10.9226 36.9429 11.5189C36.2904 12.1457 35.9941 13.2662 36.1504 14.344V14.3379L39.2412 35.1796L48.956 12.2097Z" stroke="white" stroke-width="2.298" stroke-miterlimit="3.864"/>
<path d="M9.20585 40.044H31.4959L13.1327 27.3303C12.8902 27.1658 12.6325 27.0103 12.3646 26.8732C8.93898 25.1289 4.74825 26.4912 3.00701 29.9188C1.26172 33.3463 2.62447 37.5378 6.04707 39.2872C7.05772 39.8022 8.14447 40.044 9.20585 40.044Z" fill="#FDB913"/>
<path d="M9.20585 40.044H31.4959L13.1327 27.3303C12.8902 27.1658 12.6325 27.0103 12.3646 26.8732C8.93898 25.1289 4.74825 26.4912 3.00701 29.9188C1.26172 33.3463 2.62447 37.5378 6.04707 39.2872C7.05772 39.8022 8.14447 40.044 9.20585 40.044Z" stroke="white" stroke-width="2.298" stroke-miterlimit="3.864"/>
<path d="M20.8375 15.478L30.462 37.6434L10.6235 23.9016C10.1962 23.605 9.79543 23.2515 9.43318 22.8512C6.89134 20.0251 7.11965 15.6731 9.94053 13.1303C12.7635 10.5836 17.1084 10.8142 19.6513 13.6393C20.1556 14.2031 20.5524 14.8238 20.8375 15.478Z" fill="#F37021"/>
<path d="M20.8375 15.478L30.462 37.6434L10.6235 23.9016C10.1962 23.605 9.79543 23.2515 9.43318 22.8512C6.89134 20.0251 7.11965 15.6731 9.94053 13.1303C12.7635 10.5836 17.1084 10.8142 19.6513 13.6393C20.1556 14.2031 20.5524 14.8238 20.8375 15.478Z" stroke="white" stroke-width="2.298" stroke-miterlimit="3.864"/>
<path d="M34.2374 9.90266L30.5967 35.1796L20.8829 12.2097C20.6211 11.59 20.4465 10.9226 20.3725 10.2186C19.9707 6.39281 22.7449 2.96526 26.5642 2.56297C30.3856 2.1617 33.8102 4.93808 34.209 8.76386C34.2506 9.14583 34.2587 9.52678 34.2374 9.90266Z" fill="#C8234A"/>
<path d="M34.2374 9.90266L30.5967 35.1796L20.8829 12.2097C20.6211 11.59 20.4465 10.9226 20.3725 10.2186C19.9707 6.39281 22.7449 2.96526 26.5642 2.56297C30.3856 2.1617 33.8102 4.93808 34.209 8.76386C34.2506 9.14583 34.2587 9.52678 34.2374 9.90266Z" stroke="white" stroke-width="2.298" stroke-miterlimit="3.864"/>
<path d="M13.6735 46.3331C13.432 45.1618 12.4721 44.854 11.4016 44.7534C7.93742 44.4324 7.3215 47.0218 7.3215 48.1169C7.3215 49.9861 7.86842 51.5201 11.2707 51.5201C11.8958 51.5201 13.6279 50.8893 13.6279 49.8409H18.5187C18.3239 52.9505 13.0911 53.6971 10.81 53.6971C6.08254 53.6971 2.03691 52.8174 2.23173 48.1616C2.3748 44.8357 5.5143 42.5012 11.7628 42.6455C15.2433 42.7298 18.5877 43.8117 18.602 46.3341L13.6735 46.3331Z" fill="#231F20"/>
<path d="M62.6606 46.3331C62.4201 45.1618 61.4612 44.854 60.3897 44.7534C56.9265 44.4324 56.3116 47.0218 56.3116 48.1169C56.3116 49.9861 56.8565 51.5201 60.2588 51.5201C60.8849 51.5201 62.617 50.8893 62.617 49.8409H67.5058C67.312 52.9505 62.0802 53.6971 59.7991 53.6971C55.0726 53.6971 51.026 52.8174 51.2218 48.1616C51.3608 44.8357 54.5003 42.5012 60.7479 42.6455C64.2303 42.7298 67.5748 43.8117 67.5921 46.3341L62.6606 46.3331Z" fill="#231F20"/>
<path d="M19.4746 42.8691H25.8237L31.2422 50.4688H31.2858V42.8691H35.3548V53.4189H29.2726L23.5903 45.8222H23.5467V53.4189H19.4746V42.8691Z" fill="#231F20"/>
<path d="M41.0776 51.2074H42.3551C44.7285 51.2074 45.6011 50.9585 45.6011 50.1417C45.6011 49.263 44.4982 48.9684 42.7275 48.9684H41.0776V51.2074ZM41.0776 46.9681H42.3551C44.3226 46.9681 45.3698 46.8137 45.3698 45.997C45.3698 45.1182 44.4982 44.8277 42.7275 44.8277H41.0776V46.9681ZM36.6119 42.8691H44.3216C48.0314 42.8691 50.2099 43.9053 50.2099 45.4718C50.2099 46.3921 49.2967 47.534 47.2632 47.8692V47.9007C49.7137 48.046 50.6179 49.5952 50.6179 50.5237C50.6179 52.3838 48.491 53.4189 44.3439 53.4189H36.6119V42.8691Z" fill="#231F20"/>
<path d="M6.69326 60.9817H9.93119L8.35636 57.7796H8.32085L6.69326 60.9817ZM6.95607 55.6372H9.77289L14.4476 64.3422H11.5943L10.6506 62.4059H5.97586L4.99566 64.3422H2.2113L6.95607 55.6372Z" fill="#231F20"/>
<path d="M15.5336 55.6372H24.3149V57.2473H18.2774V59.2588H23.5102V60.7429H18.2774V64.3422H15.5336V55.6372Z" fill="#231F20"/>
<path d="M28.6568 59.5838H31.6755C32.3067 59.5838 32.7815 59.4873 33.0991 59.2882C33.4137 59.0932 33.572 58.7752 33.572 58.3333C33.572 57.9097 33.4137 57.5998 33.0991 57.4099C32.7815 57.2189 32.3067 57.1224 31.6755 57.1224H28.6568V59.5838ZM25.913 55.6372H32.6547C33.2179 55.6372 33.7191 55.7012 34.1717 55.8251C34.6232 55.9501 35.0048 56.1238 35.3264 56.3452C35.6461 56.5647 35.8926 56.8207 36.0611 57.1142C36.2315 57.4068 36.3137 57.7167 36.3137 58.0428C36.3137 58.5527 36.1595 58.9987 35.8531 59.3766C35.5446 59.7504 35.0382 60.0328 34.3401 60.2299V60.2553C34.678 60.3193 34.9601 60.4189 35.1813 60.5601C35.4035 60.6962 35.5831 60.8547 35.7242 61.0396C35.8642 61.2214 35.9657 61.4216 36.0306 61.6359C36.0946 61.8513 36.1372 62.0687 36.1595 62.2881C36.1717 62.4242 36.1838 62.5888 36.194 62.7747C36.2072 62.9606 36.2285 63.1506 36.2559 63.3476C36.2884 63.5386 36.332 63.7245 36.3969 63.9013C36.4619 64.073 36.5583 64.2213 36.6851 64.3442H33.9393C33.8561 64.2081 33.7952 64.0537 33.7546 63.8881C33.712 63.7195 33.6796 63.5457 33.6481 63.3659C33.6197 63.1841 33.5974 62.9931 33.5791 62.8042C33.5629 62.6122 33.5355 62.4334 33.4999 62.2627C33.4056 61.8076 33.2097 61.4744 32.9023 61.2631C32.5999 61.0518 32.1007 60.9451 31.4127 60.9451H28.6568V64.3442H25.913V55.6372Z" fill="#231F20"/>
<path d="M41.2979 55.6362H38.5531V64.3422H41.2979V55.6362Z" fill="#231F20"/>
<path d="M52.0518 58.5712C52.0041 58.3517 51.8996 58.1526 51.7352 57.9687C51.5728 57.7828 51.3689 57.6223 51.1233 57.4832C50.8788 57.3481 50.6018 57.2393 50.2923 57.1632C49.9828 57.086 49.6591 57.0453 49.3192 57.0453C48.7022 57.0453 48.1766 57.1307 47.7454 57.2983C47.3131 57.4649 46.963 57.6863 46.6941 57.9687C46.4252 58.2461 46.2314 58.5661 46.1066 58.9237C45.9859 59.2813 45.926 59.651 45.926 60.031C45.926 60.3967 45.9859 60.7512 46.1066 61.0987C46.2314 61.4451 46.4252 61.7549 46.6941 62.0282C46.963 62.3035 47.3131 62.527 47.7454 62.6926C48.1766 62.8592 48.7022 62.9445 49.3192 62.9445C50.1583 62.9445 50.8149 62.7627 51.2897 62.4051C51.7595 62.0495 52.0518 61.5781 52.1573 60.995H54.8169C54.7479 61.5375 54.5662 62.0302 54.275 62.4691C53.9818 62.9069 53.5972 63.2848 53.1172 63.5916C52.6403 63.8994 52.0792 64.1361 51.4369 64.3037C50.7976 64.4703 50.0893 64.5516 49.3192 64.5516C48.3522 64.5516 47.4886 64.4348 46.7296 64.1991C45.9737 63.9634 45.3314 63.6444 44.8048 63.236C44.2812 62.8297 43.8804 62.3492 43.5983 61.7986C43.3192 61.2449 43.1802 60.6557 43.1802 60.03C43.1802 59.39 43.3192 58.7855 43.5983 58.2268C43.8804 57.665 44.2812 57.1784 44.8048 56.7629C45.3314 56.3494 45.9737 56.0264 46.7296 55.7887C47.4886 55.554 48.3522 55.4341 49.3192 55.4341C49.997 55.4341 50.6424 55.5042 51.2634 55.6414C51.8803 55.7816 52.4333 55.9817 52.9163 56.2479C53.4013 56.511 53.8011 56.8371 54.1157 57.2282C54.4302 57.6193 54.6291 58.0663 54.7123 58.5701H52.0518" fill="#231F20"/>
<path d="M59.8456 60.9817H63.0846L61.5077 57.7796H61.4732L59.8456 60.9817ZM60.1074 55.6372H62.9242L67.6 64.3422H64.7456L63.8009 62.4059H59.1282L58.147 64.3422H55.3647L60.1074 55.6372Z" fill="#231F20"/>
<path d="M66.8341 29.9188C65.0908 26.4912 60.9001 25.1289 57.4764 26.8732C57.2065 27.0103 56.9508 27.1658 56.7053 27.3303L38.3442 40.044H60.6373C61.6976 40.044 62.7834 39.8022 63.793 39.2872C67.2156 37.5378 68.5783 33.3463 66.8341 29.9188Z" fill="#0CB14B"/>
<path d="M49.0026 15.478L39.3771 37.6443L59.2166 23.9026C59.6438 23.606 60.0446 23.2525 60.4089 22.8522C62.9508 20.026 62.7214 15.674 59.8995 13.1313C57.0797 10.5846 52.7306 10.8152 50.1898 13.6403C49.6855 14.2031 49.2918 14.8238 49.0026 15.478Z" fill="#0089D0"/>
<path d="M48.956 12.2097C49.2188 11.59 49.3953 10.9226 49.4684 10.2186C49.8712 6.39281 47.096 2.96526 43.2757 2.56297C39.4543 2.1617 36.0307 4.93808 35.6298 8.76386C35.5903 9.14583 35.5791 9.52678 35.6024 9.90266H35.5953C35.5953 10.0185 35.6461 10.0723 35.776 10.0723C35.9038 10.0723 37.4482 10.0723 37.6237 10.0723C38.0012 10.0723 38.5654 10.1841 38.5654 10.4817C38.5654 10.7093 37.5618 10.9226 36.9429 11.5189C36.2904 12.1457 35.9941 13.2662 36.1504 14.344V14.3379L39.2412 35.1796L48.956 12.2097Z" fill="#645FAA"/>
<path d="M9.20585 40.044H31.4959L13.1327 27.3303C12.8902 27.1658 12.6325 27.0103 12.3646 26.8732C8.93898 25.1289 4.74825 26.4912 3.00701 29.9188C1.26172 33.3463 2.62447 37.5378 6.04707 39.2872C7.05772 39.8022 8.14447 40.044 9.20585 40.044Z" fill="#FDB913"/>
<path d="M20.8375 15.478L30.462 37.6434L10.6235 23.9016C10.1962 23.605 9.79543 23.2515 9.43318 22.8512C6.89134 20.0251 7.11965 15.6731 9.94053 13.1303C12.7635 10.5836 17.1084 10.8142 19.6513 13.6393C20.1556 14.2031 20.5524 14.8238 20.8375 15.478Z" fill="#F37021"/>
<path d="M34.2374 9.90266L30.5967 35.1796L20.8829 12.2097C20.6211 11.59 20.4465 10.9226 20.3725 10.2186C19.9707 6.39281 22.7449 2.96526 26.5642 2.56297C30.3856 2.1617 33.8102 4.93808 34.209 8.76386C34.2506 9.14583 34.2587 9.52678 34.2374 9.90266Z" fill="#C8234A"/>
</g>
</g>
</g>
<defs>
<clipPath id="clip0_1_975">
<rect width="69" height="64" fill="white" transform="translate(0.245972 0.969238)"/>
</clipPath>
<clipPath id="clip1_1_975">
<rect width="69" height="64" fill="white" transform="translate(0.245972 0.969238)"/>
</clipPath>
<clipPath id="clip2_1_975">
<rect width="69" height="64" fill="white" transform="translate(0.245972 0.969238)"/>
</clipPath>
</defs>
</svg>
