<svg width="103" height="64" viewBox="0 0 103 64" fill="none" xmlns="http://www.w3.org/2000/svg">
<g clip-path="url(#clip0_1_950)">
<g clip-path="url(#clip1_1_950)">
<g clip-path="url(#clip2_1_950)">
<mask id="mask0_1_950" style="mask-type:luminance" maskUnits="userSpaceOnUse" x="0" y="0" width="103" height="64">
<path fill-rule="evenodd" clip-rule="evenodd" d="M0.723999 0.916016H102.266V63.469H0.723999V0.916016Z" fill="white"/>
</mask>
<g mask="url(#mask0_1_950)">
<path fill-rule="evenodd" clip-rule="evenodd" d="M82.342 54.719L82.311 54.743L82.035 54.413C76.342 59.094 69.111 61.627 61.649 61.627C53.11 61.627 45.109 58.403 39.109 52.493C33.11 46.661 29.802 38.832 29.802 30.543C29.802 24.173 31.725 17.955 35.494 12.736C39.187 7.59402 44.264 3.75602 50.264 1.53002L50.034 0.916016C43.956 3.21902 38.726 7.13302 35.033 12.353C31.187 17.725 29.11 24.019 29.11 30.543C29.11 38.985 32.495 46.967 38.649 52.953C39.2268 53.5114 39.8249 54.0484 40.442 54.563L39.648 55.487C45.725 60.629 53.572 63.469 61.649 63.469C69.573 63.469 77.188 60.706 83.266 55.794L82.342 54.719Z" fill="#004B86"/>
</g>
<path fill-rule="evenodd" clip-rule="evenodd" d="M35.802 11.3548C35.6507 10.8572 35.5733 10.34 35.572 9.81984C35.572 7.51684 37.11 5.44384 39.879 5.44384C40.495 5.44384 41.033 5.52084 41.495 5.67384C41.956 5.29084 42.495 4.90684 43.033 4.59984C42.11 4.06284 41.033 3.75684 39.879 3.75684C36.494 3.75684 33.649 6.44284 33.649 9.81984C33.649 10.9708 34.033 12.1218 34.571 13.0428C34.725 12.8128 34.879 12.5828 35.032 12.4288C35.264 12.0448 35.572 11.6618 35.802 11.3548ZM44.11 5.36784C43.572 5.67484 43.11 5.98184 42.649 6.36584C43.649 7.13284 44.187 8.43784 44.187 9.81984C44.187 12.1218 42.495 14.1168 39.879 14.1168C38.417 14.1168 37.264 13.5028 36.495 12.5058C36.341 12.7358 36.187 12.8898 36.033 13.1198C35.803 13.4268 35.572 13.7338 35.417 14.0398C36.6238 15.1775 38.2205 15.8098 39.879 15.8068C43.341 15.8068 46.11 13.1968 46.11 9.81984C46.11 8.05384 45.341 6.44284 44.11 5.36784ZM33.11 25.4768C33.11 27.3188 32.033 28.9308 30.418 29.5448V31.3868C33.033 30.6968 35.032 28.3938 35.032 25.4768C35.032 23.4048 33.879 21.5628 32.187 20.4108C31.956 21.0248 31.802 21.5628 31.571 22.0998C32.571 22.9438 33.11 24.1728 33.11 25.4768ZM29.186 29.8518H28.802C26.187 29.8518 24.417 27.8558 24.417 25.4768C24.417 23.2508 25.956 21.1788 28.802 21.1788C29.417 21.1788 30.032 21.2548 30.494 21.4858C30.648 20.9478 30.802 20.4108 31.033 19.8738C30.3144 19.6283 29.5613 19.4987 28.802 19.4898C25.34 19.4898 22.571 22.1768 22.571 25.4768C22.571 28.9308 25.341 31.5398 28.802 31.5398H29.186C29.186 31.2338 29.109 30.8498 29.109 30.5428C29.109 30.3128 29.186 30.0828 29.186 29.8518ZM33.264 36.9888C36.033 36.9888 37.571 39.0618 37.571 41.2878C37.571 43.2828 36.341 45.0478 34.417 45.5088C34.725 46.0458 35.033 46.5068 35.34 47.0438C37.725 46.1998 39.495 44.0508 39.495 41.2878C39.495 37.9878 36.648 35.3008 33.264 35.3008C32.418 35.3008 31.571 35.4548 30.879 35.7608C30.956 36.2988 31.033 36.9128 31.187 37.4508C31.802 37.1428 32.494 36.9888 33.264 36.9888ZM28.955 41.2868C28.955 40.1368 29.341 39.0618 30.109 38.2168C29.955 37.6038 29.802 36.9898 29.725 36.3758C28.11 37.4498 27.033 39.2918 27.033 41.2868C27.033 44.7418 29.802 47.3508 33.263 47.3508C33.494 47.3508 33.803 47.3508 34.033 47.2748C33.725 46.7368 33.341 46.1998 33.033 45.6628C30.571 45.5088 28.955 43.6668 28.955 41.2868ZM63.495 35.5308V42.5158C63.495 44.1278 62.957 45.6628 60.88 45.6628C58.803 45.6628 58.264 44.1278 58.264 42.5158V35.5308H56.341V42.8998C56.341 45.4318 57.957 47.3508 60.881 47.3508C63.805 47.3508 65.418 45.4318 65.418 42.8998V35.5308H63.495ZM65.034 13.9638H70.265V15.5758H63.11V3.98584H65.034V13.9638ZM0.723999 19.7208H7.494V21.4078H2.646V24.1718H7.416V25.8608H2.646V29.6208H7.492V31.3098H0.723999V19.7208ZM38.956 19.1068L46.956 27.3188V19.7208H48.879V31.7708L40.879 23.7108V31.3098H38.956V19.1068Z" fill="#141414"/>
<mask id="mask1_1_950" style="mask-type:luminance" maskUnits="userSpaceOnUse" x="0" y="0" width="103" height="64">
<path fill-rule="evenodd" clip-rule="evenodd" d="M0.723999 0.916016H102.266V63.469H0.723999V0.916016Z" fill="white"/>
</mask>
<g mask="url(#mask1_1_950)">
<path fill-rule="evenodd" clip-rule="evenodd" d="M86.65 19.7209H88.574V31.3089H86.65V19.7209ZM19.417 37.2189V39.9829H23.57V41.5949H19.417V47.1209H17.494V35.5309H23.725V37.2199L19.417 37.2189ZM27.11 11.2009H27.187L29.032 3.98686H30.879L27.648 16.0369L23.571 7.36386L19.494 16.0369L16.187 3.98686H18.109L19.956 11.2009L23.571 3.75586L27.11 11.2009ZM71.573 24.0949H71.496L69.649 31.3099H67.804L71.035 19.2599L75.112 28.0099L79.19 19.2599L82.497 31.3099H80.574L78.727 24.0949H78.65L75.112 31.6169L71.573 24.0949ZM72.573 39.9059L70.726 47.1209H68.804L72.035 35.0709L76.189 43.7439L80.267 35.0699L83.497 47.1199H81.574L79.727 39.9059L76.189 47.3509L72.573 39.9059ZM46.726 35.5309C47.802 35.5309 49.033 35.5309 49.956 36.0689C50.956 36.6059 51.572 37.7569 51.572 38.8319C51.572 40.5199 50.418 41.9019 48.725 42.0549L52.418 47.1209H50.264L46.804 42.2089H45.494V47.1209H43.571V35.5309H46.726ZM45.495 40.6739H46.341C47.88 40.6739 49.726 40.7499 49.726 38.9079C49.726 37.0659 47.802 37.1429 46.264 37.1429H45.494L45.495 40.6739ZM53.264 3.98586C54.341 3.98586 55.572 3.98586 56.494 4.52386C57.495 5.06086 58.034 6.21186 58.034 7.28686C58.034 8.97586 56.957 10.3569 55.188 10.5099L58.957 15.5759H56.803L53.264 10.6639H52.034V15.5759H50.11V3.98586H53.264ZM52.034 9.12886H52.88C54.418 9.12886 56.187 9.20586 56.187 7.36286C56.187 5.52086 54.264 5.59886 52.803 5.59886H52.033L52.034 9.12886ZM75.573 13.9639H76.65C79.188 13.9639 81.573 13.0429 81.573 9.74286C81.573 6.36586 79.188 5.59786 76.65 5.59786H75.573V13.9639ZM73.649 3.98686H76.803C80.496 3.98686 83.496 5.75086 83.496 9.74286C83.496 13.7329 80.573 15.5759 76.803 15.5759H73.649V3.98686ZM101.266 29.3149C100.65 29.6979 99.958 29.8519 99.112 29.8519C96.573 29.8519 94.804 27.9319 94.804 25.5529C94.804 23.2509 96.343 21.1789 99.112 21.1789C99.958 21.1789 100.65 21.3319 101.266 21.6389L102.189 20.2579C101.242 19.7523 100.185 19.4885 99.112 19.4899C95.727 19.4899 92.882 22.1769 92.882 25.5529C92.882 28.9309 95.727 31.5399 99.112 31.5399C100.266 31.5399 101.342 31.3099 102.266 30.7729L101.266 29.3149ZM19.494 29.3149C18.878 29.6979 18.186 29.8519 17.417 29.8519C14.801 29.8519 13.032 27.9319 13.032 25.5529C13.032 23.2509 14.57 21.1789 17.417 21.1789C18.186 21.1789 18.878 21.3319 19.494 21.6389L20.494 20.2579C19.571 19.7979 18.494 19.4899 17.417 19.4899C13.955 19.4899 11.187 22.1769 11.187 25.5529C11.187 28.9309 13.955 31.5399 17.417 31.5399C18.493 31.5399 19.571 31.3099 20.494 30.7729L19.494 29.3149ZM63.418 25.5539C63.418 23.2509 61.88 21.1789 59.111 21.1789C56.265 21.1789 54.726 23.2509 54.726 25.5539C54.726 27.9329 56.495 29.8509 59.111 29.8509C61.649 29.8509 63.418 27.9329 63.418 25.5539ZM65.342 25.5539C65.342 28.9309 62.495 31.5409 59.111 31.5409C55.649 31.5409 52.88 28.9309 52.88 25.5539C52.88 22.1769 55.65 19.4899 59.11 19.4899C62.495 19.4899 65.342 22.1759 65.342 25.5539Z" fill="#141414"/>
</g>
</g>
</g>
</g>
<defs>
<clipPath id="clip0_1_950">
<rect width="102" height="63" fill="white" transform="translate(0.723999 0.469238)"/>
</clipPath>
<clipPath id="clip1_1_950">
<rect width="102" height="63" fill="white" transform="translate(0.723999 0.469238)"/>
</clipPath>
<clipPath id="clip2_1_950">
<rect width="102" height="63" fill="white" transform="translate(0.723999 0.469238)"/>
</clipPath>
</defs>
</svg>
