<svg width="141" height="41" viewBox="0 0 141 41" fill="none" xmlns="http://www.w3.org/2000/svg">
<g clip-path="url(#clip0_1_970)">
<g clip-path="url(#clip1_1_970)">
<g clip-path="url(#clip2_1_970)">
<path d="M76.216 26.8218C76.216 31.1686 70.8068 30.9107 70.8068 30.9107H65.3977V23.0563H70.8068C76.3735 23.0189 76.216 26.8218 76.216 26.8218ZM65.3977 11.0777H69.5195C73.7996 11.3038 73.6381 14.4904 73.6381 14.4904C73.6381 18.4505 68.9053 18.5151 68.9053 18.5151H65.3977V11.0777ZM75.2155 20.0596C75.2155 20.0596 78.9179 18.482 78.8849 14.2973C78.8849 14.2973 79.448 7.43923 70.3616 6.60275H60.2791V35.3533H71.8361C71.8361 35.3533 81.4925 35.3821 81.4925 27.2412C81.4923 27.2412 81.7207 21.7012 75.2155 20.0596ZM49.1223 0.969238H91.5716V40.9708H49.1223V0.969238ZM27.2653 26.8218C27.2653 31.1686 21.8561 30.9107 21.8561 30.9107H16.4466V23.0563H21.8561C27.4232 23.0189 27.2653 26.8218 27.2653 26.8218ZM16.4466 11.0777H20.5692C24.8495 11.3038 24.6875 14.4904 24.6875 14.4904C24.6875 18.4505 19.955 18.5151 19.955 18.5151H16.4466V11.0777ZM26.2652 20.0596C26.2652 20.0596 29.9682 18.482 29.9349 14.2973C29.9349 14.2973 30.4976 7.43923 21.4112 6.60275H11.3283V35.3533H22.886C22.886 35.3533 32.5422 35.3821 32.5422 27.2412C32.5422 27.2412 32.7697 21.7012 26.2652 20.0596ZM0.171997 0.969238H42.6213V40.9708H0.171997V0.969238ZM131.863 8.66393V13.9756C131.863 13.9756 126.678 10.7894 120.948 10.7252C120.948 10.7252 110.259 10.5154 109.777 20.9715C109.777 20.9715 109.391 30.5873 120.82 31.1352C120.82 31.1352 125.615 31.7128 132.12 27.5646V33.0656C132.12 33.0656 123.394 38.25 113.285 34.2569C113.285 34.2569 104.788 31.1539 104.464 20.9715C104.464 20.9715 104.111 10.4987 115.444 7.02225C115.444 7.02225 118.47 5.86366 123.908 6.37861C123.909 6.37847 127.159 6.70001 131.863 8.66393ZM98.0727 40.9708H140.522V0.969238H98.0727V40.9708Z" fill="black"/>
</g>
</g>
</g>
<defs>
<clipPath id="clip0_1_970">
<rect width="140.35" height="40" fill="white" transform="translate(0.171997 0.969238)"/>
</clipPath>
<clipPath id="clip1_1_970">
<rect width="140.35" height="40" fill="white" transform="translate(0.171997 0.969238)"/>
</clipPath>
<clipPath id="clip2_1_970">
<rect width="140.35" height="39.9997" fill="white" transform="translate(0.171997 0.969238)"/>
</clipPath>
</defs>
</svg>
