<svg width="605" height="472" viewBox="0 0 605 472" fill="none" xmlns="http://www.w3.org/2000/svg">
<g clip-path="url(#clip0_1_687)">
<mask id="mask0_1_687" style="mask-type:luminance" maskUnits="userSpaceOnUse" x="0" y="0" width="605" height="472">
<path d="M605 0.0498047H0V471.07H605V0.0498047Z" fill="white"/>
</mask>
<g mask="url(#mask0_1_687)">
<path d="M311.974 10.3516C462.473 10.3516 584.476 111.178 584.476 235.554C584.476 359.931 462.473 460.757 311.974 460.757C161.475 460.757 39.472 359.931 39.472 235.554C39.472 111.178 161.475 10.3516 311.974 10.3516Z" fill="#DBF8FF"/>
<mask id="mask1_1_687" style="mask-type:luminance" maskUnits="userSpaceOnUse" x="0" y="0" width="605" height="472">
<path d="M0 0.0498047H605V471.07H0V0.0498047Z" fill="white"/>
</mask>
<g mask="url(#mask1_1_687)">
<mask id="mask2_1_687" style="mask-type:alpha" maskUnits="userSpaceOnUse" x="39" y="10" width="546" height="451">
<path d="M311.974 10.3516C462.473 10.3516 584.476 111.178 584.476 235.554C584.476 359.931 462.473 460.757 311.974 460.757C161.475 460.757 39.472 359.931 39.472 235.554C39.472 111.178 161.475 10.3516 311.974 10.3516Z" fill="#DBF8FF"/>
</mask>
<g mask="url(#mask2_1_687)">
<path d="M311.974 245.058C335.058 245.058 353.769 229.612 353.769 210.558C353.769 191.503 335.058 176.056 311.974 176.056C288.892 176.056 270.179 191.503 270.179 210.558C270.179 229.612 288.892 245.058 311.974 245.058Z" fill="#FFC73D"/>
<path d="M311.97 242.474C290.682 242.474 273.361 228.176 273.361 210.603C273.361 193.029 290.682 178.731 311.97 178.731C333.258 178.731 350.579 193.029 350.579 210.603C350.579 228.176 333.258 242.474 311.97 242.474ZM311.97 180.299C291.744 180.299 275.315 193.86 275.315 210.557C275.315 227.254 291.744 240.814 311.97 240.814C332.197 240.814 348.624 227.254 348.624 210.557C348.68 193.906 332.197 180.299 311.97 180.299Z" fill="#E1941A"/>
<path d="M331.753 207.845H292.192V208.859H331.753V207.845Z" fill="#E1941A"/>
<path d="M331.753 212.323H292.192V213.338H331.753V212.323Z" fill="#E1941A"/>
<path d="M301.861 221.671V199.439H305.661L314.266 210.694C316.278 213.276 317.842 215.628 319.127 217.934L319.184 217.888C318.847 214.936 318.792 212.215 318.792 208.756V199.439H322.088V221.671H318.569L310.019 210.416C308.12 207.925 306.332 205.389 304.991 202.991L304.878 203.037C305.102 205.85 305.158 208.525 305.158 212.215V221.717H301.861V221.671Z" fill="#E1941A"/>
</g>
<mask id="mask3_1_687" style="mask-type:alpha" maskUnits="userSpaceOnUse" x="289" y="73" width="44" height="86">
<path d="M332.85 73.5288L290.104 74.4709L289.534 144.183L312.902 158.784L332.85 145.125V73.5288Z" fill="#40186C"/>
</mask>
<g mask="url(#mask3_1_687)">
<path d="M314.767 86.7632H311.972V156.365H314.767V86.7632Z" fill="#E1941A"/>
<path d="M332.083 74.9512H329.289V144.552H332.083V74.9512Z" fill="#E1941A"/>
<path d="M294.65 74.9512H291.856V144.552H294.65V74.9512Z" fill="#E1941A"/>
</g>
</g>
<mask id="mask4_1_687" style="mask-type:alpha" maskUnits="userSpaceOnUse" x="39" y="10" width="546" height="451">
<path d="M311.974 10.3516C462.473 10.3516 584.476 111.178 584.476 235.554C584.476 359.931 462.473 460.757 311.974 460.757C161.475 460.757 39.472 359.931 39.472 235.554C39.472 111.178 161.475 10.3516 311.974 10.3516Z" fill="#DBF8FF"/>
</mask>
<g mask="url(#mask4_1_687)">
<path d="M416.938 252.042V216.563H416.167V216.509H428.088C431.085 216.509 433.525 214.492 433.525 212.014V202.512C433.525 200.035 431.085 198.017 428.088 198.017H214.612C211.615 198.017 209.175 200.035 209.175 202.512V212.014C209.175 214.492 211.615 216.509 214.612 216.509H226.64V216.563H225.806V252.166H226.127C202.519 254.768 184.326 271.454 184.326 291.68V459.558C184.326 481.572 205.922 499.427 232.548 499.427H411.63C438.256 499.427 459.851 481.572 459.851 459.558V291.68C459.851 271.135 441.081 254.237 416.938 252.042Z" fill="#FFF5DB" fill-opacity="0.73"/>
<path d="M236.883 262.512C236.883 262.512 202.204 268.18 200.853 290.872C199.501 313.563 200.853 470.284 200.853 470.284C200.853 470.284 198.803 482.663 229.253 486.266C229.253 486.266 207.806 351.706 213.343 312.521C218.879 273.336 236.883 262.512 236.883 262.512Z" fill="white"/>
</g>
<mask id="mask5_1_687" style="mask-type:luminance" maskUnits="userSpaceOnUse" x="0" y="37" width="605" height="472">
<path d="M0 37.7314H605V508.751H0V37.7314Z" fill="white"/>
</mask>
<g mask="url(#mask5_1_687)">
<path d="M135.214 453.071H226.512C243.777 453.071 252.789 436.066 241.082 425.544L203.519 391.813L149.785 343.658C141.952 336.619 128.476 336.619 120.644 343.658L66.9096 391.813L29.3461 425.544C17.639 436.066 26.6511 453.071 43.9165 453.071H135.214Z" fill="#FFC73D"/>
<path d="M134.456 315.365L174.04 310.765L157.28 330.906L140.52 351.046L117.696 335.505L94.871 319.895L134.456 315.365Z" fill="#FFC73D"/>
<path d="M151.637 336.552H118.959V345.332H151.637V336.552Z" fill="#5F36A8"/>
<path d="M142.963 403.87H148.185V429.306H144.058L127.466 411.466V429.306H122.328V403.87H126.455L142.963 421.64V403.87Z" fill="#5F36A8"/>
<path d="M153.238 410.073H117.191V413.627H153.238V410.073Z" fill="#5F36A8"/>
<path d="M153.238 419.62H117.191V423.174H153.238V419.62Z" fill="#5F36A8"/>
<path d="M135.129 339.483H127.55V364.427H135.129V339.483Z" fill="#5F36A8"/>
</g>
</g>
</g>
<defs>
<clipPath id="clip0_1_687">
<rect width="605" height="471.02" fill="white" transform="translate(0 0.0498047)"/>
</clipPath>
</defs>
</svg>
