<svg width="30" height="30" viewBox="0 0 30 30" fill="none" xmlns="http://www.w3.org/2000/svg">
<path opacity="0.3" d="M15 30C23.2843 30 30 23.2843 30 15C30 6.71573 23.2843 0 15 0C6.71573 0 0 6.71573 0 15C0 23.2843 6.71573 30 15 30Z" fill="#008751"/>
<mask id="mask0_1_2158" style="mask-type:alpha" maskUnits="userSpaceOnUse" x="6" y="7" width="18" height="16">
<path d="M20.0865 7.29712H9.91406C8.25721 7.29712 6.91406 8.64026 6.91406 10.2971V19.6994C6.91406 21.3563 8.25721 22.6994 9.91406 22.6994H20.0865C21.7433 22.6994 23.0865 21.3563 23.0865 19.6994V10.2971C23.0865 8.64026 21.7433 7.29712 20.0865 7.29712Z" fill="#E94D1E"/>
</mask>
<g mask="url(#mask0_1_2158)">
<path d="M0.324219 4.1355H29.5134V26.0274H0.324219V4.1355Z" fill="#008751"/>
<path d="M11.1875 4.05444H19.2956V25.9463H11.1875V4.05444Z" fill="white"/>
</g>
</svg>
