<svg width="135" height="41" viewBox="0 0 135 41" fill="none" xmlns="http://www.w3.org/2000/svg">
<path d="M130 0.399994H5C2.23858 0.399994 0 2.63857 0 5.39999V35.4C0 38.1614 2.23858 40.4 5 40.4H130C132.761 40.4 135 38.1614 135 35.4V5.39999C135 2.63857 132.761 0.399994 130 0.399994Z" fill="black"/>
<path d="M130 1.19999C131.114 1.19999 132.182 1.64249 132.97 2.43014C133.758 3.21779 134.2 4.28608 134.2 5.39999V35.4C134.2 36.5139 133.758 37.5822 132.97 38.3698C132.182 39.1575 131.114 39.6 130 39.6H5C3.88609 39.6 2.8178 39.1575 2.03015 38.3698C1.2425 37.5822 0.8 36.5139 0.8 35.4V5.39999C0.8 4.28608 1.2425 3.21779 2.03015 2.43014C2.8178 1.64249 3.88609 1.19999 5 1.19999H130ZM130 0.399994H5C3.67392 0.399994 2.40215 0.926778 1.46447 1.86446C0.526784 2.80214 0 4.07391 0 5.39999V35.4C0 36.7261 0.526784 37.9979 1.46447 38.9355C2.40215 39.8732 3.67392 40.4 5 40.4H130C131.326 40.4 132.598 39.8732 133.536 38.9355C134.473 37.9979 135 36.7261 135 35.4V5.39999C135 4.07391 134.473 2.80214 133.536 1.86446C132.598 0.926778 131.326 0.399994 130 0.399994Z" fill="#A6A6A6"/>
<path d="M47.4201 10.64C47.4365 11.0067 47.3785 11.373 47.2496 11.7167C47.1208 12.0604 46.9236 12.3745 46.6701 12.64C46.386 12.9333 46.0432 13.1633 45.6641 13.3149C45.285 13.4666 44.8781 13.5364 44.4701 13.52C44.0598 13.5291 43.6519 13.454 43.2718 13.2992C42.8916 13.1444 42.5473 12.9132 42.2601 12.62C41.9638 12.3325 41.7301 11.9869 41.5735 11.6049C41.4169 11.2229 41.3409 10.8127 41.3501 10.4C41.3395 9.98556 41.4149 9.57345 41.5715 9.18963C41.7281 8.80582 41.9626 8.45863 42.2601 8.16996C42.7056 7.73465 43.2698 7.4407 43.8819 7.32505C44.4939 7.20941 45.1265 7.27722 45.7001 7.51996C46.0607 7.6682 46.3823 7.89745 46.6401 8.18996L46.1101 8.71996C45.9115 8.48074 45.6599 8.2911 45.3752 8.16612C45.0905 8.04113 44.7806 7.98424 44.4701 7.99996C44.1578 7.99843 43.8483 8.05999 43.5603 8.18095C43.2723 8.30192 43.0117 8.47979 42.7941 8.7039C42.5766 8.92802 42.4065 9.19377 42.2941 9.48521C42.1817 9.77665 42.1293 10.0878 42.1401 10.4C42.1336 10.8661 42.2652 11.3237 42.5184 11.7151C42.7717 12.1065 43.1352 12.4142 43.563 12.5992C43.9909 12.7843 44.464 12.8385 44.9227 12.755C45.3813 12.6715 45.8049 12.454 46.1401 12.13C46.4485 11.796 46.6291 11.364 46.6501 10.91H44.4701V10.19H47.3801C47.4025 10.339 47.4158 10.4893 47.4201 10.64Z" fill="white" stroke="white" stroke-width="0.2" stroke-miterlimit="10"/>
<path d="M52 8.13999H49.3V10.04H51.76V10.76H49.3V12.66H52V13.4H48.52V7.39999H52V8.13999Z" fill="white" stroke="white" stroke-width="0.2" stroke-miterlimit="10"/>
<path d="M55.2801 13.4H54.5101V8.13999H52.8301V7.39999H57.0001V8.13999H55.2801V13.4Z" fill="white" stroke="white" stroke-width="0.2" stroke-miterlimit="10"/>
<path d="M59.9399 13.4V7.39999H60.7099V13.4H59.9399Z" fill="white" stroke="white" stroke-width="0.2" stroke-miterlimit="10"/>
<path d="M64.1299 13.4H63.3599V8.13999H61.6799V7.39999H65.7999V8.13999H64.1299V13.4Z" fill="white" stroke="white" stroke-width="0.2" stroke-miterlimit="10"/>
<path d="M73.6099 12.6199C73.3211 12.909 72.9781 13.1383 72.6006 13.2947C72.2231 13.4512 71.8185 13.5317 71.4099 13.5317C71.0013 13.5317 70.5967 13.4512 70.2192 13.2947C69.8417 13.1383 69.4987 12.909 69.2099 12.6199C68.919 12.3298 68.6909 11.9831 68.5395 11.6012C68.3881 11.2194 68.3168 10.8105 68.3299 10.3999C68.3168 9.98932 68.3881 9.58043 68.5395 9.19855C68.6909 8.81668 68.919 8.46997 69.2099 8.17989C69.4925 7.88269 69.8343 7.64812 70.2133 7.49137C70.5923 7.33461 70.9999 7.25916 71.4099 7.26989C71.8193 7.26341 72.2257 7.34081 72.604 7.49731C72.9824 7.65381 73.3247 7.88611 73.6099 8.17989C73.8974 8.47238 74.1235 8.81952 74.2746 9.20082C74.4257 9.58211 74.499 9.98983 74.4899 10.3999C74.503 10.8105 74.4317 11.2194 74.2803 11.6012C74.1289 11.9831 73.9008 12.3298 73.6099 12.6199ZM69.7799 12.1199C69.9929 12.3358 70.2467 12.5072 70.5265 12.6242C70.8063 12.7412 71.1066 12.8014 71.4099 12.8014C71.7132 12.8014 72.0135 12.7412 72.2933 12.6242C72.5731 12.5072 72.8269 12.3358 73.0399 12.1199C73.2614 11.8929 73.4349 11.6236 73.55 11.3281C73.6652 11.0326 73.7195 10.7169 73.7099 10.3999C73.7143 10.08 73.6536 9.76264 73.5316 9.46696C73.4095 9.17128 73.2286 8.9035 72.9999 8.67989C72.7869 8.46401 72.5331 8.2926 72.2533 8.17561C71.9735 8.05861 71.6732 7.99837 71.3699 7.99837C71.0666 7.99837 70.7663 8.05861 70.4865 8.17561C70.2067 8.2926 69.9529 8.46401 69.7399 8.67989C69.5256 8.91013 69.3594 9.1809 69.2512 9.47627C69.143 9.77165 69.095 10.0857 69.1099 10.3999C69.1003 10.7169 69.1546 11.0326 69.2698 11.3281C69.3849 11.6236 69.5584 11.8929 69.7799 12.1199Z" fill="white" stroke="white" stroke-width="0.2" stroke-miterlimit="10"/>
<path d="M75.5801 13.4V7.39999H76.5101L79.4301 12.07V10.91V7.39999H80.2001V13.4H79.4001L76.3501 8.50999V9.65999V13.4H75.5801Z" fill="white" stroke="white" stroke-width="0.2" stroke-miterlimit="10"/>
<path d="M68.1401 22.1499C67.2976 22.1519 66.4745 22.4037 65.7751 22.8734C65.0756 23.3432 64.5312 24.0098 64.2106 24.7889C63.89 25.5681 63.8076 26.4248 63.9739 27.2508C64.1402 28.0768 64.5477 28.8349 65.1449 29.4292C65.7421 30.0236 66.5021 30.4276 67.3288 30.59C68.1556 30.7524 69.0119 30.6661 69.7896 30.3418C70.5672 30.0175 71.2313 29.47 71.6977 28.7683C72.1642 28.0667 72.4121 27.2425 72.4101 26.3999C72.4183 25.8379 72.3132 25.2799 72.1013 24.7593C71.8893 24.2386 71.5748 23.766 71.1764 23.3694C70.7779 22.9729 70.3038 22.6606 69.7822 22.451C69.2606 22.2415 68.7021 22.1391 68.1401 22.1499ZM68.1401 28.9799C67.6237 29.016 67.1083 28.896 66.6611 28.6353C66.2138 28.3747 65.8553 27.9855 65.6321 27.5184C65.409 27.0512 65.3315 26.5278 65.4098 26.0161C65.4881 25.5043 65.7185 25.028 66.0711 24.649C66.4237 24.2699 66.8821 24.0057 67.3869 23.8907C67.8916 23.7757 68.4193 23.8152 68.9013 24.004C69.3833 24.1929 69.7973 24.5223 70.0896 24.9496C70.3819 25.3769 70.5388 25.8822 70.5401 26.3999C70.5562 26.7279 70.5065 27.0559 70.3938 27.3643C70.2812 27.6728 70.1079 27.9556 69.8842 28.1961C69.6606 28.4366 69.391 28.6298 69.0914 28.7644C68.7919 28.899 68.4684 28.9723 68.1401 28.9799ZM58.8201 22.1499C57.9776 22.1519 57.1545 22.4037 56.4551 22.8734C55.7556 23.3432 55.2112 24.0098 54.8906 24.7889C54.57 25.5681 54.4876 26.4248 54.6539 27.2508C54.8202 28.0768 55.2277 28.8349 55.8249 29.4292C56.4221 30.0236 57.1821 30.4276 58.0088 30.59C58.8356 30.7524 59.6919 30.6661 60.4696 30.3418C61.2472 30.0175 61.9113 29.47 62.3777 28.7683C62.8442 28.0667 63.0921 27.2425 63.0901 26.3999C63.0983 25.8379 62.9932 25.2799 62.7813 24.7593C62.5693 24.2386 62.2548 23.766 61.8564 23.3694C61.4579 22.9729 60.9838 22.6606 60.4622 22.451C59.9406 22.2415 59.3821 22.1391 58.8201 22.1499ZM58.8201 28.9799C58.3037 29.016 57.7883 28.896 57.3411 28.6353C56.8938 28.3747 56.5353 27.9855 56.3121 27.5184C56.089 27.0512 56.0115 26.5278 56.0898 26.0161C56.1681 25.5043 56.3985 25.028 56.7511 24.649C57.1037 24.2699 57.5621 24.0057 58.0669 23.8907C58.5716 23.7757 59.0993 23.8152 59.5813 24.004C60.0633 24.1929 60.4773 24.5223 60.7696 24.9496C61.0619 25.3769 61.2188 25.8822 61.2201 26.3999C61.2362 26.7279 61.1865 27.0559 61.0738 27.3643C60.9612 27.6728 60.7879 27.9556 60.5642 28.1961C60.3406 28.4366 60.071 28.6298 59.7714 28.7644C59.4719 28.899 59.1484 28.9723 58.8201 28.9799ZM47.7401 23.4599V25.2599H52.0601C51.9924 26.1077 51.6399 26.9077 51.0601 27.5299C50.6268 27.9714 50.1056 28.3171 49.5302 28.5444C48.9549 28.7718 48.3382 28.8759 47.7201 28.8499C46.4471 28.8499 45.2262 28.3442 44.326 27.444C43.4258 26.5439 42.9201 25.323 42.9201 24.0499C42.9201 22.7769 43.4258 21.556 44.326 20.6558C45.2262 19.7556 46.4471 19.2499 47.7201 19.2499C48.9405 19.2318 50.119 19.6952 51.0001 20.5399L52.2701 19.2699C51.6741 18.6804 50.9664 18.2158 50.1886 17.9033C49.4107 17.5908 48.5783 17.4366 47.7401 17.4499C46.8511 17.4153 45.9643 17.5605 45.1327 17.8769C44.3012 18.1932 43.5421 18.6742 42.9009 19.2909C42.2596 19.9077 41.7495 20.6475 41.4011 21.4661C41.0527 22.2847 40.873 23.1652 40.873 24.0549C40.873 24.9446 41.0527 25.8251 41.4011 26.6437C41.7495 27.4623 42.2596 28.2022 42.9009 28.8189C43.5421 29.4357 44.3012 29.9166 45.1327 30.233C45.9643 30.5493 46.8511 30.6945 47.7401 30.6599C48.5955 30.6941 49.4485 30.5469 50.243 30.2281C51.0375 29.9092 51.7556 29.4259 52.3501 28.8099C53.4002 27.6563 53.9598 26.1391 53.9101 24.5799C53.9137 24.2046 53.8836 23.8298 53.8201 23.4599H47.7401ZM93.0501 24.8599C92.7893 24.0927 92.3016 23.4227 91.6516 22.9388C91.0016 22.4548 90.2199 22.1797 89.4101 22.1499C88.8631 22.1489 88.3217 22.26 87.8193 22.4765C87.317 22.6929 86.8644 23.0101 86.4895 23.4085C86.1146 23.8068 85.8254 24.2778 85.6397 24.7923C85.4541 25.3068 85.3759 25.854 85.4101 26.3999C85.4016 27.3128 85.6885 28.2039 86.2282 28.9402C86.7679 29.6765 87.5313 30.2184 88.4044 30.4851C89.2774 30.7517 90.2134 30.7288 91.0723 30.4196C91.9313 30.1105 92.6672 29.5318 93.1701 28.7699L91.7201 27.7699C91.5039 28.1302 91.1974 28.4277 90.8307 28.6329C90.4641 28.8382 90.0502 28.944 89.6301 28.9399C89.1967 28.9578 88.768 28.8442 88.4003 28.614C88.0327 28.3837 87.7432 28.0477 87.5701 27.6499L93.2601 25.2999L93.0501 24.8599ZM87.2501 26.2799C87.2298 25.9698 87.2718 25.6588 87.3736 25.3651C87.4753 25.0715 87.6348 24.8012 87.8426 24.5701C88.0504 24.339 88.3023 24.1518 88.5835 24.0195C88.8647 23.8873 89.1696 23.8126 89.4801 23.7999C89.8012 23.7794 90.1213 23.8537 90.4005 24.0138C90.6796 24.1738 90.9056 24.4124 91.0501 24.6999L87.2501 26.2799ZM82.6301 30.3999H84.5001V17.8999H82.6301V30.3999ZM79.5701 23.0999H79.5001C79.2162 22.7909 78.8694 22.5462 78.483 22.3823C78.0966 22.2185 77.6796 22.1392 77.2601 22.1499C76.1673 22.2029 75.1367 22.6743 74.3821 23.4665C73.6274 24.2587 73.2064 25.3108 73.2064 26.4049C73.2064 27.499 73.6274 28.5512 74.3821 29.3433C75.1367 30.1355 76.1673 30.6069 77.2601 30.6599C77.6841 30.6684 78.1047 30.5832 78.4919 30.4103C78.8791 30.2375 79.2234 29.9812 79.5001 29.6599H79.5701V30.2699C79.5701 31.8999 78.7001 32.7699 77.3001 32.7699C76.8324 32.7596 76.3783 32.6106 75.9955 32.3418C75.6127 32.0729 75.3185 31.6964 75.1501 31.2599L73.5301 31.9299C73.8296 32.6822 74.3504 33.3258 75.0235 33.7758C75.6966 34.2257 76.4905 34.4608 77.3001 34.4499C79.4901 34.4499 81.3001 33.1599 81.3001 30.0199V22.3999H79.5701V23.0999ZM77.4201 28.9799C76.7649 28.9391 76.1499 28.65 75.7004 28.1716C75.2509 27.6932 75.0006 27.0614 75.0006 26.4049C75.0006 25.7485 75.2509 25.1167 75.7004 24.6383C76.1499 24.1598 76.7649 23.8708 77.4201 23.8299C77.7403 23.8437 78.0545 23.9218 78.344 24.0596C78.6334 24.1973 78.8922 24.3918 79.1049 24.6316C79.3176 24.8714 79.4799 25.1515 79.5822 25.4553C79.6844 25.7591 79.7245 26.0803 79.7001 26.3999C79.7274 26.7206 79.6893 27.0435 79.5883 27.3491C79.4872 27.6546 79.3252 27.9365 79.1121 28.1777C78.8989 28.4189 78.6391 28.6143 78.3483 28.7522C78.0575 28.8901 77.7417 28.9676 77.4201 28.9799ZM101.81 17.8999H97.3301V30.3999H99.2001V25.6599H101.81C102.343 25.6982 102.878 25.6263 103.382 25.4486C103.886 25.271 104.348 24.9915 104.739 24.6274C105.13 24.2634 105.442 23.8227 105.655 23.3328C105.869 22.8428 105.979 22.3142 105.979 21.7799C105.979 21.2456 105.869 20.717 105.655 20.2271C105.442 19.7372 105.13 19.2965 104.739 18.9324C104.348 18.5684 103.886 18.2888 103.382 18.1112C102.878 17.9336 102.343 17.8616 101.81 17.8999ZM101.81 23.8999H99.2001V19.6399H101.85C102.418 19.6399 102.962 19.8654 103.363 20.2667C103.765 20.668 103.99 21.2124 103.99 21.7799C103.99 22.3475 103.765 22.8918 103.363 23.2931C102.962 23.6945 102.418 23.9199 101.85 23.9199L101.81 23.8999ZM113.35 22.1099C112.669 22.0679 111.991 22.2265 111.399 22.5659C110.807 22.9054 110.328 23.4109 110.02 24.0199L111.67 24.7099C111.837 24.4093 112.087 24.1634 112.39 24.0019C112.694 23.8405 113.038 23.7703 113.38 23.7999C113.617 23.7722 113.858 23.792 114.088 23.8582C114.317 23.9245 114.531 24.0358 114.718 24.1856C114.904 24.3355 115.058 24.5209 115.172 24.7311C115.286 24.9413 115.356 25.1721 115.38 25.4099V25.5299C114.779 25.2138 114.109 25.0491 113.43 25.0499C111.65 25.0499 109.83 26.0499 109.83 27.8699C109.848 28.2568 109.943 28.6361 110.11 28.9855C110.277 29.3348 110.513 29.647 110.803 29.9035C111.093 30.1601 111.432 30.3557 111.799 30.4787C112.166 30.6018 112.554 30.6498 112.94 30.6199C113.409 30.6459 113.877 30.5466 114.295 30.3322C114.714 30.1178 115.067 29.7961 115.32 29.3999H115.38V30.3999H117.18V25.5899C117.18 23.3999 115.52 22.1299 113.39 22.1299L113.35 22.1099ZM113.12 28.9599C112.51 28.9599 111.66 28.6499 111.66 27.8999C111.66 26.8999 112.72 26.5599 113.66 26.5599C114.254 26.5453 114.841 26.6903 115.36 26.9799C115.297 27.523 115.04 28.0249 114.635 28.3926C114.231 28.7604 113.707 28.969 113.16 28.9799L113.12 28.9599ZM123.74 22.3999L121.6 27.8199H121.54L119.32 22.3999H117.32L120.65 29.9799L118.75 34.1899H120.75L125.82 22.3999H123.74ZM106.94 30.3999H108.8V17.8999H106.94V30.3999Z" fill="white"/>
<path d="M10.4399 7.93996C10.1212 8.33402 9.96391 8.8344 9.99994 9.33996V31.46C9.96591 31.9704 10.1348 32.4735 10.4699 32.86L10.5399 32.94L22.8999 20.55V20.25L10.5099 7.86996L10.4399 7.93996Z" fill="url(#paint0_linear_1_54)"/>
<path d="M26.9999 24.68L22.8999 20.55V20.25L26.9999 16.12L27.0899 16.18L31.9999 18.96C33.3999 19.75 33.3999 21.05 31.9999 21.85L27.1099 24.63L26.9999 24.68Z" fill="url(#paint1_linear_1_54)"/>
<path d="M27.1199 24.63L22.8999 20.4L10.4399 32.86C10.7225 33.1115 11.0842 33.2562 11.4623 33.269C11.8404 33.2818 12.211 33.1619 12.5099 32.93L27.1199 24.63Z" fill="url(#paint2_linear_1_54)"/>
<path d="M27.1199 16.18L12.5099 7.87996C12.213 7.64487 11.8426 7.52202 11.464 7.53299C11.0854 7.54396 10.7228 7.68807 10.4399 7.93996L22.8999 20.4L27.1199 16.18Z" fill="url(#paint3_linear_1_54)"/>
<path opacity="0.2" d="M26.9999 24.5299L12.5099 32.7799C12.2219 32.9973 11.8708 33.1149 11.5099 33.1149C11.1491 33.1149 10.798 32.9973 10.5099 32.7799L10.4399 32.8499L10.5099 32.9299C10.798 33.1473 11.1491 33.2649 11.5099 33.2649C11.8708 33.2649 12.2219 33.1473 12.5099 32.9299L27.1199 24.6299L26.9999 24.5299Z" fill="black"/>
<path opacity="0.12" d="M10.4399 32.7199C10.1187 32.3233 9.96126 31.8188 9.99988 31.3099V31.4599C9.96585 31.9703 10.1348 32.4735 10.4699 32.8599L10.5399 32.7899L10.4399 32.7199Z" fill="black"/>
<path opacity="0.12" d="M32 21.7L27 24.53L27.09 24.63L32 21.84C32.2898 21.7174 32.5413 21.519 32.7278 21.2656C32.9143 21.0122 33.0291 20.7132 33.06 20.4C32.9975 20.6846 32.869 20.9505 32.6849 21.1763C32.5007 21.4021 32.2662 21.5815 32 21.7Z" fill="black"/>
<path opacity="0.25" d="M12.51 8.01997L32 19.1C32.2662 19.2185 32.5007 19.3979 32.6849 19.6237C32.869 19.8495 32.9975 20.1154 33.06 20.4C33.0291 20.0868 32.9143 19.7878 32.7278 19.5344C32.5413 19.281 32.2898 19.0825 32 18.96L12.51 7.87997C11.12 7.07997 10 7.73997 10 9.33997V9.48997C10 7.88997 11.12 7.22997 12.51 8.01997Z" fill="white"/>
<defs>
<linearGradient id="paint0_linear_1_54" x1="21.7999" y1="9.10997" x2="5.01993" y2="25.89" gradientUnits="userSpaceOnUse">
<stop stop-color="#00A0FF"/>
<stop offset="0.01" stop-color="#00A1FF"/>
<stop offset="0.26" stop-color="#00BEFF"/>
<stop offset="0.51" stop-color="#00D2FF"/>
<stop offset="0.76" stop-color="#00DFFF"/>
<stop offset="1" stop-color="#00E3FF"/>
</linearGradient>
<linearGradient id="paint1_linear_1_54" x1="33.8299" y1="20.4" x2="9.6399" y2="20.4" gradientUnits="userSpaceOnUse">
<stop stop-color="#FFE000"/>
<stop offset="0.41" stop-color="#FFBD00"/>
<stop offset="0.78" stop-color="#FFA500"/>
<stop offset="1" stop-color="#FF9C00"/>
</linearGradient>
<linearGradient id="paint2_linear_1_54" x1="24.8299" y1="22.7" x2="2.06995" y2="45.45" gradientUnits="userSpaceOnUse">
<stop stop-color="#FF3A44"/>
<stop offset="1" stop-color="#C31162"/>
</linearGradient>
<linearGradient id="paint3_linear_1_54" x1="7.29995" y1="0.579963" x2="17.4599" y2="10.74" gradientUnits="userSpaceOnUse">
<stop stop-color="#32A071"/>
<stop offset="0.07" stop-color="#2DA771"/>
<stop offset="0.48" stop-color="#15CF74"/>
<stop offset="0.8" stop-color="#06E775"/>
<stop offset="1" stop-color="#00F076"/>
</linearGradient>
</defs>
</svg>
