<svg width="605" height="384" viewBox="0 0 605 384" fill="none" xmlns="http://www.w3.org/2000/svg">
<g clip-path="url(#clip0_1_609)">
<mask id="mask0_1_609" style="mask-type:luminance" maskUnits="userSpaceOnUse" x="52" y="0" width="501" height="384">
<path d="M552.5 0.556152H52.5V383.554H552.5V0.556152Z" fill="white"/>
</mask>
<g mask="url(#mask0_1_609)">
<g opacity="0.8">
<path d="M290.881 4.63379C195.155 4.63379 116.106 76.5949 104.952 169.364L57.6304 192.015L104.952 214.665C116.106 307.543 195.155 379.395 290.881 379.395C394.296 379.395 478.218 295.513 478.218 191.906C478.218 88.2995 394.405 4.63379 290.881 4.63379Z" fill="#DCFFEB"/>
</g>
<mask id="mask1_1_609" style="mask-type:alpha" maskUnits="userSpaceOnUse" x="57" y="4" width="422" height="376">
<path d="M290.881 4.63379C195.155 4.63379 116.106 76.5949 104.952 169.364L57.6304 192.015L104.952 214.665C116.106 307.543 195.155 379.395 290.881 379.395C394.296 379.395 478.218 295.513 478.218 191.906C478.218 88.2995 394.405 4.63379 290.881 4.63379Z" fill="#DCFFEB"/>
</mask>
<g mask="url(#mask1_1_609)">
<mask id="mask2_1_609" style="mask-type:luminance" maskUnits="userSpaceOnUse" x="52" y="31" width="501" height="384">
<path d="M52.5 31.1956H552.5V414.194H52.5V31.1956Z" fill="white"/>
</mask>
<g mask="url(#mask2_1_609)">
<path d="M284.611 291.543C212.922 291.543 151.262 333.322 123.883 394.218H445.301C417.922 333.322 356.262 291.543 284.611 291.543Z" fill="#3C0077"/>
<path d="M267.299 237.386L260.397 297.178C260.397 297.178 287.09 368.32 327.014 297.178L319.159 237.386H267.299Z" fill="#A376D3"/>
<path d="M316.948 228.245C319.464 234.225 320.075 246.488 321.029 252.162C321.029 252.162 292.734 254.066 286.442 244.926C283.925 241.155 283.315 235.786 285.184 231.406C290.56 221.619 312.562 217.848 316.948 228.245Z" fill="#511B7B"/>
<path d="M337.043 121.534C334.831 99.4833 316.605 81.8879 293.992 81.8879C271.38 81.8879 252.809 99.2165 250.94 121.534H250.635V198.35H250.94C250.94 199.302 250.635 200.559 250.635 201.51C250.635 225.733 270.121 245.27 294.297 245.27C318.511 245.27 337.959 225.771 337.959 201.51C337.959 200.254 337.653 199.302 337.653 198.35H337.959V121.534H337.043Z" fill="#A376D3"/>
<path d="M255.059 149.868C254.754 144.841 250.673 141.071 245.64 141.071C240.607 141.071 236.527 144.841 236.222 149.868V166.854V167.502C236.222 172.871 240.607 177.251 245.946 177.251C251.283 177.251 255.669 172.833 255.669 167.502V166.854L255.059 149.868Z" fill="#A376D3"/>
<path d="M352.449 149.868C352.144 144.841 348.064 141.071 343.03 141.071C337.997 141.071 333.917 144.841 333.612 149.868V166.854V167.502C333.612 172.871 337.997 177.251 343.335 177.251C348.673 177.251 353.059 172.833 353.059 167.502V166.854L352.449 149.868Z" fill="#A376D3"/>
<path d="M293.992 167.158C293.458 167.158 293.039 166.739 293.039 166.207V137.568C293.039 137.034 293.458 136.615 293.992 136.615C294.526 136.615 294.945 137.034 294.945 137.568V166.207C294.945 166.739 294.526 167.158 293.992 167.158Z" fill="#3C0077"/>
<path d="M304.707 146.098C303.639 146.098 302.8 145.261 302.8 144.195V141.985C302.8 140.957 303.639 140.082 304.707 140.082C305.775 140.082 306.614 140.919 306.614 141.985V144.195C306.614 145.261 305.736 146.098 304.707 146.098Z" fill="#3C0077"/>
<path d="M283.01 146.098C281.942 146.098 281.103 145.261 281.103 144.195V141.985C281.103 140.957 281.942 140.082 283.01 140.082C284.077 140.082 284.916 140.919 284.916 141.985V144.195C284.916 145.261 284.077 146.098 283.01 146.098Z" fill="#3C0077"/>
<path d="M297.462 59.1897C288.043 48.488 276.413 43.1561 271.074 47.574C266.689 51.0397 267.604 59.5324 272.332 68.9773C269.511 68.0252 266.689 67.073 263.524 66.4637C249.682 63.6456 237.441 66.7684 236.183 73.3951C235.229 78.4221 240.568 83.7919 249.072 87.2576C248.766 87.2576 248.461 87.5623 248.461 87.5623C228.366 95.4459 213.914 107.404 216.392 113.992C218.909 120.62 237.441 119.362 257.88 111.479C268.862 107.062 277.976 101.729 283.658 96.7021C280.836 101.729 279.882 106.452 282.399 108.661C285.869 112.127 294.03 108.965 300.932 102.035C305.012 97.9591 307.529 93.5416 308.482 89.7714C310.999 90.0759 312.867 90.4187 314.125 90.4187C321.675 91.3704 327.014 98.3021 327.014 98.3021C324.498 83.1447 305.012 65.5116 297.462 59.1897Z" fill="#461070"/>
<path d="M326.71 98.8737H306.919C306.386 98.8737 305.966 98.4547 305.966 97.922C305.966 97.3885 306.386 96.9695 306.919 96.9695H326.71C327.244 96.9695 327.664 97.3885 327.664 97.922C327.664 98.4547 327.206 98.8737 326.71 98.8737Z" fill="#3C0077"/>
<path d="M330.141 103.595H313.477C312.944 103.595 312.524 103.177 312.524 102.644C312.524 102.111 312.944 101.692 313.477 101.692H330.141C330.675 101.692 331.094 102.111 331.094 102.644C331.094 103.177 330.675 103.595 330.141 103.595Z" fill="#3C0077"/>
<path d="M332.658 108.318H319.158C318.625 108.318 318.206 107.899 318.206 107.367C318.206 106.833 318.625 106.414 319.158 106.414H332.658C333.192 106.414 333.611 106.833 333.611 107.367C333.611 107.899 333.192 108.318 332.658 108.318Z" fill="#3C0077"/>
<path d="M334.869 113.041H328.577C328.043 113.041 327.623 112.622 327.623 112.089C327.623 111.556 328.043 111.137 328.577 111.137H334.869C335.403 111.137 335.822 111.556 335.822 112.089C335.822 112.622 335.403 113.041 334.869 113.041Z" fill="#3C0077"/>
<path d="M275.764 190.161H311.571C311.571 190.161 313.439 208.747 293.648 208.099C273.896 207.795 275.764 190.161 275.764 190.161Z" fill="white"/>
<path d="M351.785 179.832H337.275V139.95H351.785C358.716 139.95 364.347 145.585 364.347 152.521V167.369C364.347 174.197 358.716 179.832 351.785 179.832Z" fill="#5F36A8"/>
<path d="M314.749 206.784H298.506C298.073 206.784 297.639 206.351 297.639 205.917C297.639 205.484 298.073 205.05 298.506 205.05H306.627H314.749C327.31 205.05 337.489 185.91 337.489 173.338V164.235C337.489 163.801 337.922 163.368 338.355 163.368C338.789 163.368 339.222 163.801 339.222 164.235V173.338C339.222 186.885 328.285 206.784 314.749 206.784Z" fill="#5F36A8"/>
<path d="M297.426 213.799H284.649C281.942 213.799 279.668 211.631 279.668 208.813V202.961C279.668 200.252 281.834 197.976 284.649 197.976H297.426C300.134 197.976 302.408 200.143 302.408 202.961V208.813C302.3 211.523 300.134 213.799 297.426 213.799Z" fill="#5F36A8"/>
<path d="M343.774 139.95H342.042V179.832H343.774V139.95Z" fill="#9C79CD"/>
</g>
</g>
<path d="M361.323 51.4695C358.356 51.4695 355.951 53.8747 355.951 56.8414V124.497C355.951 127.463 358.356 129.869 361.323 129.869H413.237C413.516 139.086 405.418 145.228 401.24 147.178C413.801 147.178 424.491 137.83 430.858 129.869H541.994C544.961 129.869 547.366 127.463 547.366 124.496V56.8414C547.366 53.8747 544.961 51.4695 541.994 51.4695H361.323Z" fill="#1DCAEE"/>
<path d="M432.135 77.4834H438.065V100.432H432.135V91.1494H422.852V100.432H416.922V77.4834H422.852V86.4116H432.135V77.4834Z" fill="white"/>
<path d="M456.992 92.8262H446.71C446.817 94.0939 447.182 95.0072 447.806 95.566C448.429 96.1246 449.342 96.404 450.545 96.404C451.362 96.404 452.178 96.2749 452.995 96.0171C453.811 95.7377 454.553 95.3618 455.219 94.889L456.701 98.7567C455.885 99.3584 454.896 99.8312 453.736 100.175C452.576 100.519 451.416 100.691 450.255 100.691C448.386 100.691 446.764 100.347 445.388 99.6592C444.013 98.9716 442.96 97.994 442.23 96.7263C441.499 95.4369 441.134 93.922 441.134 92.1814C441.134 90.5269 441.477 89.0551 442.165 87.7659C442.874 86.4551 443.841 85.4344 445.066 84.7039C446.312 83.9733 447.73 83.6079 449.32 83.6079C450.867 83.6079 452.221 83.9518 453.382 84.6395C454.542 85.327 455.434 86.3155 456.057 87.6047C456.68 88.8724 456.992 90.3551 456.992 92.0526V92.8262ZM449.482 87.6047C448.042 87.6047 447.14 88.4426 446.774 90.1186H451.996C451.781 88.4426 450.943 87.6047 449.482 87.6047Z" fill="white"/>
<path d="M459.69 76.71H465.524V100.432H459.69V76.71Z" fill="white"/>
<path d="M469.007 76.71H474.84V100.432H469.007V76.71Z" fill="white"/>
<path d="M486.575 100.691C484.749 100.691 483.159 100.347 481.805 99.6592C480.451 98.9716 479.409 97.9831 478.679 96.6939C477.948 95.4047 477.583 93.8898 477.583 92.1493C477.583 90.4088 477.948 88.8938 478.679 87.6047C479.409 86.3153 480.451 85.327 481.805 84.6393C483.159 83.9518 484.749 83.6079 486.575 83.6079C488.381 83.6079 489.949 83.9626 491.281 84.6715C492.635 85.3592 493.677 86.3477 494.408 87.6368C495.138 88.9045 495.503 90.4088 495.503 92.1493C495.503 93.8898 495.138 95.4047 494.408 96.6939C493.677 97.9618 492.635 98.9501 491.281 99.6592C489.949 100.347 488.381 100.691 486.575 100.691ZM486.575 96.3394C488.681 96.3394 489.734 94.9426 489.734 92.1493C489.734 90.731 489.466 89.6889 488.928 89.0227C488.413 88.3352 487.629 87.9915 486.575 87.9915C485.501 87.9915 484.696 88.3352 484.158 89.0227C483.621 89.6889 483.352 90.731 483.352 92.1493C483.352 93.589 483.621 94.6525 484.158 95.3402C484.696 96.0064 485.501 96.3394 486.575 96.3394Z" fill="white"/>
</g>
</g>
<defs>
<clipPath id="clip0_1_609">
<rect width="605" height="382.99" fill="white" transform="translate(0 0.560059)"/>
</clipPath>
</defs>
</svg>
