<svg width="37" height="39" viewBox="0 0 37 39" fill="none" xmlns="http://www.w3.org/2000/svg">
<path d="M18.5 38.0012C28.7173 38.0012 37 29.7184 37 19.5012C37 9.28389 28.7173 1.00116 18.5 1.00116C8.28273 1.00116 0 9.28389 0 19.5012C0 29.7184 8.28273 38.0012 18.5 38.0012Z" fill="#DFE3FF"/>
<path d="M17.1547 17.1738C18.9148 17.1738 20.3416 15.747 20.3416 13.9869C20.3416 12.2268 18.9148 10.8 17.1547 10.8C15.3946 10.8 13.9678 12.2268 13.9678 13.9869C13.9678 15.747 15.3946 17.1738 17.1547 17.1738Z" fill="white"/>
<path d="M25.183 18.897H24.7104C24.3784 17.8684 23.6927 16.857 22.9213 16.1056V13.7612C22.9213 13.6905 22.8469 13.6328 22.7761 13.6328C22.0923 13.6328 21.4759 13.9603 21.0895 14.4656C20.9829 16.4242 19.3516 17.9849 17.367 17.9849C16.1847 17.9849 15.1278 17.4302 14.4451 16.5685C14.1859 16.8488 13.9513 17.1531 13.748 17.4783C13.7406 17.4876 13.732 17.4957 13.7252 17.5054C13.6116 17.6734 13.4231 17.7734 13.2213 17.7734C12.8864 17.7734 12.614 17.5012 12.614 17.1664C12.614 16.9063 12.7795 16.6751 13.0257 16.5915C13.2274 16.523 13.3353 16.3042 13.2668 16.1023C13.1986 15.9009 12.9798 15.7929 12.7779 15.8614C12.2189 16.0512 11.843 16.5757 11.843 17.1662C11.843 17.9254 12.4598 18.5427 13.2184 18.5442C12.9656 19.2114 12.8053 19.9338 12.8053 20.6885C12.8053 22.5882 13.6636 24.3974 15.2065 25.542V26.964C15.2065 27.3992 15.6028 27.769 16.038 27.769H16.5887C17.024 27.769 17.3924 27.3992 17.3924 26.964V26.5688C18.421 26.8272 19.4496 26.8272 20.3497 26.5688V26.964C20.3497 27.3992 20.7787 27.769 21.2139 27.769H21.7644C22.1995 27.769 22.5355 27.3992 22.5355 26.964V25.542C23.5641 24.7714 24.3381 23.6545 24.7104 22.4973H25.183C25.6181 22.4973 26.0072 22.1101 26.0072 21.675V19.7022C26.0072 19.2668 25.6181 18.897 25.183 18.897ZM21.4121 19.6564C20.9527 19.6564 20.5802 19.2841 20.5802 18.8245C20.5802 18.3651 20.9526 17.9924 21.4121 17.9924C21.8717 17.9924 22.2443 18.365 22.2443 18.8245C22.2442 19.2842 21.8715 19.6564 21.4121 19.6564Z" fill="#40196D"/>
</svg>
