<svg width="38" height="39" viewBox="0 0 38 39" fill="none" xmlns="http://www.w3.org/2000/svg">
<path d="M18.685 37.8011C28.9023 37.8011 37.185 29.5184 37.185 19.3011C37.185 9.08388 28.9023 0.801147 18.685 0.801147C8.46773 0.801147 0.184998 9.08388 0.184998 19.3011C0.184998 29.5184 8.46773 37.8011 18.685 37.8011Z" fill="#DFE3FF"/>
<mask id="mask0_1_166" style="mask-type:luminance" maskUnits="userSpaceOnUse" x="11" y="11" width="16" height="16">
<path d="M26.185 11.6H11.185V26.6H26.185V11.6Z" fill="white"/>
</mask>
<g mask="url(#mask0_1_166)">
<path d="M18.1493 11.6671C18.1493 11.9856 18.1493 12.2537 18.1493 12.5386C18.1493 14.7509 18.1493 16.98 18.1493 19.1923C18.1493 19.5107 18.2497 19.6951 18.5343 19.8459C20.4763 21.0023 22.4015 22.1755 24.3268 23.3487C24.4439 23.4157 24.5611 23.4995 24.6616 23.5666C22.8033 26.1811 19.0701 27.4549 15.6549 25.98C12.3736 24.5554 10.5489 20.9018 11.3859 17.3319C12.2564 13.6951 15.5544 11.7007 18.1493 11.6671Z" fill="#40196D"/>
<path d="M18.8694 11.6C21.7656 11.7844 23.9587 13.0916 25.2979 15.6391C26.6037 18.1028 26.4363 20.6 25.0636 23.0469C23.6238 22.1754 22.2008 21.3207 20.7778 20.4492C20.2086 20.0972 19.6227 19.762 19.0703 19.3933C18.9531 19.3095 18.8359 19.1419 18.8191 19.0078C18.8024 16.5944 18.8024 14.181 18.8191 11.7676C18.8191 11.7508 18.8359 11.7006 18.8694 11.6Z" fill="white"/>
</g>
</svg>
