<svg width="37" height="39" viewBox="0 0 37 39" fill="none" xmlns="http://www.w3.org/2000/svg">
<path d="M18.5 37.8011C28.7173 37.8011 37 29.5184 37 19.3011C37 9.08388 28.7173 0.801147 18.5 0.801147C8.28273 0.801147 0 9.08388 0 19.3011C0 29.5184 8.28273 37.8011 18.5 37.8011Z" fill="#DFE3FF"/>
<path d="M25.4995 13.4003H11.4995C10.6711 13.4003 9.99951 14.0718 9.99951 14.9003V23.9003C9.99951 24.7287 10.6711 25.4003 11.4995 25.4003H25.4995C26.3279 25.4003 26.9995 24.7287 26.9995 23.9003V14.9003C26.9995 14.0718 26.3279 13.4003 25.4995 13.4003Z" fill="#40196D" stroke="#DFE3FF"/>
<path d="M26.5 15.6H10.5V17.6H26.5V15.6Z" fill="white"/>
</svg>
