<svg width="38" height="39" viewBox="0 0 38 39" fill="none" xmlns="http://www.w3.org/2000/svg">
<path d="M18.88 38.0012C29.0973 38.0012 37.38 29.7184 37.38 19.5012C37.38 9.28389 29.0973 1.00116 18.88 1.00116C8.66274 1.00116 0.380005 9.28389 0.380005 19.5012C0.380005 29.7184 8.66274 38.0012 18.88 38.0012Z" fill="#DFE3FF"/>
<path d="M15.2997 16.7512C15.2997 13.6724 17.7956 11.1765 20.8745 11.1765C23.9533 11.1765 26.4492 13.6724 26.4492 16.7512C26.4492 19.8301 23.9533 22.326 20.8745 22.326C17.7956 22.326 15.2997 19.8301 15.2997 16.7512Z" fill="white"/>
<path d="M19.2758 18.9076L14.1657 22.8356L9.16736 20.8079L22.5468 15.6364L17.3754 29.0159L15.3476 24.0175L19.2758 18.9076Z" fill="#40196D"/>
</svg>
