<svg width="38" height="39" viewBox="0 0 38 39" fill="none" xmlns="http://www.w3.org/2000/svg">
<path d="M18.87 37.8011C29.0873 37.8011 37.37 29.5184 37.37 19.3011C37.37 9.08388 29.0873 0.801147 18.87 0.801147C8.65273 0.801147 0.369995 9.08388 0.369995 19.3011C0.369995 29.5184 8.65273 37.8011 18.87 37.8011Z" fill="#DFE3FF"/>
<path d="M13.2699 19.2749C13.2699 16.196 15.7658 13.7001 18.8447 13.7001C21.9235 13.7001 24.4195 16.196 24.4195 19.2749C24.4195 22.3537 21.9235 24.8497 18.8447 24.8497C15.7658 24.8497 13.2699 22.3537 13.2699 19.2749Z" fill="white"/>
<path d="M9.77039 25.6443H14.5703V20.8443H12.5931L12.593 18.8877H18.4323V23.0003H16.4493V27.8002H21.2491V23.0003H19.2868L19.2811 18.8877H25.1204L25.1203 20.8444H23.1282V25.6443H27.928V20.8444H25.9657V17.9705H19.2811V15.6001H21.2567V10.8002H16.4568V15.6001H18.4323V17.9705H11.7476L11.7477 20.8443H9.77039V25.6443Z" fill="#40196D"/>
</svg>
