<svg width="109" height="110" viewBox="0 0 109 110" fill="none" xmlns="http://www.w3.org/2000/svg">
<g filter="url(#filter0_d_1_2033)">
<g clip-path="url(#clip0_1_2033)">
<rect x="25" y="10.46" width="29" height="29" rx="14.5" fill="white" fill-opacity="0.01" shape-rendering="crispEdges"/>
<path d="M39.5 38.46C46.9558 38.46 53 32.4158 53 24.96C53 17.5041 46.9558 11.46 39.5 11.46C32.0442 11.46 26 17.5041 26 24.96C26 32.4158 32.0442 38.46 39.5 38.46Z" fill="#EFF1FF" stroke="#40196D" stroke-width="0.5"/>
<path fill-rule="evenodd" clip-rule="evenodd" d="M39.6562 19.1738C38.0425 19.1738 37.8401 19.1809 37.2061 19.2097C36.5736 19.2388 36.1417 19.3401 35.764 19.4877C35.3729 19.6405 35.0416 19.8449 34.7114 20.1775C34.3809 20.5097 34.1777 20.843 34.0258 21.2365C33.8788 21.6165 33.7785 22.0511 33.7495 22.6874C33.7205 23.3252 33.7139 23.5289 33.7139 25.1524C33.7139 26.7764 33.7205 26.98 33.7495 27.6175C33.7785 28.2538 33.8788 28.6884 34.0258 29.0688C34.1777 29.4619 34.3809 29.7952 34.7114 30.1277C35.0416 30.4599 35.3729 30.6643 35.764 30.8171C36.1417 30.9651 36.5736 31.066 37.2061 31.0951C37.8401 31.1243 38.0425 31.131 39.6562 31.131C41.2699 31.131 41.4723 31.1243 42.1063 31.0951C42.7388 31.066 43.1707 30.9651 43.5484 30.8171C43.9395 30.6643 44.2708 30.4599 44.601 30.1277C44.9315 29.7952 45.1347 29.4619 45.2866 29.0688C45.4336 28.6884 45.5339 28.2538 45.5629 27.6175C45.5919 26.98 45.5985 26.7764 45.5985 25.1524C45.5985 23.5289 45.5919 23.3252 45.5629 22.6874C45.5339 22.0511 45.4336 21.6165 45.2866 21.2365C45.1347 20.843 44.9315 20.5097 44.601 20.1775C44.2708 19.8449 43.9395 19.6405 43.5484 19.4877C43.1707 19.3401 42.7388 19.2388 42.1063 19.2097C41.4723 19.1809 41.2699 19.1738 39.6562 19.1738ZM39.6562 20.2511C41.2428 20.2511 41.4307 20.2571 42.0573 20.2858C42.6367 20.3124 42.9516 20.4099 43.1611 20.4918C43.4381 20.6001 43.6361 20.7298 43.8441 20.939C44.052 21.1483 44.1809 21.3475 44.2886 21.6262C44.37 21.8369 44.4669 22.1538 44.4933 22.7367C44.5219 23.3671 44.5278 23.5562 44.5278 25.1524C44.5278 26.7487 44.5219 26.9378 44.4933 27.5682C44.4669 28.1511 44.37 28.4679 44.2886 28.6787C44.1809 28.9574 44.052 29.1566 43.8441 29.3658C43.6361 29.5751 43.4381 29.7047 43.1611 29.8131C42.9516 29.8949 42.6367 29.9925 42.0573 30.019C41.4307 30.0478 41.2428 30.0537 39.6562 30.0537C38.0696 30.0537 37.8817 30.0478 37.2551 30.019C36.6758 29.9925 36.3608 29.8949 36.1513 29.8131C35.8743 29.7047 35.6763 29.5751 35.4683 29.3658C35.2604 29.1566 35.1315 28.9574 35.0238 28.6787C34.9424 28.4679 34.8455 28.1511 34.8191 27.5682C34.7905 26.9378 34.7846 26.7487 34.7846 25.1524C34.7846 23.5562 34.7905 23.3671 34.8191 22.7367C34.8455 22.1538 34.9424 21.8369 35.0238 21.6262C35.1315 21.3475 35.2604 21.1483 35.4683 20.939C35.6763 20.7298 35.8743 20.6001 36.1513 20.4918C36.3608 20.4099 36.6758 20.3124 37.2551 20.2858C37.8817 20.2571 38.0696 20.2511 39.6562 20.2511Z" fill="#40196D"/>
<path fill-rule="evenodd" clip-rule="evenodd" d="M39.7923 27.0928C38.6672 27.0928 37.755 26.224 37.755 25.1526C37.755 24.0808 38.6672 23.212 39.7923 23.212C40.9174 23.212 41.8297 24.0808 41.8297 25.1526C41.8297 26.224 40.9174 27.0928 39.7923 27.0928ZM39.7923 22.1631C38.0587 22.1631 36.6536 23.5016 36.6536 25.1526C36.6536 26.8036 38.0587 28.1417 39.7923 28.1417C41.526 28.1417 42.9311 26.8036 42.9311 25.1526C42.9311 23.5016 41.526 22.1631 39.7923 22.1631Z" fill="#40196D"/>
<path fill-rule="evenodd" clip-rule="evenodd" d="M43.5288 22.014C43.5288 22.4265 43.1941 22.7613 42.7815 22.7613C42.3689 22.7613 42.0342 22.4265 42.0342 22.014C42.0342 21.601 42.3689 21.2666 42.7815 21.2666C43.1941 21.2666 43.5288 21.601 43.5288 22.014Z" fill="#40196D"/>
</g>
</g>
<defs>
<filter id="filter0_d_1_2033" x="0" y="0.459961" width="109" height="109" filterUnits="userSpaceOnUse" color-interpolation-filters="sRGB">
<feFlood flood-opacity="0" result="BackgroundImageFix"/>
<feColorMatrix in="SourceAlpha" type="matrix" values="0 0 0 0 0 0 0 0 0 0 0 0 0 0 0 0 0 0 127 0" result="hardAlpha"/>
<feOffset dx="15" dy="30"/>
<feGaussianBlur stdDeviation="20"/>
<feComposite in2="hardAlpha" operator="out"/>
<feColorMatrix type="matrix" values="0 0 0 0 0.25098 0 0 0 0 0.0980392 0 0 0 0 0.427451 0 0 0 0.07 0"/>
<feBlend mode="normal" in2="BackgroundImageFix" result="effect1_dropShadow_1_2033"/>
<feBlend mode="normal" in="SourceGraphic" in2="effect1_dropShadow_1_2033" result="shape"/>
</filter>
<clipPath id="clip0_1_2033">
<rect x="25" y="10.46" width="29" height="29" rx="14.5" fill="white"/>
</clipPath>
</defs>
</svg>
