<svg width="38" height="38" viewBox="0 0 38 38" fill="none" xmlns="http://www.w3.org/2000/svg">
<path opacity="0.7" d="M18.87 37.5596C29.0873 37.5596 37.37 29.2768 37.37 19.0596C37.37 8.8423 29.0873 0.55957 18.87 0.55957C8.65273 0.55957 0.369995 8.8423 0.369995 19.0596C0.369995 29.2768 8.65273 37.5596 18.87 37.5596Z" fill="#EFF1FF"/>
<path d="M20.9999 15.9756H16.7441C16.5526 16.3843 16.1088 16.8224 15.5816 17.3429C14.3458 18.5629 12.6515 20.2355 12.6729 23.0426C12.6987 26.3709 15.1833 26.9197 18.8621 26.9197H18.8821C22.5606 26.9197 25.0453 26.3709 25.071 23.0426C25.0924 20.2354 23.3981 18.5627 22.1623 17.3428C21.6351 16.8223 21.1914 16.3842 20.9999 15.9756Z" fill="#40196D"/>
<path d="M16.8281 13.807H20.9686C21.2478 12.8651 21.6022 12.384 21.8333 12.0702C22.1131 11.6904 22.2124 11.5556 21.7793 11.145C20.9885 10.3949 18.3124 9.88803 16.5579 10.8468C15.4613 11.4459 15.6001 11.6391 16.009 12.2083C16.2543 12.5497 16.5967 13.0264 16.8281 13.807Z" fill="#40196D"/>
<path d="M15.9021 14.893C15.9021 14.5363 16.1913 14.2471 16.548 14.2471H21.0692C21.4259 14.2471 21.7151 14.5363 21.7151 14.893C21.7151 15.2497 21.4259 15.5389 21.0692 15.5389H16.548C16.1913 15.5389 15.9021 15.2497 15.9021 14.893Z" fill="#40196D"/>
</svg>
