<svg width="109" height="110" viewBox="0 0 109 110" fill="none" xmlns="http://www.w3.org/2000/svg">
<g filter="url(#filter0_d_1_2057)">
<g clip-path="url(#clip0_1_2057)">
<rect x="25" y="10.46" width="29" height="29" rx="14.5" fill="white" fill-opacity="0.01" shape-rendering="crispEdges"/>
<path d="M39.5 38.46C46.9558 38.46 53 32.4158 53 24.96C53 17.5041 46.9558 11.46 39.5 11.46C32.0442 11.46 26 17.5041 26 24.96C26 32.4158 32.0442 38.46 39.5 38.46Z" fill="#EFF1FF" stroke="#40196D" stroke-width="0.5"/>
<mask id="mask0_1_2057" style="mask-type:luminance" maskUnits="userSpaceOnUse" x="33" y="18" width="13" height="14">
<path d="M46 18.46H33V31.46H46V18.46Z" fill="white"/>
</mask>
<g mask="url(#mask0_1_2057)">
<path fill-rule="evenodd" clip-rule="evenodd" d="M34.5416 22.1905C34.5578 22.0307 34.4966 21.873 34.3775 21.7658L33.1641 20.3033V20.085H36.933L39.8461 26.474L42.4071 20.085H46V20.3033L44.9622 21.2983C44.8728 21.3666 44.8284 21.4787 44.8468 21.5897V28.9012C44.8284 29.0117 44.8728 29.1238 44.9622 29.192L45.9756 30.1871V30.4054H40.8775V30.1871L41.9278 29.1677C42.0307 29.0647 42.0307 29.0344 42.0307 28.8768V22.9672L39.1116 30.3815H38.7173L35.3183 22.9672V27.9365C35.2902 28.145 35.3595 28.3557 35.5063 28.5063L36.8718 30.1627V30.3815H33V30.1627L34.3655 28.5063C34.5118 28.3552 34.5768 28.1434 34.5416 27.9365V22.1905Z" fill="#40196D"/>
</g>
</g>
</g>
<defs>
<filter id="filter0_d_1_2057" x="0" y="0.459961" width="109" height="109" filterUnits="userSpaceOnUse" color-interpolation-filters="sRGB">
<feFlood flood-opacity="0" result="BackgroundImageFix"/>
<feColorMatrix in="SourceAlpha" type="matrix" values="0 0 0 0 0 0 0 0 0 0 0 0 0 0 0 0 0 0 127 0" result="hardAlpha"/>
<feOffset dx="15" dy="30"/>
<feGaussianBlur stdDeviation="20"/>
<feComposite in2="hardAlpha" operator="out"/>
<feColorMatrix type="matrix" values="0 0 0 0 0.25098 0 0 0 0 0.0980392 0 0 0 0 0.427451 0 0 0 0.07 0"/>
<feBlend mode="normal" in2="BackgroundImageFix" result="effect1_dropShadow_1_2057"/>
<feBlend mode="normal" in="SourceGraphic" in2="effect1_dropShadow_1_2057" result="shape"/>
</filter>
<clipPath id="clip0_1_2057">
<rect x="25" y="10.46" width="29" height="29" rx="14.5" fill="white"/>
</clipPath>
</defs>
</svg>
