<svg width="92" height="30" viewBox="0 0 92 30" fill="none" xmlns="http://www.w3.org/2000/svg">
<g clip-path="url(#clip0_1_1037)">
<g clip-path="url(#clip1_1_1037)">
<g clip-path="url(#clip2_1_1037)">
<mask id="mask0_1_1037" style="mask-type:luminance" maskUnits="userSpaceOnUse" x="0" y="0" width="92" height="29">
<path d="M91.8974 0.87207H0V28.8721H91.8974V0.87207Z" fill="white"/>
</mask>
<g mask="url(#mask0_1_1037)">
<path fill-rule="evenodd" clip-rule="evenodd" d="M26.4221 28.0691L34.6344 1.56787H41.9618L33.7488 28.0691H26.4221Z" fill="#1A1F71"/>
<path fill-rule="evenodd" clip-rule="evenodd" d="M23.1464 1.5752L16.5548 12.8088C14.8768 15.7516 13.8959 17.2379 13.4244 19.0967H13.3238C13.4408 16.74 13.1049 13.8461 13.0736 12.2104L12.3452 1.5752H0.0111384L-0.115479 2.28811C3.05294 2.28811 4.93209 3.84584 5.44898 7.03349L7.85323 28.0692H15.4443L30.7941 1.5752H23.1464Z" fill="#1A1F71"/>
<path fill-rule="evenodd" clip-rule="evenodd" d="M80.1287 28.0691L79.9269 24.1278L70.7777 24.1205L68.906 28.0691H60.9507L75.3754 1.61816H85.1398L87.5828 28.0691H80.1287ZM79.2886 12.4363C79.2067 10.4784 79.1389 7.81997 79.2752 6.2112H79.1672C78.7211 7.52694 76.8054 11.477 75.963 13.4204L73.237 19.2293H79.661L79.2886 12.4363Z" fill="#1A1F71"/>
<path fill-rule="evenodd" clip-rule="evenodd" d="M49.6541 28.8216C44.4807 28.8216 41.0478 27.2157 38.5974 25.7841L42.0876 20.5671C44.2877 21.772 46.0157 23.1613 49.9908 23.1613C51.2688 23.1613 52.5 22.8362 53.2001 21.651C54.219 19.9271 52.9648 18.9998 50.1025 17.4137L48.6896 16.5142C44.4456 13.6764 42.6104 10.9815 44.608 6.27697C45.8861 3.26718 49.2571 0.986328 54.8186 0.986328C58.6536 0.986328 62.2496 2.60968 64.3454 4.19658L60.3324 8.80201C58.2872 7.18377 56.5935 6.36517 54.6532 6.36517C53.107 6.36517 51.9317 6.94905 51.5265 7.7363C50.7631 9.21605 51.7731 10.2249 54.003 11.5792L55.6841 12.626C60.8359 15.8064 62.0634 19.1405 60.7719 22.2575C58.5508 27.6239 54.2026 28.8216 49.6541 28.8216Z" fill="#1A1F71"/>
<path fill-rule="evenodd" clip-rule="evenodd" d="M89.7628 5.15953H89.4462V3.26866H90.1791C90.6454 3.26866 90.8837 3.4283 90.8837 3.81245C90.8837 4.15505 90.6692 4.29647 90.3795 4.32854L90.9202 5.15953H90.5612L90.0622 4.35114H89.7628V5.15953ZM90.1181 4.0858C90.3564 4.0858 90.5657 4.06321 90.5657 3.78913C90.5657 3.56097 90.337 3.53327 90.1464 3.53327H89.7628V4.0858H90.1181ZM90.1084 5.89066C89.1059 5.89066 88.3916 5.15516 88.3916 4.18203C88.3916 3.15495 89.1848 2.47412 90.1084 2.47412C91.023 2.47412 91.8162 3.15495 91.8162 4.18203C91.8162 5.20983 91.023 5.89066 90.1084 5.89066ZM90.1084 2.7708C89.3524 2.7708 88.7647 3.35104 88.7647 4.18203C88.7647 4.95835 89.2787 5.59325 90.1084 5.59325C90.8554 5.59325 91.4431 5.01812 91.4431 4.18203C91.4431 3.35104 90.8554 2.7708 90.1084 2.7708Z" fill="#1A1F71"/>
</g>
</g>
</g>
</g>
<defs>
<clipPath id="clip0_1_1037">
<rect width="92" height="29" fill="white" transform="translate(0 0.269531)"/>
</clipPath>
<clipPath id="clip1_1_1037">
<rect width="92" height="29" fill="white" transform="translate(0 0.269531)"/>
</clipPath>
<clipPath id="clip2_1_1037">
<rect width="92" height="29" fill="white" transform="translate(0 0.269531)"/>
</clipPath>
</defs>
</svg>
