<svg width="110" height="33" viewBox="0 0 110 33" fill="none" xmlns="http://www.w3.org/2000/svg">
<g clip-path="url(#clip0_1_1017)">
<g clip-path="url(#clip1_1_1017)">
<g clip-path="url(#clip2_1_1017)">
<path d="M6.83464 32.7472L0.207031 0.792969H4.90159L9.82628 26.4844L21.0564 0.792969H26.2112L11.3911 32.7472H6.83464Z" fill="#B7B7B6"/>
<path d="M32.6759 8.49583L25.9102 23.4215H35.1382L32.6759 8.49583ZM24.0232 27.5815L21.6759 32.7472H17.0273L31.6863 0.792969H35.5985L41.1675 32.7472H36.7031L35.8286 27.5815H24.0232Z" fill="#B7B7B6"/>
<path d="M57.369 28.4958V32.7472H43.9297V0.792969H48.4862V28.4958H57.369Z" fill="#B7B7B6"/>
<path d="M75.1368 8.49583L68.3711 23.4215H77.5992L75.1368 8.49583ZM66.4841 27.5815L64.1368 32.7472H59.4883L74.1473 0.792969H78.0594L83.6284 32.7472H79.164L78.2895 27.5815H66.4841Z" fill="#B7B7B6"/>
<path d="M96.0329 15.7644C100.727 15.7644 102.476 13.3872 102.476 10.3701C102.476 7.35297 100.727 5.02154 96.0329 5.02154H90.9471V15.7415L96.0329 15.7644ZM93.7316 20.0158H90.9471V32.7472H86.3906V0.792969H96.7693C103.489 0.792969 107.056 5.18154 107.056 10.3701C107.056 14.9872 104.248 18.9872 98.9094 19.8101L109.978 32.7244H104.455L93.7316 20.0158Z" fill="#B7B7B6"/>
</g>
</g>
</g>
<defs>
<clipPath id="clip0_1_1017">
<rect width="110" height="32" fill="white" transform="translate(0 0.769531)"/>
</clipPath>
<clipPath id="clip1_1_1017">
<rect width="110" height="32" fill="white" transform="translate(0 0.769531)"/>
</clipPath>
<clipPath id="clip2_1_1017">
<rect width="110" height="32" fill="white" transform="translate(0 0.769531)"/>
</clipPath>
</defs>
</svg>
