<svg width="605" height="495" viewBox="0 0 605 495" fill="none" xmlns="http://www.w3.org/2000/svg">
<g clip-path="url(#clip0_1_311)">
<mask id="mask0_1_311" style="mask-type:luminance" maskUnits="userSpaceOnUse" x="52" y="0" width="501" height="495">
<path d="M552.5 0.495361H52.5V494.565H552.5V0.495361Z" fill="white"/>
</mask>
<g mask="url(#mask0_1_311)">
<path d="M534.373 299.992C534.373 299.992 518.325 305.097 506.95 318.623C495.574 332.15 477.728 334.159 477.728 334.159L461.653 307.509C461.653 307.509 477.695 302.58 489.335 289.997C500.973 277.415 518.325 273.325 518.325 273.325L534.4 299.975L534.373 299.992Z" fill="#0D823E"/>
<path d="M528.522 298.732C528.522 298.732 512.297 302.265 503.929 313.567C495.561 324.87 479.335 328.402 479.335 328.402L467.478 308.743C467.478 308.743 482.856 305.685 492.071 293.909C501.288 282.132 516.666 279.075 516.666 279.075L528.522 298.732Z" fill="#47D289"/>
<path d="M507.272 298.838C503.104 291.928 495.431 289.003 490.112 292.212C484.794 295.42 483.818 303.598 487.97 310.48C492.136 317.39 499.81 320.315 505.128 317.107C510.492 313.91 511.439 305.747 507.272 298.838Z" fill="#0D823E"/>
<path d="M502.674 299.213L492.551 307.441L492.806 307.756L502.93 299.527L502.674 299.213Z" fill="#47D289"/>
<path d="M503.805 300.595L493.683 308.824L493.939 309.138L504.061 300.91L503.805 300.595Z" fill="#47D289"/>
<path d="M498.504 309.704L492.903 302.812L493.876 302.022L498.913 303.721C500.078 304.103 501.072 304.507 501.981 304.954L501.984 304.929C501.157 304.058 500.455 303.252 499.583 302.179L497.236 299.291L498.078 298.605L503.68 305.497L502.78 306.229L497.745 304.504C496.631 304.128 495.534 303.713 494.587 303.249L494.569 303.286C495.336 304.112 496.024 304.929 496.955 306.073L499.348 309.019L498.504 309.704Z" fill="#47D289"/>
<path d="M291.844 81.7646C397.274 81.7646 482.742 167.232 482.742 272.662C482.742 378.092 397.274 463.56 291.844 463.56C186.414 463.56 100.946 378.092 100.946 272.662C100.946 167.232 186.414 81.7646 291.844 81.7646Z" fill="#FFF5DB"/>
<path d="M173.668 31.5002H414.607C420.514 31.5002 425.302 36.2883 425.302 42.1949V225.072C425.302 230.978 420.514 235.767 414.607 235.767H173.668C167.762 235.767 162.974 230.978 162.974 225.072V42.1949C162.974 36.2883 167.762 31.5002 173.668 31.5002Z" fill="white"/>
<path d="M207.206 169.239H381.429C386.154 169.239 389.984 173.07 389.984 177.795V203.356C389.984 208.081 386.154 211.912 381.429 211.912H207.206C202.48 211.912 198.65 208.081 198.65 203.356V177.795C198.65 173.07 202.48 169.239 207.206 169.239Z" fill="#F8F8F8"/>
<path d="M285.599 194.158H287.796V195.123H282.241V194.158H284.437V186.588L282.395 187.89V186.785L284.941 185.161H285.599V194.158Z" fill="black"/>
<path d="M293.036 195.234C291.898 195.234 291.031 194.805 290.434 193.948C289.847 193.08 289.553 191.811 289.553 190.142C289.553 188.472 289.847 187.208 290.434 186.35C291.031 185.483 291.898 185.049 293.036 185.049C294.174 185.049 295.037 185.483 295.625 186.35C296.222 187.208 296.52 188.468 296.52 190.128C296.52 191.797 296.222 193.066 295.625 193.934C295.037 194.801 294.174 195.234 293.036 195.234ZM293.036 194.27C293.83 194.27 294.413 193.934 294.786 193.263C295.167 192.591 295.359 191.546 295.359 190.128C295.359 188.719 295.173 187.684 294.8 187.022C294.426 186.36 293.838 186.029 293.036 186.029C292.244 186.029 291.657 186.36 291.274 187.022C290.9 187.684 290.714 188.719 290.714 190.128C290.714 191.536 290.9 192.581 291.274 193.263C291.657 193.934 292.244 194.27 293.036 194.27Z" fill="black"/>
<path d="M300.405 191.135C299.648 191.135 299.061 190.879 298.641 190.367C298.222 189.853 298.011 189.092 298.011 188.085C298.011 187.087 298.222 186.332 298.641 185.819C299.061 185.305 299.648 185.049 300.405 185.049C301.16 185.049 301.747 185.305 302.167 185.819C302.596 186.332 302.811 187.087 302.811 188.085C302.811 189.092 302.596 189.853 302.167 190.367C301.747 190.879 301.16 191.135 300.405 191.135ZM301.467 195.123H300.362L306.126 185.161H307.232L301.467 195.123ZM300.405 190.323C300.871 190.323 301.211 190.147 301.426 189.792C301.649 189.428 301.762 188.859 301.762 188.085C301.762 187.32 301.649 186.761 301.426 186.406C301.211 186.042 300.871 185.861 300.405 185.861C299.947 185.861 299.607 186.042 299.383 186.406C299.159 186.761 299.047 187.32 299.047 188.085C299.047 188.859 299.159 189.428 299.383 189.792C299.607 190.147 299.947 190.323 300.405 190.323ZM307.189 195.221C306.434 195.221 305.847 194.964 305.427 194.452C305.007 193.938 304.797 193.178 304.797 192.171C304.797 191.163 305.007 190.408 305.427 189.904C305.847 189.391 306.434 189.134 307.189 189.134C307.945 189.134 308.532 189.391 308.953 189.904C309.381 190.408 309.597 191.163 309.597 192.171C309.597 193.178 309.381 193.938 308.953 194.452C308.532 194.964 307.945 195.221 307.189 195.221ZM307.189 194.409C307.665 194.409 308.01 194.232 308.224 193.877C308.449 193.523 308.56 192.954 308.56 192.171C308.56 191.406 308.449 190.847 308.224 190.492C308.001 190.128 307.655 189.946 307.189 189.946C306.723 189.946 306.378 190.128 306.154 190.492C305.94 190.847 305.832 191.406 305.832 192.171C305.832 192.945 305.94 193.513 306.154 193.877C306.378 194.232 306.723 194.409 307.189 194.409Z" fill="black"/>
<path d="M368.639 176.234C376.366 176.234 382.63 182.498 382.63 190.225C382.63 197.952 376.366 204.216 368.639 204.216C360.912 204.216 354.648 197.952 354.648 190.225C354.648 182.498 360.912 176.234 368.639 176.234Z" fill="#40186C"/>
<path d="M363.259 190.059C363.259 189.557 363.666 189.149 364.169 189.149H373.275C373.779 189.149 374.186 189.557 374.186 190.059C374.186 190.562 373.779 190.971 373.275 190.971H364.169C363.666 190.971 363.259 190.562 363.259 190.059Z" fill="white"/>
<path d="M368.805 184.844C369.308 184.844 369.715 185.252 369.715 185.755V194.861C369.715 195.364 369.308 195.773 368.805 195.773C368.303 195.773 367.894 195.364 367.894 194.861V185.755C367.894 185.252 368.303 184.844 368.805 184.844Z" fill="white"/>
<path d="M219.637 203.518C226.978 203.518 232.928 197.567 232.928 190.227C232.928 182.886 226.978 176.935 219.637 176.935C212.296 176.935 206.346 182.886 206.346 190.227C206.346 197.567 212.296 203.518 219.637 203.518ZM219.637 204.217C211.91 204.217 205.646 197.953 205.646 190.227C205.646 182.5 211.91 176.236 219.637 176.236C227.364 176.236 233.628 182.5 233.628 190.227C233.628 197.953 227.364 204.217 219.637 204.217Z" fill="#40186C"/>
<path d="M214.256 190.059C214.256 189.557 214.663 189.149 215.166 189.149H224.273C224.776 189.149 225.183 189.557 225.183 190.059C225.183 190.562 224.776 190.971 224.273 190.971H215.166C214.663 190.971 214.256 190.562 214.256 190.059Z" fill="#40186C"/>
<path d="M244.363 145.679H247.92C248.773 145.679 249.434 145.886 249.902 146.299C250.371 146.704 250.605 147.257 250.605 147.956C250.605 148.649 250.368 149.201 249.892 149.614C249.416 150.027 248.759 150.233 247.92 150.233H246.335V153.151H244.363V145.679ZM247.657 148.763C248.399 148.763 248.769 148.502 248.769 147.978C248.769 147.711 248.678 147.512 248.496 147.379C248.322 147.24 248.042 147.169 247.657 147.169H246.335V148.763H247.657Z" fill="black"/>
<path d="M256.136 150.674H252.789C252.824 151.086 252.943 151.384 253.146 151.566C253.348 151.747 253.646 151.838 254.038 151.838C254.303 151.838 254.57 151.797 254.835 151.713C255.101 151.622 255.343 151.499 255.559 151.345L256.042 152.605C255.776 152.801 255.454 152.955 255.077 153.066C254.699 153.178 254.322 153.234 253.943 153.234C253.334 153.234 252.806 153.123 252.359 152.898C251.911 152.675 251.569 152.356 251.33 151.943C251.093 151.524 250.974 151.031 250.974 150.464C250.974 149.925 251.085 149.446 251.31 149.027C251.541 148.6 251.855 148.267 252.254 148.03C252.66 147.791 253.122 147.673 253.639 147.673C254.143 147.673 254.583 147.785 254.961 148.009C255.339 148.232 255.629 148.554 255.833 148.974C256.035 149.387 256.136 149.869 256.136 150.422V150.674ZM253.692 148.974C253.223 148.974 252.929 149.247 252.811 149.792H254.51C254.44 149.247 254.167 148.974 253.692 148.974Z" fill="black"/>
<path d="M260.383 147.694C260.642 147.694 260.842 147.732 260.981 147.809V149.541C260.681 149.401 260.391 149.33 260.111 149.33C259.313 149.33 258.915 149.712 258.915 150.475V153.15H257.016V149.352C257.016 148.779 256.986 148.267 256.931 147.819H258.715L258.83 148.711C258.957 148.383 259.159 148.131 259.439 147.956C259.719 147.781 260.034 147.694 260.383 147.694Z" fill="black"/>
<path d="M264.065 153.234C263.163 153.234 262.457 152.989 261.946 152.499C261.436 152.01 261.18 151.342 261.18 150.495C261.18 149.936 261.303 149.443 261.547 149.016C261.799 148.589 262.149 148.261 262.597 148.03C263.044 147.791 263.562 147.673 264.15 147.673C264.541 147.673 264.926 147.732 265.304 147.851C265.681 147.964 265.983 148.117 266.206 148.313L265.724 149.624C265.535 149.471 265.315 149.348 265.062 149.258C264.811 149.167 264.569 149.121 264.338 149.121C263.947 149.121 263.646 149.233 263.436 149.456C263.226 149.68 263.121 150.013 263.121 150.453C263.121 150.901 263.226 151.24 263.436 151.471C263.646 151.695 263.95 151.807 264.349 151.807C264.58 151.807 264.817 151.761 265.062 151.67C265.315 151.579 265.535 151.457 265.724 151.304L266.206 152.594C265.976 152.796 265.667 152.955 265.282 153.066C264.905 153.178 264.5 153.234 264.065 153.234Z" fill="black"/>
<path d="M271.743 150.674H268.396C268.431 151.086 268.55 151.384 268.753 151.566C268.955 151.747 269.252 151.838 269.645 151.838C269.91 151.838 270.176 151.797 270.441 151.713C270.708 151.622 270.95 151.499 271.166 151.345L271.649 152.605C271.383 152.801 271.061 152.955 270.683 153.066C270.306 153.178 269.928 153.234 269.55 153.234C268.941 153.234 268.413 153.123 267.966 152.898C267.518 152.675 267.175 152.356 266.937 151.943C266.699 151.524 266.581 151.031 266.581 150.464C266.581 149.925 266.692 149.446 266.917 149.027C267.147 148.6 267.462 148.267 267.861 148.03C268.266 147.791 268.728 147.673 269.246 147.673C269.75 147.673 270.19 147.785 270.568 148.009C270.945 148.232 271.236 148.554 271.438 148.974C271.641 149.387 271.743 149.869 271.743 150.422V150.674ZM269.298 148.974C268.83 148.974 268.536 149.247 268.417 149.792H270.116C270.047 149.247 269.774 148.974 269.298 148.974Z" fill="black"/>
<path d="M276.189 147.673C276.819 147.673 277.287 147.865 277.595 148.25C277.911 148.628 278.068 149.201 278.068 149.971V153.151H276.168V150.055C276.168 149.726 276.113 149.492 276.001 149.352C275.888 149.205 275.714 149.132 275.475 149.132C275.189 149.132 274.958 149.229 274.784 149.426C274.608 149.614 274.521 149.866 274.521 150.181V153.151H272.622V149.352C272.622 148.779 272.593 148.267 272.538 147.819H274.321L274.416 148.606C274.619 148.306 274.87 148.075 275.172 147.915C275.472 147.753 275.811 147.673 276.189 147.673Z" fill="black"/>
<path d="M282.318 151.702C282.443 151.702 282.611 151.681 282.821 151.64V153.077C282.563 153.182 282.233 153.234 281.834 153.234C281.115 153.234 280.565 153.032 280.188 152.625C279.816 152.22 279.631 151.657 279.631 150.936V149.215H278.635V147.819H279.631V146.613L281.531 146.004V147.819H282.811V149.215H281.531V150.936C281.531 151.188 281.605 151.38 281.751 151.513C281.905 151.639 282.093 151.702 282.318 151.702Z" fill="black"/>
<path d="M289.149 147.819V153.15H287.281V152.426C287.127 152.678 286.904 152.878 286.61 153.024C286.315 153.164 285.994 153.234 285.644 153.234C285.189 153.234 284.784 153.123 284.427 152.898C284.07 152.675 283.79 152.356 283.587 151.943C283.392 151.524 283.293 151.041 283.293 150.495C283.293 149.943 283.395 149.453 283.598 149.027C283.801 148.6 284.081 148.267 284.437 148.03C284.794 147.791 285.197 147.673 285.644 147.673C285.994 147.673 286.312 147.75 286.599 147.904C286.893 148.05 287.12 148.25 287.281 148.501V147.819H289.149ZM286.232 151.818C286.568 151.818 286.827 151.702 287.009 151.471C287.19 151.24 287.281 150.908 287.281 150.475C287.281 150.034 287.19 149.698 287.009 149.467C286.827 149.229 286.568 149.11 286.232 149.11C285.903 149.11 285.644 149.233 285.456 149.478C285.267 149.715 285.172 150.054 285.172 150.495C285.172 150.922 285.263 151.251 285.445 151.482C285.627 151.705 285.889 151.818 286.232 151.818Z" fill="black"/>
<path d="M295.955 147.819V152.815C295.955 153.688 295.693 154.354 295.167 154.808C294.642 155.27 293.873 155.501 292.859 155.501C291.991 155.501 291.239 155.347 290.603 155.039L290.886 153.654C291.201 153.794 291.523 153.902 291.852 153.979C292.187 154.063 292.502 154.105 292.797 154.105C293.23 154.105 293.548 154.01 293.751 153.822C293.961 153.64 294.066 153.352 294.066 152.961V152.174C293.891 152.405 293.653 152.601 293.353 152.762C293.058 152.923 292.743 153.003 292.408 153.003C291.953 153.003 291.544 152.895 291.18 152.678C290.823 152.454 290.543 152.143 290.341 151.744C290.138 151.339 290.036 150.869 290.036 150.338C290.036 149.814 290.138 149.352 290.341 148.953C290.543 148.547 290.823 148.232 291.18 148.009C291.544 147.785 291.953 147.673 292.408 147.673C292.764 147.673 293.089 147.746 293.383 147.893C293.678 148.039 293.904 148.24 294.066 148.491V147.819H295.955ZM292.995 151.587C293.331 151.587 293.593 151.478 293.783 151.262C293.971 151.037 294.066 150.73 294.066 150.338C294.066 149.96 293.971 149.663 293.783 149.446C293.593 149.222 293.331 149.11 292.995 149.11C292.66 149.11 292.393 149.219 292.198 149.435C292.009 149.652 291.914 149.953 291.914 150.338C291.914 150.723 292.012 151.028 292.208 151.251C292.404 151.474 292.667 151.587 292.995 151.587Z" fill="black"/>
<path d="M301.993 150.674H298.645C298.681 151.086 298.799 151.384 299.003 151.566C299.205 151.747 299.502 151.838 299.894 151.838C300.16 151.838 300.426 151.797 300.691 151.713C300.958 151.622 301.199 151.499 301.415 151.345L301.899 152.605C301.632 152.801 301.31 152.955 300.933 153.066C300.555 153.178 300.178 153.234 299.799 153.234C299.191 153.234 298.664 153.123 298.215 152.898C297.767 152.675 297.425 152.356 297.187 151.943C296.949 151.524 296.831 151.031 296.831 150.464C296.831 149.925 296.942 149.446 297.166 149.027C297.397 148.6 297.712 148.267 298.111 148.03C298.516 147.791 298.978 147.673 299.496 147.673C299.999 147.673 300.44 147.785 300.817 148.009C301.195 148.232 301.486 148.554 301.689 148.974C301.891 149.387 301.993 149.869 301.993 150.422V150.674ZM299.548 148.974C299.08 148.974 298.785 149.247 298.667 149.792H300.366C300.296 149.247 300.024 148.974 299.548 148.974Z" fill="black"/>
<path d="M309.063 151.702C309.189 151.702 309.357 151.681 309.566 151.64V153.077C309.308 153.182 308.978 153.234 308.58 153.234C307.86 153.234 307.31 153.032 306.933 152.625C306.561 152.22 306.376 151.657 306.376 150.936V149.215H305.38V147.819H306.376V146.613L308.276 146.004V147.819H309.556V149.215H308.276V150.936C308.276 151.188 308.35 151.38 308.496 151.513C308.65 151.639 308.839 151.702 309.063 151.702Z" fill="black"/>
<path d="M312.966 153.234C312.372 153.234 311.854 153.123 311.414 152.898C310.973 152.675 310.634 152.353 310.396 151.933C310.158 151.513 310.039 151.02 310.039 150.453C310.039 149.887 310.158 149.393 310.396 148.974C310.634 148.554 310.973 148.232 311.414 148.009C311.854 147.785 312.372 147.673 312.966 147.673C313.554 147.673 314.065 147.788 314.498 148.019C314.94 148.243 315.278 148.565 315.516 148.985C315.754 149.397 315.873 149.887 315.873 150.453C315.873 151.02 315.754 151.513 315.516 151.933C315.278 152.346 314.94 152.667 314.498 152.898C314.065 153.123 313.554 153.234 312.966 153.234ZM312.966 151.818C313.652 151.818 313.995 151.362 313.995 150.453C313.995 149.991 313.908 149.652 313.732 149.435C313.564 149.212 313.309 149.099 312.966 149.099C312.617 149.099 312.355 149.212 312.179 149.435C312.005 149.652 311.917 149.991 311.917 150.453C311.917 150.922 312.005 151.268 312.179 151.492C312.355 151.709 312.617 151.818 312.966 151.818Z" fill="black"/>
<path d="M322.622 153.245C322.062 153.245 321.51 153.171 320.964 153.024C320.418 152.878 319.974 152.678 319.631 152.427L320.25 151.031C320.614 151.262 320.999 151.439 321.405 151.566C321.817 151.685 322.23 151.744 322.643 151.744C323.063 151.744 323.385 151.689 323.608 151.577C323.832 151.458 323.944 151.293 323.944 151.083C323.944 150.894 323.843 150.74 323.64 150.622C323.437 150.495 323.056 150.373 322.496 150.255C321.789 150.115 321.241 149.943 320.849 149.74C320.457 149.531 320.181 149.286 320.019 149.005C319.866 148.725 319.789 148.386 319.789 147.987C319.789 147.533 319.919 147.124 320.178 146.759C320.436 146.389 320.8 146.103 321.269 145.9C321.737 145.69 322.273 145.585 322.874 145.585C323.413 145.585 323.934 145.661 324.437 145.815C324.949 145.963 325.346 146.158 325.634 146.403L325.026 147.799C324.696 147.568 324.35 147.393 323.986 147.274C323.622 147.148 323.259 147.086 322.895 147.086C322.538 147.086 322.251 147.155 322.034 147.295C321.817 147.428 321.709 147.61 321.709 147.841C321.709 147.967 321.748 148.072 321.825 148.155C321.902 148.24 322.045 148.323 322.255 148.408C322.465 148.485 322.78 148.568 323.199 148.659C323.878 148.806 324.41 148.985 324.795 149.195C325.186 149.397 325.462 149.639 325.623 149.919C325.784 150.192 325.864 150.52 325.864 150.905C325.864 151.632 325.582 152.206 325.015 152.625C324.448 153.038 323.65 153.245 322.622 153.245Z" fill="black"/>
<path d="M332.475 147.819V153.15H330.606V152.426C330.452 152.678 330.229 152.878 329.935 153.024C329.641 153.164 329.32 153.234 328.97 153.234C328.514 153.234 328.109 153.123 327.752 152.898C327.396 152.675 327.116 152.356 326.912 151.943C326.717 151.524 326.619 151.041 326.619 150.495C326.619 149.943 326.721 149.453 326.923 149.027C327.126 148.6 327.406 148.267 327.762 148.03C328.12 147.791 328.522 147.673 328.97 147.673C329.32 147.673 329.637 147.75 329.924 147.904C330.218 148.05 330.446 148.25 330.606 148.501V147.819H332.475ZM329.557 151.818C329.893 151.818 330.152 151.702 330.334 151.471C330.515 151.24 330.606 150.908 330.606 150.475C330.606 150.034 330.515 149.698 330.334 149.467C330.152 149.229 329.893 149.11 329.557 149.11C329.229 149.11 328.97 149.233 328.781 149.478C328.591 149.715 328.497 150.054 328.497 150.495C328.497 150.922 328.588 151.251 328.77 151.482C328.952 151.705 329.214 151.818 329.557 151.818Z" fill="black"/>
<path d="M339.111 147.83L336.74 153.15H335.177L332.837 147.83H334.809L336.006 150.894L337.244 147.83H339.111Z" fill="black"/>
<path d="M344.272 150.674H340.925C340.96 151.086 341.079 151.384 341.282 151.566C341.484 151.747 341.782 151.838 342.174 151.838C342.44 151.838 342.706 151.797 342.971 151.713C343.237 151.622 343.479 151.499 343.695 151.345L344.179 152.605C343.912 152.801 343.59 152.955 343.213 153.066C342.835 153.178 342.458 153.234 342.079 153.234C341.471 153.234 340.943 153.123 340.495 152.898C340.047 152.675 339.705 152.356 339.466 151.943C339.229 151.524 339.11 151.031 339.11 150.464C339.11 149.925 339.222 149.446 339.446 149.027C339.677 148.6 339.992 148.267 340.39 148.03C340.796 147.791 341.258 147.673 341.775 147.673C342.279 147.673 342.72 147.785 343.097 148.009C343.475 148.232 343.766 148.554 343.969 148.974C344.171 149.387 344.272 149.869 344.272 150.422V150.674ZM341.828 148.974C341.359 148.974 341.065 149.247 340.947 149.792H342.646C342.576 149.247 342.304 148.974 341.828 148.974Z" fill="black"/>
<path d="M261.746 58.1899C261.112 58.1899 260.485 58.1066 259.867 57.9401C259.248 57.7736 258.745 57.5476 258.357 57.2623L259.058 55.6805C259.471 55.9421 259.906 56.1444 260.366 56.287C260.835 56.4218 261.302 56.4893 261.769 56.4893C262.245 56.4893 262.61 56.4258 262.863 56.2991C263.118 56.1642 263.244 55.9779 263.244 55.74C263.244 55.5258 263.13 55.3514 262.9 55.2168C262.67 55.074 262.238 54.9354 261.603 54.8005C260.803 54.6419 260.18 54.4478 259.736 54.2178C259.292 53.9799 258.979 53.7025 258.796 53.3853C258.622 53.0683 258.535 52.6837 258.535 52.2319C258.535 51.7165 258.682 51.2526 258.975 50.8406C259.269 50.4204 259.681 50.0953 260.212 49.8653C260.743 49.6274 261.349 49.5085 262.031 49.5085C262.642 49.5085 263.232 49.5957 263.803 49.7702C264.382 49.9367 264.834 50.1587 265.159 50.4362L264.47 52.0179C264.096 51.7561 263.704 51.558 263.292 51.4231C262.879 51.2805 262.468 51.2091 262.055 51.2091C261.651 51.2091 261.325 51.2884 261.08 51.447C260.835 51.5975 260.711 51.8038 260.711 52.0654C260.711 52.2081 260.754 52.327 260.842 52.4221C260.93 52.5172 261.092 52.6123 261.33 52.7077C261.567 52.7949 261.924 52.8897 262.4 52.993C263.169 53.1595 263.771 53.3616 264.208 53.5995C264.651 53.8294 264.965 54.1029 265.147 54.4201C265.33 54.7291 265.42 55.1019 265.42 55.5379C265.42 56.3625 265.1 57.0125 264.457 57.4883C263.815 57.9559 262.912 58.1899 261.746 58.1899Z" fill="black"/>
<path d="M270.532 51.875C271.048 51.875 271.508 52.0099 271.912 52.2794C272.316 52.5492 272.634 52.9256 272.864 53.4093C273.094 53.8928 273.209 54.4479 273.209 55.0741C273.209 55.6924 273.094 56.2396 272.864 56.7154C272.641 57.1831 272.328 57.5437 271.924 57.7974C271.52 58.0511 271.056 58.1781 270.532 58.1781C270.137 58.1781 269.775 58.1028 269.45 57.9521C269.125 57.7935 268.876 57.5756 268.701 57.2982V60.6517H266.549V53.7779C266.549 53.1277 266.518 52.5492 266.454 52.0417H268.476L268.595 52.9812C268.746 52.6482 268.995 52.3827 269.343 52.1843C269.693 51.9783 270.088 51.875 270.532 51.875ZM269.879 56.5726C270.267 56.5726 270.56 56.4457 270.759 56.1919C270.957 55.9382 271.057 55.5657 271.057 55.0741C271.057 54.5746 270.953 54.1902 270.747 53.9207C270.549 53.6433 270.26 53.5044 269.879 53.5044C269.49 53.5044 269.193 53.6351 268.987 53.8967C268.781 54.1583 268.678 54.543 268.678 55.0504C268.678 55.542 268.781 55.9185 268.987 56.1801C269.193 56.4417 269.49 56.5726 269.879 56.5726Z" fill="black"/>
<path d="M279.791 55.2762H275.997C276.037 55.7441 276.172 56.0808 276.402 56.2868C276.632 56.4931 276.969 56.5963 277.413 56.5963C277.714 56.5963 278.016 56.5487 278.317 56.4536C278.618 56.3505 278.892 56.2115 279.137 56.0371L279.684 57.4642C279.383 57.6863 279.019 57.8609 278.59 57.9877C278.162 58.1146 277.734 58.1781 277.305 58.1781C276.616 58.1781 276.018 58.0509 275.51 57.7972C275.003 57.5435 274.615 57.1828 274.345 56.7152C274.076 56.2394 273.941 55.6806 273.941 55.0383C273.941 54.4281 274.067 53.8849 274.321 53.4093C274.582 52.9256 274.94 52.5492 275.391 52.2794C275.851 52.0099 276.374 51.8748 276.961 51.8748C277.532 51.8748 278.032 52.002 278.459 52.2557C278.887 52.5094 279.217 52.8738 279.446 53.3496C279.676 53.8174 279.791 54.3646 279.791 54.9909V55.2762ZM277.021 53.3496C276.489 53.3496 276.157 53.6586 276.022 54.2769H277.948C277.869 53.6586 277.56 53.3496 277.021 53.3496Z" fill="black"/>
<path d="M284.83 51.875C285.544 51.875 286.075 52.0934 286.424 52.5294C286.781 52.9575 286.959 53.6077 286.959 54.4797V58.083H284.807V54.5749C284.807 54.2021 284.743 53.9365 284.616 53.7779C284.49 53.6112 284.291 53.5284 284.021 53.5284C283.696 53.5284 283.435 53.6393 283.237 53.8614C283.039 54.0753 282.939 54.3609 282.939 54.7176V58.083H280.787V53.7779C280.787 53.1277 280.755 52.5494 280.692 52.0417H282.714L282.821 52.9338C283.05 52.5926 283.336 52.3313 283.677 52.1487C284.018 51.9664 284.402 51.875 284.83 51.875Z" fill="black"/>
<path d="M294.571 49.3303V58.0828H292.453V57.2624C292.279 57.5477 292.025 57.7738 291.693 57.9403C291.359 58.0989 290.994 58.1781 290.599 58.1781C290.083 58.1781 289.623 58.0472 289.219 57.7856C288.815 57.5161 288.497 57.1436 288.268 56.6678C288.046 56.1841 287.935 55.6292 287.935 55.003C287.935 54.3844 288.046 53.8375 288.268 53.3617C288.497 52.8859 288.815 52.5213 289.219 52.2676C289.623 52.006 290.083 51.875 290.599 51.875C290.979 51.875 291.328 51.9546 291.645 52.1129C291.97 52.2715 292.227 52.4857 292.418 52.7552V49.3303H294.571ZM291.264 56.5727C291.645 56.5727 291.939 56.4417 292.144 56.1801C292.351 55.9106 292.453 55.526 292.453 55.0267C292.453 54.543 292.346 54.1705 292.132 53.9086C291.926 53.6391 291.637 53.5045 291.264 53.5045C290.876 53.5045 290.579 53.6352 290.372 53.8968C290.167 54.1505 290.063 54.5191 290.063 55.003C290.063 55.5023 290.167 55.8908 290.372 56.1683C290.587 56.4378 290.884 56.5727 291.264 56.5727Z" fill="black"/>
<path d="M301.701 53.9085V55.3477H299.501V57.5597H298.049V55.3477H295.85V53.9085H298.049V51.6965H299.501V53.9085H301.701Z" fill="black"/>
<path d="M306.168 58.1899C305.534 58.1899 304.907 58.1066 304.289 57.9401C303.671 57.7736 303.167 57.5476 302.779 57.2623L303.48 55.6805C303.892 55.9421 304.328 56.1444 304.788 56.287C305.256 56.4218 305.724 56.4893 306.191 56.4893C306.667 56.4893 307.032 56.4258 307.285 56.2991C307.539 56.1642 307.666 55.9779 307.666 55.74C307.666 55.5258 307.551 55.3514 307.321 55.2168C307.091 55.074 306.659 54.9354 306.024 54.8005C305.225 54.6419 304.602 54.4478 304.157 54.2178C303.713 53.9799 303.401 53.7025 303.218 53.3853C303.044 53.0683 302.956 52.6837 302.956 52.2319C302.956 51.7165 303.104 51.2526 303.397 50.8406C303.69 50.4204 304.103 50.0953 304.633 49.8653C305.165 49.6274 305.771 49.5085 306.453 49.5085C307.063 49.5085 307.654 49.5957 308.224 49.7702C308.804 49.9367 309.255 50.1587 309.58 50.4362L308.891 52.0179C308.519 51.7561 308.126 51.558 307.713 51.4231C307.301 51.2805 306.889 51.2091 306.477 51.2091C306.072 51.2091 305.748 51.2884 305.502 51.447C305.256 51.5975 305.133 51.8038 305.133 52.0654C305.133 52.2081 305.176 52.327 305.264 52.4221C305.351 52.5172 305.513 52.6123 305.752 52.7077C305.989 52.7949 306.346 52.8897 306.821 52.993C307.59 53.1595 308.193 53.3616 308.63 53.5995C309.074 53.8294 309.387 54.1029 309.569 54.4201C309.752 54.7291 309.842 55.1019 309.842 55.5379C309.842 56.3625 309.522 57.0125 308.879 57.4883C308.237 57.9559 307.333 58.1899 306.168 58.1899Z" fill="black"/>
<path d="M317.333 52.0418V58.0828H315.216V57.2624C315.041 57.5477 314.788 57.7735 314.455 57.94C314.123 58.0986 313.758 58.1781 313.361 58.1781C312.846 58.1781 312.386 58.0509 311.981 57.7972C311.577 57.5435 311.26 57.1828 311.03 56.7152C310.808 56.2394 310.697 55.6924 310.697 55.0741C310.697 54.4479 310.813 53.8928 311.042 53.4093C311.272 52.9256 311.589 52.5492 311.993 52.2794C312.397 52.0099 312.853 51.8748 313.361 51.8748C313.758 51.8748 314.118 51.9625 314.443 52.1369C314.776 52.3031 315.034 52.5292 315.216 52.8147V52.0418H317.333ZM314.027 56.5724C314.407 56.5724 314.701 56.4415 314.907 56.1798C315.113 55.9182 315.216 55.5418 315.216 55.0502C315.216 54.5506 315.113 54.1705 314.907 53.9086C314.701 53.6391 314.407 53.5044 314.027 53.5044C313.654 53.5044 313.361 53.643 313.147 53.9205C312.933 54.19 312.825 54.5746 312.825 55.0741C312.825 55.5578 312.929 55.9303 313.135 56.1919C313.341 56.4457 313.638 56.5724 314.027 56.5724Z" fill="black"/>
<path d="M322.739 52.0535H324.855L322.168 58.0831H320.396L317.744 52.0535H319.98L321.336 55.526L322.739 52.0535Z" fill="black"/>
<path d="M330.704 55.2762H326.911C326.951 55.7441 327.085 56.0808 327.315 56.2868C327.545 56.4931 327.882 56.5963 328.326 56.5963C328.628 56.5963 328.929 56.5487 329.231 56.4536C329.531 56.3505 329.805 56.2115 330.051 56.0371L330.597 57.4642C330.297 57.6863 329.932 57.8609 329.503 57.9877C329.076 58.1146 328.648 58.1781 328.219 58.1781C327.529 58.1781 326.931 58.0509 326.423 57.7972C325.917 57.5435 325.528 57.1828 325.259 56.7152C324.988 56.2394 324.854 55.6806 324.854 55.0383C324.854 54.4281 324.981 53.8849 325.234 53.4093C325.496 52.9256 325.853 52.5492 326.304 52.2794C326.764 52.0099 327.288 51.8748 327.875 51.8748C328.446 51.8748 328.945 52.002 329.373 52.2557C329.801 52.5094 330.13 52.8738 330.36 53.3496C330.59 53.8174 330.704 54.3646 330.704 54.9909V55.2762ZM327.934 53.3496C327.403 53.3496 327.069 53.6586 326.934 54.2769H328.862C328.783 53.6586 328.474 53.3496 327.934 53.3496Z" fill="black"/>
<path d="M177.34 59.8895L170.873 53.498C170.6 53.2292 170.6 52.7939 170.873 52.5244L177.34 46.1326C177.733 45.7436 178.373 45.7436 178.768 46.1326C179.161 46.522 179.161 47.1541 178.768 47.5432L173.235 53.0118L178.768 58.479C179.161 58.8688 179.161 59.5002 178.768 59.8895C178.373 60.2789 177.733 60.2789 177.34 59.8895Z" fill="#40186C"/>
<path d="M406.339 41.9233H391.799C385.576 41.9233 380.532 47.0795 380.532 53.4396C380.532 59.7998 385.576 64.9559 391.799 64.9559H406.339C412.562 64.9559 417.607 59.7998 417.607 53.4396C417.607 47.0795 412.562 41.9233 406.339 41.9233Z" fill="#40186C"/>
<path d="M406.456 62.3481C411.205 62.3481 415.055 58.4135 415.055 53.5603C415.055 48.7068 411.205 44.7722 406.456 44.7722C401.706 44.7722 397.856 48.7068 397.856 53.5603C397.856 58.4135 401.706 62.3481 406.456 62.3481Z" fill="white"/>
<path d="M278.048 85.3647H310.927C313.438 85.3647 315.474 87.4006 315.474 89.9117C315.474 92.423 313.438 94.4591 310.927 94.4591H278.048C275.537 94.4591 273.501 92.423 273.501 89.9117C273.501 87.4006 275.537 85.3647 278.048 85.3647Z" fill="#C9C9C9"/>
<path d="M250.689 112.156H249.577V113.101H250.689V114.123H249.577V117.201H248.262L245.886 111.491V117.201H244.519V114.123H243.42V113.101H244.519V112.156H243.42V111.134H244.519V108.107H245.834L248.198 114.046V108.107H249.577V111.134H250.689V112.156Z" fill="black"/>
<path d="M262.136 115.857V118.305H252.558V116.052L257.2 111.116C258.166 110.072 258.65 109.119 258.65 108.257C258.65 107.709 258.486 107.297 258.16 107.023C257.847 106.735 257.382 106.592 256.769 106.592C255.58 106.592 254.348 107.043 253.067 107.943L252.087 105.75C252.649 105.267 253.368 104.888 254.242 104.613C255.117 104.326 256.005 104.183 256.907 104.183C258.355 104.183 259.504 104.535 260.353 105.24C261.215 105.932 261.646 106.866 261.646 108.041C261.646 108.851 261.476 109.602 261.137 110.294C260.81 110.973 260.256 111.731 259.472 112.566L256.318 115.857H262.136Z" fill="black"/>
<path d="M269.767 109.275C270.629 109.275 271.392 109.465 272.058 109.843C272.737 110.209 273.26 110.731 273.625 111.41C274.004 112.089 274.193 112.873 274.193 113.76C274.193 114.7 273.972 115.53 273.528 116.248C273.097 116.954 272.47 117.501 271.647 117.894C270.837 118.272 269.891 118.462 268.807 118.462C267.918 118.462 267.037 118.318 266.163 118.031C265.3 117.743 264.602 117.365 264.066 116.895L265.046 114.7C266.287 115.602 267.553 116.052 268.846 116.052C270.479 116.052 271.295 115.327 271.295 113.878C271.295 113.186 271.079 112.644 270.648 112.252C270.231 111.847 269.655 111.645 268.925 111.645C268.467 111.645 268.004 111.73 267.533 111.9C267.077 112.07 266.665 112.305 266.299 112.605H264.556V104.359H273.507V106.709H267.533V109.824C268.147 109.458 268.892 109.275 269.767 109.275Z" fill="black"/>
<path d="M278.946 115.152V117.169C278.946 117.939 278.809 118.632 278.534 119.244C278.273 119.872 277.823 120.499 277.182 121.126L276.027 120.224C276.667 119.558 277.065 118.918 277.222 118.305H275.752V115.152H278.946Z" fill="black"/>
<path d="M285.796 118.481C284.112 118.481 282.818 117.867 281.917 116.64C281.029 115.413 280.586 113.636 280.586 111.312C280.586 109.014 281.029 107.257 281.917 106.043C282.818 104.829 284.112 104.222 285.796 104.222C287.48 104.222 288.767 104.829 289.655 106.043C290.555 107.257 291.006 109.014 291.006 111.312C291.006 113.636 290.555 115.413 289.655 116.64C288.767 117.867 287.48 118.481 285.796 118.481ZM285.796 116.13C286.566 116.13 287.127 115.752 287.48 114.994C287.833 114.237 288.008 113.01 288.008 111.312C288.008 109.654 287.833 108.452 287.48 107.708C287.127 106.951 286.566 106.572 285.796 106.572C285.025 106.572 284.463 106.951 284.111 107.708C283.758 108.452 283.582 109.654 283.582 111.312C283.582 113.01 283.758 114.237 284.111 114.994C284.463 115.752 285.025 116.13 285.796 116.13Z" fill="black"/>
<path d="M303.064 115.758H301.164V118.305H298.167V115.758H292.311V113.487L298.716 104.359H301.164V113.388H303.064V115.758ZM298.167 113.388V109.001L295.112 113.388H298.167Z" fill="black"/>
<path d="M309.285 118.481C307.601 118.481 306.308 117.867 305.406 116.64C304.519 115.413 304.075 113.636 304.075 111.312C304.075 109.014 304.519 107.257 305.406 106.043C306.308 104.829 307.601 104.222 309.285 104.222C310.97 104.222 312.255 104.829 313.144 106.043C314.045 107.257 314.495 109.014 314.495 111.312C314.495 113.636 314.045 115.413 313.144 116.64C312.255 117.867 310.97 118.481 309.285 118.481ZM309.285 116.13C310.055 116.13 310.617 115.752 310.97 114.994C311.321 114.237 311.498 113.01 311.498 111.312C311.498 109.654 311.321 108.452 310.97 107.708C310.617 106.951 310.055 106.572 309.285 106.572C308.514 106.572 307.953 106.951 307.601 107.708C307.248 108.452 307.071 109.654 307.071 111.312C307.071 113.01 307.248 114.237 307.601 114.994C307.953 115.752 308.514 116.13 309.285 116.13Z" fill="black"/>
<path d="M319.306 118.304H316.113V115.152H319.306V118.304Z" fill="black"/>
<path d="M326.998 109.275C327.86 109.275 328.625 109.465 329.29 109.843C329.969 110.209 330.492 110.731 330.857 111.41C331.236 112.089 331.425 112.873 331.425 113.76C331.425 114.7 331.203 115.53 330.759 116.248C330.328 116.954 329.701 117.501 328.879 117.894C328.069 118.272 327.122 118.462 326.038 118.462C325.151 118.462 324.269 118.318 323.393 118.031C322.533 117.743 321.833 117.365 321.298 116.895L322.278 114.7C323.518 115.602 324.785 116.052 326.078 116.052C327.71 116.052 328.526 115.327 328.526 113.878C328.526 113.186 328.311 112.644 327.88 112.252C327.462 111.847 326.887 111.645 326.156 111.645C325.699 111.645 325.235 111.73 324.766 111.9C324.308 112.07 323.897 112.305 323.532 112.605H321.788V104.359H330.74V106.709H324.766V109.824C325.379 109.458 326.123 109.275 326.998 109.275Z" fill="black"/>
<path d="M340.212 111.136C341.022 111.371 341.642 111.782 342.073 112.37C342.517 112.944 342.739 113.657 342.739 114.505C342.739 115.733 342.275 116.698 341.348 117.404C340.42 118.109 339.161 118.462 337.567 118.462C336.602 118.462 335.674 118.325 334.787 118.05C333.898 117.763 333.18 117.377 332.631 116.895L333.611 114.7C334.852 115.602 336.124 116.052 337.43 116.052C338.279 116.052 338.893 115.909 339.272 115.621C339.663 115.321 339.859 114.851 339.859 114.211C339.859 113.598 339.663 113.153 339.272 112.879C338.893 112.591 338.279 112.448 337.43 112.448H335.432V110.059H337.098C337.907 110.059 338.508 109.922 338.9 109.648C339.291 109.36 339.487 108.929 339.487 108.355C339.487 107.78 339.31 107.343 338.958 107.042C338.618 106.742 338.128 106.592 337.489 106.592C336.888 106.592 336.275 106.709 335.649 106.944C335.021 107.166 334.408 107.499 333.807 107.943L332.827 105.75C333.389 105.266 334.108 104.888 334.982 104.613C335.857 104.326 336.757 104.183 337.685 104.183C338.625 104.183 339.448 104.339 340.153 104.652C340.872 104.966 341.419 105.403 341.798 105.965C342.19 106.526 342.386 107.186 342.386 107.943C342.386 108.701 342.197 109.36 341.818 109.922C341.44 110.47 340.904 110.875 340.212 111.136Z" fill="black"/>
<mask id="mask1_1_311" style="mask-type:luminance" maskUnits="userSpaceOnUse" x="52" y="0" width="501" height="495">
<path d="M52.5 0.495361H552.5V494.565H52.5V0.495361Z" fill="white"/>
</mask>
<g mask="url(#mask1_1_311)">
<mask id="mask2_1_311" style="mask-type:alpha" maskUnits="userSpaceOnUse" x="100" y="81" width="383" height="383">
<path d="M291.844 81.7646C397.274 81.7646 482.742 167.232 482.742 272.662C482.742 378.092 397.274 463.56 291.844 463.56C186.414 463.56 100.946 378.092 100.946 272.662C100.946 167.232 186.414 81.7646 291.844 81.7646Z" fill="#FFF5DB"/>
</mask>
<g mask="url(#mask2_1_311)">
<path d="M287.895 342.167C231.771 342.167 183.498 374.968 162.063 422.749H413.697C392.262 374.968 343.99 342.167 287.895 342.167Z" fill="#47D289"/>
<path d="M413.697 422.748H162.062V530.808H413.697V422.748Z" fill="#47D289"/>
<path d="M426.831 348.326C422.772 373.742 398.71 385.014 377.245 379.931C357.273 375.177 342.883 356.907 339.928 336.994C337.42 320.16 341.898 300.157 342.823 283.143C343.211 275.847 343.301 268.163 339.898 261.674C336.495 255.186 327.449 250.133 317.687 256.711L310.851 251.568C317.657 238.981 332.703 229.262 346.974 230.488C361.213 231.715 374.289 242 378.856 255.575C383.066 268.103 380.349 281.767 377.931 294.744C375.543 307.751 373.602 321.715 379.155 333.705C383.096 342.226 390.768 348.924 399.755 351.675C408.68 354.395 418.801 353.17 426.831 348.326Z" fill="#40186C"/>
<path d="M296.194 444.481C312.352 444.481 325.45 431.362 325.45 415.179C325.45 398.995 312.352 385.876 296.194 385.876C280.037 385.876 266.938 398.995 266.938 415.179C266.938 431.362 280.037 444.481 296.194 444.481Z" fill="#9C79CD"/>
<path d="M324.585 414.968L310.165 362.971L276.938 355.226L262.848 415.954L324.585 414.968Z" fill="#9C79CD"/>
<path d="M310.583 356.425C312.554 361.12 313.031 370.749 313.778 375.203C313.778 375.203 291.627 376.698 286.701 369.522C284.73 366.562 284.253 362.346 285.715 358.908C289.925 351.254 307.151 348.293 310.583 356.425Z" fill="#511B7B"/>
<path d="M292.7 370.474C272.012 370.623 255.115 353.909 254.965 333.187L254.637 284.27C254.488 263.549 271.146 246.626 291.835 246.477C312.524 246.327 329.42 263.041 329.57 283.762L329.898 332.679C330.078 353.4 313.389 370.324 292.7 370.474Z" fill="#9C79CD"/>
<path d="M255.473 320.812C250.487 320.842 246.398 316.806 246.368 311.812L246.278 298.326C246.248 293.333 250.279 289.237 255.264 289.207C260.25 289.177 264.339 293.214 264.369 298.208L264.459 311.693C264.489 316.686 260.488 320.782 255.473 320.812Z" fill="#9C79CD"/>
<path d="M333.061 320.305C328.075 320.335 323.986 316.297 323.956 311.304L323.866 297.819C323.836 292.826 327.867 288.73 332.851 288.7C337.837 288.67 341.927 292.707 341.957 297.7L342.047 311.186C342.107 316.179 338.076 320.245 333.061 320.305Z" fill="#9C79CD"/>
<path d="M292.132 324.998C291.654 324.878 291.326 324.46 291.326 323.982L291.207 305.323C291.207 304.725 291.684 304.247 292.252 304.247C292.849 304.247 293.326 304.725 293.326 305.293L293.445 323.952C293.445 324.549 292.968 325.027 292.4 325.027C292.312 325.027 292.222 325.027 292.132 324.998Z" fill="#40186C"/>
<path d="M275.474 312.139C274.997 312.019 274.668 311.599 274.668 311.121L274.639 305.291C274.639 304.693 275.116 304.215 275.684 304.215C276.281 304.215 276.757 304.693 276.757 305.261L276.788 311.092C276.788 311.689 276.311 312.168 275.743 312.168C275.654 312.168 275.564 312.139 275.474 312.139Z" fill="#40186C"/>
<path d="M308.612 311.9C308.134 311.78 307.806 311.362 307.806 310.883L307.776 305.052C307.776 304.455 308.254 303.977 308.821 303.977C309.419 303.977 309.896 304.455 309.896 305.024L309.926 310.853C309.926 311.452 309.449 311.93 308.881 311.93C308.762 311.93 308.702 311.93 308.612 311.9Z" fill="#40186C"/>
<path d="M309.779 324.733C307.301 323.747 304.495 324.943 303.51 327.424C302.525 329.907 303.72 332.717 306.196 333.704L310.465 335.408C312.167 332.717 313.302 329.607 313.66 326.259L309.779 324.733Z" fill="#6E499D"/>
<path d="M292.284 346.44C291.806 346.32 291.478 345.903 291.478 345.423C291.478 344.825 291.956 344.347 292.522 344.347C303.748 344.258 312.793 335.078 312.703 323.835C312.703 323.238 313.181 322.759 313.748 322.759C314.346 322.759 314.823 323.237 314.823 323.805C314.913 336.214 304.912 346.381 292.522 346.47C292.433 346.47 292.374 346.47 292.284 346.44Z" fill="#40186C"/>
<path d="M313.808 263.39C319.331 263.39 323.808 258.906 323.808 253.373C323.808 247.841 319.331 243.357 313.808 243.357C308.284 243.357 303.807 247.841 303.807 253.373C303.807 258.906 308.284 263.39 313.808 263.39Z" fill="#47D289"/>
<path d="M329.598 283.362C329.509 269.637 322.224 257.318 310.881 251.158C312.791 264.703 319.18 277.89 329.628 288.265L329.598 283.362Z" fill="#40186C"/>
<path d="M321.151 259.913C314.224 251.421 303.657 246.009 291.864 246.069C271.176 246.219 254.487 263.142 254.637 283.863L254.727 297.886C282.4 296.243 306.522 281.561 321.151 259.913Z" fill="#40186C"/>
<path d="M314.942 443.853V445.916C314.942 450.879 310.943 454.886 305.987 454.886H275.088C270.192 454.886 266.222 450.939 266.132 446.096C266.341 445.886 266.55 445.707 266.759 445.527C271.625 441.281 279.447 437.513 287.149 434.165C302.076 439.068 310.047 441.371 314.942 443.853Z" fill="#5F36A8"/>
<path d="M418.976 493.516L385.882 524.551C375.074 507.405 326.131 459.305 319.58 452.16C317.025 449.373 309.955 438.792 287.942 431.385C293.57 428.502 299.095 425.864 303.317 423.454C312.367 418.268 314.07 413.253 314.266 405.544C314.333 403.173 314.102 400.82 313.693 398.479L313.839 398.439L312.062 368.801C320.142 373.889 322.891 383.31 324.714 392.276C326.712 402.131 327.245 412.523 331.79 421.476C336.505 430.779 407.735 488.589 418.976 493.516Z" fill="#9C79CD"/>
<path d="M266.131 446.095C258.369 453.122 196.931 524.884 192.93 534.6L163.256 511.906C181.048 501.113 250.1 419.424 254.816 399.271C256.22 393.351 259.952 384.501 266.101 381.511V406.657L294.999 394.128L304.194 390.122C307.896 388.537 312.135 390.6 313.15 394.488C313.867 397.238 314.464 400.019 314.763 402.829C315.061 405.192 315.121 407.524 314.912 409.916C314.285 417.601 312.285 422.534 302.911 427.138C298.552 429.291 292.88 431.593 287.088 434.135C279.386 437.514 271.594 441.252 266.698 445.497C266.549 445.737 266.31 445.916 266.131 446.095Z" fill="#9C79CD"/>
<path d="M266.131 358.161V358.041C266.131 353.078 270.132 349.072 275.088 349.072H291.716H305.986C310.942 349.072 314.942 353.108 314.942 358.041V373.141V402.833L314.793 402.863C314.495 400.052 313.927 397.271 313.181 394.521C312.136 390.633 307.897 388.57 304.224 390.155L295.03 394.161L266.131 381.544V358.161ZM281.806 361.062C281.806 358.849 280.014 357.026 277.775 357.026C275.536 357.026 273.745 358.819 273.745 361.062C273.745 363.274 275.536 365.098 277.775 365.098C280.014 365.098 281.806 363.304 281.806 361.062Z" fill="#5F36A8"/>
<path d="M295.03 394.126L266.132 406.685V381.539L295.03 394.126Z" fill="#9C79CD"/>
<path d="M266.132 407.706C265.923 407.706 265.743 407.646 265.565 407.528C265.266 407.348 265.117 407.018 265.117 406.69V381.544C265.117 380.975 265.565 380.527 266.132 380.527C266.699 380.527 267.146 380.975 267.146 381.544V405.135L294.642 393.204C295.149 392.996 295.747 393.204 295.986 393.744C296.194 394.251 295.986 394.849 295.447 395.089L266.55 407.617C266.401 407.676 266.251 407.706 266.132 407.706Z" fill="#40186C"/>
<path d="M287.149 435.186C286.76 435.186 286.372 434.946 286.223 434.588C285.984 434.079 286.223 433.481 286.76 433.243C288.522 432.465 290.253 431.717 291.955 431C295.836 429.325 299.538 427.77 302.523 426.275C311.39 421.88 313.33 417.305 313.957 409.86C314.136 407.617 314.106 405.345 313.808 402.983C313.748 402.414 314.136 401.906 314.703 401.846C315.241 401.787 315.778 402.176 315.838 402.744C316.136 405.255 316.196 407.647 315.988 410.04C315.33 418.053 313.121 423.315 303.419 428.099C300.373 429.625 296.672 431.208 292.731 432.883C291.03 433.601 289.298 434.348 287.537 435.126C287.417 435.156 287.268 435.186 287.149 435.186Z" fill="#40186C"/>
<path d="M280.581 413.624C280.192 413.624 279.804 413.385 279.655 413.026C279.446 412.518 279.655 411.919 280.192 411.681L313.658 397.149C314.166 396.939 314.763 397.149 315.001 397.687C315.211 398.195 315.001 398.794 314.464 399.033L280.999 413.564C280.849 413.594 280.699 413.624 280.581 413.624Z" fill="#40186C"/>
<path d="M280.58 425.824C280.192 425.824 279.803 425.584 279.655 425.226C279.445 424.718 279.655 424.12 280.192 423.881L314.583 408.96C315.091 408.751 315.688 408.96 315.926 409.498C316.136 410.007 315.926 410.604 315.389 410.844L280.998 425.763C280.848 425.824 280.7 425.824 280.58 425.824Z" fill="#40186C"/>
<path d="M280.969 401.22C280.819 401.22 280.701 401.19 280.581 401.13L265.714 394.671C265.206 394.462 264.968 393.864 265.176 393.326C265.416 392.818 265.983 392.578 266.52 392.788L281.387 399.247C281.894 399.455 282.133 400.054 281.924 400.592C281.745 400.98 281.387 401.22 280.969 401.22Z" fill="#40186C"/>
<path d="M281.806 361.063C281.806 358.85 280.014 357.026 277.775 357.026C275.535 357.026 273.745 358.82 273.745 361.063C273.745 363.275 275.535 365.099 277.775 365.099C280.014 365.099 281.806 363.305 281.806 361.063Z" fill="white"/>
<path d="M433.314 341.468C429.255 366.883 405.193 378.155 383.728 373.072C363.756 368.318 349.366 350.049 346.411 330.136C343.904 313.301 348.381 293.298 349.306 276.285C349.695 268.989 349.784 261.304 346.382 254.816C342.978 248.328 333.932 243.274 324.17 249.853L317.334 244.709C324.14 232.122 339.186 222.404 353.457 223.63C367.697 224.856 380.772 235.142 385.34 248.717C389.549 261.244 386.833 274.909 384.415 287.886C382.027 300.892 380.085 314.856 385.639 326.846C389.579 335.369 397.251 342.065 406.238 344.816C415.164 347.538 425.284 346.311 433.314 341.468Z" fill="#40186C"/>
</g>
</g>
<g opacity="0.999996">
<path d="M495.872 203.741C495.872 203.741 479.825 208.846 468.449 222.372C457.073 235.899 439.227 237.908 439.227 237.908L423.152 211.259C423.152 211.259 439.195 206.329 450.834 193.746C462.473 181.164 479.825 177.074 479.825 177.074L495.9 203.724L495.872 203.741Z" fill="#0D823E"/>
<path d="M490.022 202.482C490.022 202.482 473.796 206.015 465.428 217.317C457.06 228.62 440.835 232.152 440.835 232.152L428.976 212.494C428.976 212.494 444.354 209.435 453.57 197.659C462.786 185.883 478.164 182.824 478.164 182.824L490.022 202.482Z" fill="#47D289"/>
<path d="M468.771 202.588C464.603 195.679 456.93 192.754 451.611 195.962C446.292 199.17 445.318 207.35 449.468 214.232C453.636 221.14 461.308 224.066 466.628 220.858C471.991 217.661 472.939 209.498 468.771 202.588Z" fill="#0D823E"/>
<path d="M464.174 202.956L454.051 211.185L454.306 211.5L464.43 203.272L464.174 202.956Z" fill="#47D289"/>
<path d="M465.304 204.345L455.18 212.574L455.436 212.888L465.559 204.66L465.304 204.345Z" fill="#47D289"/>
<path d="M460.005 213.451L454.403 206.559L455.376 205.769L460.413 207.467C461.579 207.85 462.573 208.254 463.482 208.701L463.485 208.676C462.658 207.804 461.955 206.998 461.084 205.926L458.736 203.038L459.579 202.352L465.181 209.244L464.28 209.976L459.245 208.251C458.132 207.874 457.035 207.46 456.087 206.995L456.07 207.032C456.837 207.857 457.524 208.676 458.455 209.82L460.848 212.765L460.005 213.451Z" fill="#47D289"/>
</g>
<path d="M147.228 248.658C147.228 248.658 131.181 253.763 119.805 267.289C108.428 280.816 90.5825 282.825 90.5825 282.825L74.5077 256.175C74.5077 256.175 90.5512 251.246 102.19 238.663C113.829 226.081 131.18 221.991 131.18 221.991L147.255 248.641L147.228 248.658Z" fill="#0D823E"/>
<path d="M141.378 247.398C141.378 247.398 125.152 250.931 116.784 262.233C108.416 273.536 92.1907 277.068 92.1907 277.068L80.333 257.41C80.333 257.41 95.7105 254.351 104.926 242.575C114.143 230.798 129.52 227.741 129.52 227.741L141.378 247.398Z" fill="#47D289"/>
<path d="M120.127 247.504C115.959 240.594 108.287 237.669 102.967 240.878C97.6485 244.086 96.6735 252.264 100.824 259.146C104.992 266.056 112.665 268.981 117.984 265.773C123.347 262.576 124.295 254.413 120.127 247.504Z" fill="#0D823E"/>
<path d="M115.529 247.878L105.406 256.107L105.662 256.421L115.785 248.193L115.529 247.878Z" fill="#47D289"/>
<path d="M116.661 249.261L106.538 257.49L106.793 257.804L116.917 249.576L116.661 249.261Z" fill="#47D289"/>
<path d="M111.36 258.37L105.758 251.479L106.731 250.688L111.768 252.387C112.934 252.769 113.927 253.173 114.837 253.62L114.839 253.595C114.013 252.724 113.31 251.918 112.438 250.845L110.091 247.957L110.934 247.271L116.536 254.163L115.635 254.895L110.6 253.17C109.486 252.794 108.39 252.378 107.442 251.915L107.425 251.952C108.191 252.778 108.88 253.595 109.809 254.739L112.204 257.685L111.36 258.37Z" fill="#47D289"/>
<path d="M208.216 325.233C207.125 325.233 206.153 325.66 205.393 326.417L186.996 344.888H212.222V329.235C212.222 327.08 210.373 325.233 208.216 325.233Z" fill="#E9A022"/>
<path d="M244.253 370.538H235.694V392.04H244.253V370.538Z" fill="#E9A022"/>
<path d="M153.022 430.71V436.582L162.221 434.096L171.42 436.582V430.71H153.022Z" fill="#E9A022"/>
<path d="M185.503 430.71V436.582L194.702 434.096L203.9 436.582V430.71H185.503Z" fill="#E9A022"/>
<path d="M238.634 380.316C238.208 359.784 222.607 343.066 202.715 340.768V326.417C202.715 324.238 200.866 322.392 198.709 322.392C197.618 322.392 196.646 322.818 195.887 323.576L179.125 340.413H159.755C148.28 340.626 138.109 345.623 130.855 353.438C130.215 351.804 129.242 350.407 127.938 349.317C127.82 349.199 127.82 349.199 127.725 349.105C127.843 347.683 127.606 346.286 127.18 345.078C125.994 342.142 123.291 340.413 119.379 340.082C118.834 340.082 118.408 340.413 118.289 340.957C118.289 341.503 118.621 341.929 119.166 342.047C122.296 342.26 124.359 343.563 125.331 345.86C125.544 346.523 125.757 347.281 125.757 347.92C123.813 346.95 121.537 346.618 119.593 347.044C117.435 347.588 115.918 349.649 115.918 352.04C115.918 354.433 117.317 356.28 119.593 356.919C121.656 357.463 123.813 356.706 125.425 354.858C126.302 353.888 126.943 352.68 127.275 351.377C128.247 352.467 129.005 353.77 129.337 355.285C123.718 362.129 120.138 370.82 119.925 380.387V381.358C119.925 403.619 137.683 421.664 159.755 422.208H198.068C220.474 422.208 238.753 403.95 238.753 381.358C238.634 380.955 238.634 380.648 238.634 380.316ZM123.813 353.58C123.173 354.337 121.75 355.546 119.925 355.001C117.862 354.456 117.649 352.609 117.649 352.065C117.649 350.88 118.407 349.341 119.925 348.914C120.352 348.797 120.802 348.797 121.324 348.797C122.722 348.797 124.24 349.222 125.544 350.099C125.212 351.307 124.667 352.609 123.813 353.58Z" fill="#FFC73D"/>
<path d="M238.635 381.288V380.316C238.09 398.125 220.119 412.475 197.951 412.475H159.638C137.897 412.144 120.353 397.911 119.807 380.316V381.288C119.807 401.274 134.104 417.898 153.023 421.379V430.947H171.421V422.138H185.48V430.947H203.878V421.711C223.58 418.869 238.635 401.819 238.635 381.288Z" fill="#FFC73D"/>
<path d="M184.488 347.28H164.359C162.414 347.28 160.779 348.914 160.779 350.855C160.779 352.821 162.391 354.431 164.359 354.431H184.488C186.431 354.431 188.067 352.797 188.067 350.855C188.067 348.914 186.456 347.28 184.488 347.28Z" fill="#E9A022"/>
<path d="M224.765 370.655C224.125 370.655 223.461 370.111 223.461 369.352C223.461 367.837 222.157 366.534 220.639 366.534C219.122 366.534 217.818 367.837 217.818 369.352C217.818 370.015 217.273 370.655 216.515 370.655C215.755 370.655 215.21 370.111 215.21 369.352C215.21 366.416 217.581 364.024 220.521 364.024C223.437 364.024 225.832 366.416 225.832 369.352C225.974 370.111 225.429 370.655 224.765 370.655Z" fill="#E9A022"/>
</g>
</g>
<defs>
<clipPath id="clip0_1_311">
<rect width="605" height="494.06" fill="white" transform="translate(0 0.5)"/>
</clipPath>
</defs>
</svg>
