<svg width="100" height="24" viewBox="0 0 100 24" fill="none" xmlns="http://www.w3.org/2000/svg">
<path d="M53.104 6.9958V20.5855H49.1612V18.6006C48.7321 19.3159 48.1688 19.8613 47.4715 20.2367C46.7741 20.6123 45.9873 20.8 45.1111 20.8C43.4125 20.8 42.1429 20.3262 41.3025 19.3785C40.4621 18.4307 40.0418 17.0003 40.0418 15.087V6.9958H44.0919V15.1675C44.0919 16.8125 44.7982 17.6351 46.2108 17.6351C47.0512 17.6351 47.7307 17.3489 48.2493 16.7767C48.7678 16.2045 49.0271 15.4535 49.0271 14.5237V6.9958H53.104ZM68.5533 0.800003V20.5855H64.5568V18.5738C64.1455 19.2712 63.5645 19.8165 62.8134 20.2099C62.0624 20.6033 61.2131 20.8 60.2654 20.8C59.1031 20.8 58.066 20.505 57.1541 19.9059C56.2421 19.3069 55.5358 18.4665 55.0262 17.3847C54.5165 16.3029 54.2663 15.0691 54.2663 13.6744C54.2663 12.2796 54.5165 11.0548 55.0262 9.99091C55.5358 8.92696 56.2421 8.10443 57.1451 7.52329C58.0481 6.94216 59.0852 6.65606 60.2654 6.65606C61.1773 6.65606 62.0087 6.85275 62.7597 7.22826C63.5108 7.61269 64.0919 8.14019 64.5032 8.81968V0.800003H68.5533ZM63.7522 16.6874C64.2886 15.9989 64.5568 15.0155 64.5568 13.728C64.5568 12.4585 64.2886 11.4839 63.7432 10.7955C63.1978 10.1071 62.4379 9.76737 61.4545 9.76737C60.4531 9.76737 59.6753 10.1071 59.121 10.7865C58.5666 11.4661 58.2895 12.4316 58.2895 13.6834C58.2895 14.9707 58.5666 15.9632 59.121 16.6695C59.6753 17.3757 60.4531 17.7245 61.4545 17.7245C62.4558 17.7155 63.2157 17.3757 63.7522 16.6874ZM84.0115 6.9958V20.5855H80.015V18.5738C79.6037 19.2712 79.0226 19.8165 78.2716 20.2099C77.5206 20.6033 76.6713 20.8 75.7235 20.8C74.5434 20.8 73.5063 20.5139 72.6033 19.9417C71.7003 19.3695 70.994 18.5559 70.4844 17.492C69.9748 16.4281 69.7245 15.2032 69.7245 13.8085C69.7245 12.4137 69.9748 11.171 70.4844 10.0803C70.994 8.98954 71.7003 8.14913 72.6123 7.55011C73.5242 6.95109 74.5613 6.65606 75.7235 6.65606C76.6713 6.65606 77.5206 6.86169 78.2716 7.27296C79.0226 7.68422 79.6037 8.23854 80.015 8.9359V6.9958H84.0115ZM79.2104 16.6963C79.7468 16.0168 80.015 15.0334 80.015 13.7459C80.015 12.4585 79.7468 11.475 79.2104 10.7865C78.6739 10.0982 77.9051 9.75843 76.9037 9.75843C75.9024 9.75843 75.1245 10.1161 74.5702 10.8313C74.0159 11.5465 73.7387 12.5389 73.7387 13.8085C73.7387 15.0781 74.007 16.0436 74.5524 16.7142C75.0977 17.3847 75.8755 17.7155 76.8947 17.7155C77.9051 17.7155 78.6739 17.3757 79.2104 16.6963ZM39.2283 20.7821H34.2036L28.8035 14.6221V20.7821H24.7088V0.800003H28.8035V12.9324L33.9623 7.0405H38.8795L33.0414 13.6386L39.2283 20.7821Z" fill="#40196D"/>
<path d="M13.4734 20.7821L5.61466 11.7343L9.90609 20.7821H6.92892L2.54805 11.5555L4.37193 20.7821H2.53912L0.715244 11.5376V20.7821H0V0.800003H0.715244V10.7687L2.56594 0.800003H4.38981L2.53017 10.8135L7.00045 0.800003H9.94191L5.49844 10.7776L13.5717 0.800003H18.194L9.83464 11.1174L18.2297 20.7821H13.4734Z" fill="#40196D"/>
<path d="M87.4055 20.5679C88.63 20.5679 89.6227 19.5752 89.6227 18.3506C89.6227 17.1261 88.63 16.1334 87.4055 16.1334C86.1809 16.1334 85.1882 17.1261 85.1882 18.3506C85.1882 19.5752 86.1809 20.5679 87.4055 20.5679Z" fill="#40196D"/>
</svg>
