<svg width="130" height="41" viewBox="0 0 130 41" fill="none" xmlns="http://www.w3.org/2000/svg">
<path d="M0 5.85986C0 3.09844 2.23858 0.859863 5 0.859863H125C127.761 0.859863 130 3.09844 130 5.85986V35.8599C130 38.6213 127.761 40.8599 125 40.8599H5C2.23858 40.8599 0 38.6213 0 35.8599V5.85986Z" fill="#40196D"/>
<path fill-rule="evenodd" clip-rule="evenodd" d="M125 1.85986H5C2.79086 1.85986 1 3.65072 1 5.85986V35.8599C1 38.069 2.79086 39.8599 5 39.8599H125C127.209 39.8599 129 38.069 129 35.8599V5.85986C129 3.65072 127.209 1.85986 125 1.85986ZM5 0.859863C2.23858 0.859863 0 3.09844 0 5.85986V35.8599C0 38.6213 2.23858 40.8599 5 40.8599H125C127.761 40.8599 130 38.6213 130 35.8599V5.85986C130 3.09844 127.761 0.859863 125 0.859863H5Z" fill="#DFE3FF"/>
<path d="M20.5 30.8599C25.7467 30.8599 30 26.6066 30 21.3599C30 16.1132 25.7467 11.8599 20.5 11.8599C15.2533 11.8599 11 16.1132 11 21.3599C11 26.6066 15.2533 30.8599 20.5 30.8599Z" fill="#DFE3FF"/>
<path d="M24.6797 21.1338H23.0807C23.0637 20.8397 23.0242 20.5473 22.9625 20.2593C22.9016 19.9715 22.8175 19.6891 22.7109 19.4148H24.1993C24.2059 19.414 24.2126 19.4153 24.2183 19.4186C24.2241 19.422 24.2286 19.4271 24.2311 19.4332C24.4164 19.7997 24.5466 20.1912 24.6177 20.5954C24.6463 20.7558 24.6659 20.9177 24.6764 21.0803C24.676 21.087 24.676 21.0937 24.6764 21.1004V21.1338H24.6797Z" fill="#40196D"/>
<path d="M24.6793 21.6104C24.6793 21.638 24.6743 21.6656 24.6718 21.694C24.6435 22.0972 24.5542 22.4938 24.4068 22.8704C24.3624 22.9857 24.3087 23.0978 24.2601 23.2115C24.2584 23.2166 24.2549 23.221 24.2503 23.2239C24.2457 23.2268 24.2403 23.228 24.2349 23.2274H22.7709H22.7524C22.8515 22.9615 22.9286 22.688 22.983 22.4097C23.0373 22.1317 23.0701 21.8499 23.0811 21.5669H24.6793V21.6104Z" fill="#40196D"/>
<path d="M20.9925 17.1792L21.1016 17.196C21.3632 17.2342 21.6206 17.2969 21.8705 17.3832C22.238 17.51 22.5858 17.6879 22.9035 17.9116C23.3117 18.1936 23.6625 18.5502 23.9374 18.9626L23.9508 18.9843H23.9315H22.5295C22.5234 18.9847 22.5173 18.9831 22.5123 18.9796C22.5072 18.9761 22.5036 18.9709 22.5018 18.9651C22.3493 18.6636 22.1667 18.3781 21.9568 18.1131C21.7276 17.8284 21.4614 17.5754 21.1653 17.3607C21.1057 17.3164 21.0437 17.2771 20.9833 17.2319L20.9666 17.2202L20.9858 17.206L20.9758 17.1792H20.9925Z" fill="#40196D"/>
<path d="M20.6604 19.4159H22.1764C22.184 19.4148 22.1918 19.4165 22.1983 19.4206C22.2047 19.4248 22.2095 19.4311 22.2116 19.4385C22.3634 19.7865 22.4729 20.1514 22.5378 20.5254C22.5715 20.719 22.5942 20.9144 22.6057 21.1106C22.6057 21.1106 22.6057 21.1165 22.6057 21.1206H20.6604V19.4159Z" fill="#40196D"/>
<path d="M20.6482 23.2261V21.5757H22.596C22.596 21.6117 22.596 21.6468 22.591 21.6819C22.5711 21.9924 22.5217 22.3004 22.4434 22.6016C22.3895 22.8081 22.322 23.0109 22.2413 23.2086C22.2399 23.2142 22.2365 23.2191 22.2317 23.2223C22.2269 23.2255 22.2211 23.2269 22.2153 23.2261H20.6482Z" fill="#40196D"/>
<path d="M18.3145 21.1329C18.3203 21.0594 18.3245 20.9875 18.3321 20.9156C18.3504 20.7356 18.3784 20.5567 18.4159 20.3796C18.4827 20.0581 18.5827 19.7443 18.7144 19.4432C18.7161 19.4381 18.7196 19.4337 18.7241 19.4308C18.7287 19.4279 18.7342 19.4267 18.7396 19.4274H20.2195V21.1329H18.3145Z" fill="#40196D"/>
<path d="M20.2194 23.2269H18.7001C18.6925 23.2278 18.6848 23.2259 18.6785 23.2216C18.6722 23.2173 18.6676 23.2109 18.6657 23.2035C18.5362 22.8902 18.4418 22.5635 18.3839 22.2295C18.3469 22.0167 18.3239 21.8016 18.3152 21.5858C18.3152 21.5858 18.3152 21.5799 18.3152 21.5757H20.2186L20.2194 23.2269Z" fill="#40196D"/>
<path d="M18.2039 19.4155C18.1838 19.4706 18.1637 19.5225 18.1452 19.5743C17.9692 20.0665 17.8642 20.581 17.8333 21.1026C17.8339 21.1055 17.8337 21.1085 17.8328 21.1113C17.8319 21.1141 17.8302 21.1166 17.828 21.1186C17.8258 21.1205 17.8231 21.1218 17.8202 21.1224C17.8173 21.123 17.8143 21.1228 17.8115 21.1219H16.3198C16.3198 21.0776 16.3257 21.0383 16.329 20.9923C16.357 20.6826 16.4183 20.3768 16.5118 20.0801C16.5817 19.8594 16.668 19.6442 16.7701 19.4364C16.772 19.4306 16.7757 19.4257 16.7807 19.4224C16.7858 19.419 16.7918 19.4175 16.7978 19.418H18.2039V19.4155Z" fill="#40196D"/>
<path d="M18.1594 23.227H16.7717C16.764 23.228 16.7562 23.2262 16.7496 23.2221C16.743 23.218 16.7381 23.2117 16.7356 23.2044C16.5642 22.8454 16.4437 22.4644 16.3776 22.0724C16.3502 21.9104 16.3311 21.7472 16.3206 21.5833C16.3206 21.5774 16.3206 21.5724 16.3206 21.5649H17.8299C17.8519 22.1327 17.9631 22.6935 18.1594 23.227Z" fill="#40196D"/>
<path d="M20.9666 25.5184L21.0328 25.4725C21.3331 25.2643 21.6066 25.02 21.847 24.7451C22.122 24.428 22.3545 24.0767 22.5387 23.7C22.5424 23.6884 22.5503 23.6785 22.5608 23.6724C22.5713 23.6662 22.5838 23.6641 22.5958 23.6666H24.0002C23.9784 23.7 23.9592 23.7301 23.939 23.7602C23.8058 23.9535 23.6572 24.1358 23.4946 24.3053C23.2693 24.5402 23.0158 24.7466 22.74 24.9198C22.4613 25.0978 22.162 25.2416 21.8487 25.3479C21.5938 25.435 21.3309 25.4966 21.0638 25.5318L21.0202 25.5385C21.0103 25.5396 21.0003 25.5383 20.991 25.5348C20.9817 25.5313 20.9733 25.5257 20.9666 25.5184Z" fill="#40196D"/>
<path d="M19.9433 25.5228C19.9291 25.5244 19.9147 25.5244 19.9005 25.5228C19.1223 25.4145 18.3914 25.0864 17.7942 24.5772C17.4871 24.3174 17.2224 24.0117 17.0094 23.6709L17.001 23.655H18.3199C18.3279 23.6542 18.336 23.656 18.3429 23.6602C18.3497 23.6645 18.3549 23.6709 18.3577 23.6784C18.5061 23.9803 18.6854 24.2661 18.8926 24.5312C19.0739 24.7605 19.2751 24.9734 19.4938 25.1675C19.632 25.2907 19.7782 25.4046 19.9315 25.5086L19.9399 25.5144V25.5228H19.9433Z" fill="#40196D"/>
<path d="M19.9188 17.1939L19.9389 17.2165L19.8937 17.2474C19.6016 17.4539 19.3341 17.6929 19.0962 17.9597C18.8239 18.258 18.5939 18.5922 18.4129 18.953C18.4103 18.96 18.4054 18.966 18.399 18.9699C18.3926 18.9738 18.3851 18.9755 18.3776 18.9747H17.0444C17.7538 17.9731 18.7055 17.372 19.9163 17.188L19.9188 17.1939Z" fill="#40196D"/>
<path d="M22.0283 23.6694C21.6889 24.2665 21.2171 24.7784 20.6489 25.1659V23.6694H22.0283Z" fill="#40196D"/>
<path d="M18.8955 23.6685H20.2195V25.1358C19.6685 24.7574 19.2149 24.2547 18.8955 23.6685Z" fill="#40196D"/>
<path d="M21.9837 18.9721H20.6597V17.5767C21.2026 17.9342 21.6557 18.4117 21.9837 18.9721Z" fill="#40196D"/>
<path d="M20.2199 17.6196V18.9849H18.9487C19.2594 18.4368 19.6948 17.9691 20.2199 17.6196Z" fill="#40196D"/>
<path d="M42.5109 31.4426C41.6869 31.4426 40.9669 31.2666 40.3509 30.9146C39.7429 30.5546 39.2709 30.0466 38.9349 29.3906C38.6069 28.7266 38.4429 27.9466 38.4429 27.0506C38.4429 26.1626 38.6069 25.3906 38.9349 24.7346C39.2629 24.0706 39.7309 23.5626 40.3389 23.2106C40.9549 22.8586 41.6789 22.6826 42.5109 22.6826C43.3429 22.6826 44.0629 22.8586 44.6709 23.2106C45.2869 23.5626 45.7549 24.0706 46.0749 24.7346C46.4029 25.3906 46.5669 26.1626 46.5669 27.0506C46.5669 27.9466 46.4029 28.7266 46.0749 29.3906C45.7469 30.0466 45.2789 30.5546 44.6709 30.9146C44.0629 31.2666 43.3429 31.4426 42.5109 31.4426ZM42.5109 30.2066C43.3029 30.2066 43.9189 29.9346 44.3589 29.3906C44.7989 28.8466 45.0189 28.0666 45.0189 27.0506C45.0189 26.0426 44.7989 25.2706 44.3589 24.7346C43.9189 24.1906 43.3029 23.9186 42.5109 23.9186C41.7189 23.9186 41.1029 24.1866 40.6629 24.7226C40.2229 25.2586 40.0029 26.0346 40.0029 27.0506C40.0029 28.0666 40.2229 28.8466 40.6629 29.3906C41.1029 29.9346 41.7189 30.2066 42.5109 30.2066Z" fill="#DFE3FF"/>
<path d="M51.5125 25.1187C52.9605 25.1187 53.6845 25.9507 53.6845 27.6147V31.3347H52.1845V27.6867C52.1845 27.2067 52.0925 26.8587 51.9085 26.6427C51.7245 26.4187 51.4405 26.3067 51.0565 26.3067C50.6005 26.3067 50.2325 26.4547 49.9525 26.7507C49.6725 27.0387 49.5325 27.4227 49.5325 27.9027V31.3347H48.0445V26.9907C48.0445 26.3507 48.0125 25.7787 47.9485 25.2747H49.3525L49.4605 26.2707C49.6685 25.9027 49.9485 25.6187 50.3005 25.4187C50.6605 25.2187 51.0645 25.1187 51.5125 25.1187Z" fill="#DFE3FF"/>
<path d="M60.6799 31.3345V24.0625H57.8959V22.7905H65.0359V24.0625H62.2399V31.3345H60.6799Z" fill="#DFE3FF"/>
<path d="M69.4656 25.1184C70.9136 25.1184 71.6376 25.9504 71.6376 27.6144V31.3344H70.1376V27.6864C70.1376 27.2064 70.0456 26.8584 69.8616 26.6424C69.6776 26.4184 69.3936 26.3064 69.0096 26.3064C68.5536 26.3064 68.1856 26.4544 67.9056 26.7504C67.6256 27.0384 67.4856 27.4224 67.4856 27.9024V31.3344H65.9976V22.5024H67.4856V26.1504C67.6936 25.8224 67.9696 25.5704 68.3136 25.3944C68.6576 25.2104 69.0416 25.1184 69.4656 25.1184Z" fill="#DFE3FF"/>
<path d="M78.5321 28.3827H74.3561C74.3881 29.0307 74.5481 29.5107 74.8361 29.8227C75.1321 30.1267 75.5681 30.2787 76.1441 30.2787C76.8081 30.2787 77.4241 30.0627 77.9921 29.6307L78.4241 30.6627C78.1361 30.8947 77.7801 31.0827 77.3561 31.2267C76.9401 31.3627 76.5161 31.4307 76.0841 31.4307C75.0921 31.4307 74.3121 31.1507 73.7441 30.5907C73.1761 30.0307 72.8921 29.2627 72.8921 28.2867C72.8921 27.6707 73.0161 27.1227 73.2641 26.6427C73.5121 26.1627 73.8601 25.7907 74.3081 25.5267C74.7561 25.2547 75.2641 25.1187 75.8321 25.1187C76.6641 25.1187 77.3201 25.3907 77.8001 25.9347C78.2881 26.4707 78.5321 27.2107 78.5321 28.1547V28.3827ZM75.8681 26.1987C75.4681 26.1987 75.1401 26.3187 74.8841 26.5587C74.6361 26.7907 74.4761 27.1307 74.4041 27.5787H77.2241C77.1761 27.1227 77.0361 26.7787 76.8041 26.5467C76.5801 26.3147 76.2681 26.1987 75.8681 26.1987Z" fill="#DFE3FF"/>
<path d="M93.9552 22.7905H95.4432L92.4192 31.3345H91.1592L89.0112 25.1905L86.8392 31.3345H85.5792L82.5672 22.7905H84.1392L86.2752 29.1625L88.4952 22.7905H89.5992L91.7712 29.2105L93.9552 22.7905Z" fill="#DFE3FF"/>
<path d="M101.138 28.3827H96.9615C96.9935 29.0307 97.1535 29.5107 97.4415 29.8227C97.7375 30.1267 98.1735 30.2787 98.7495 30.2787C99.4135 30.2787 100.03 30.0627 100.598 29.6307L101.03 30.6627C100.742 30.8947 100.386 31.0827 99.9615 31.2267C99.5455 31.3627 99.1215 31.4307 98.6895 31.4307C97.6975 31.4307 96.9175 31.1507 96.3495 30.5907C95.7815 30.0307 95.4975 29.2627 95.4975 28.2867C95.4975 27.6707 95.6215 27.1227 95.8695 26.6427C96.1175 26.1627 96.4655 25.7907 96.9135 25.5267C97.3615 25.2547 97.8695 25.1187 98.4375 25.1187C99.2695 25.1187 99.9255 25.3907 100.406 25.9347C100.894 26.4707 101.138 27.2107 101.138 28.1547V28.3827ZM98.4735 26.1987C98.0735 26.1987 97.7455 26.3187 97.4895 26.5587C97.2415 26.7907 97.0815 27.1307 97.0095 27.5787H99.8295C99.7815 27.1227 99.6415 26.7787 99.4095 26.5467C99.1855 26.3147 98.8735 26.1987 98.4735 26.1987Z" fill="#DFE3FF"/>
<path d="M105.864 25.1184C106.392 25.1184 106.856 25.2504 107.256 25.5144C107.664 25.7704 107.98 26.1344 108.204 26.6064C108.428 27.0784 108.54 27.6264 108.54 28.2504C108.54 28.8744 108.424 29.4304 108.192 29.9184C107.968 30.3984 107.652 30.7704 107.244 31.0344C106.844 31.2984 106.384 31.4304 105.864 31.4304C105.416 31.4304 105.016 31.3344 104.664 31.1424C104.32 30.9504 104.06 30.6824 103.884 30.3384V31.3344H102.408V22.5024H103.896V26.1864C104.08 25.8504 104.344 25.5904 104.688 25.4064C105.032 25.2144 105.424 25.1184 105.864 25.1184ZM105.468 30.2544C105.964 30.2544 106.348 30.0784 106.62 29.7264C106.892 29.3744 107.028 28.8824 107.028 28.2504C107.028 27.6264 106.892 27.1464 106.62 26.8104C106.348 26.4664 105.96 26.2944 105.456 26.2944C104.952 26.2944 104.564 26.4664 104.292 26.8104C104.02 27.1544 103.884 27.6424 103.884 28.2744C103.884 28.9144 104.02 29.4064 104.292 29.7504C104.564 30.0864 104.956 30.2544 105.468 30.2544Z" fill="#DFE3FF"/>
<path d="M40.6569 16.9407C40.1649 16.9407 39.7029 16.8747 39.2709 16.7427C38.8449 16.6107 38.4819 16.4217 38.1819 16.1757L38.5779 15.3297C38.8899 15.5637 39.2139 15.7377 39.5499 15.8517C39.8919 15.9597 40.2639 16.0137 40.6659 16.0137C41.1099 16.0137 41.4519 15.9357 41.6919 15.7797C41.9379 15.6237 42.0609 15.4047 42.0609 15.1227C42.0609 14.8827 41.9469 14.6997 41.7189 14.5737C41.4969 14.4417 41.1279 14.3187 40.6119 14.2047C39.8079 14.0307 39.2229 13.8057 38.8569 13.5297C38.4909 13.2537 38.3079 12.8517 38.3079 12.3237C38.3079 11.9457 38.4099 11.6097 38.6139 11.3157C38.8179 11.0217 39.1059 10.7906 39.4779 10.6226C39.8559 10.4546 40.2909 10.3706 40.7829 10.3706C41.2329 10.3706 41.6589 10.4396 42.0609 10.5776C42.4689 10.7096 42.8019 10.8957 43.0599 11.1357L42.6729 11.9817C42.1029 11.5257 41.4729 11.2977 40.7829 11.2977C40.3689 11.2977 40.0419 11.3847 39.8019 11.5587C39.5619 11.7267 39.4419 11.9577 39.4419 12.2517C39.4419 12.5037 39.5469 12.6957 39.7569 12.8277C39.9729 12.9597 40.3389 13.0827 40.8549 13.1967C41.3889 13.3227 41.8239 13.4607 42.1599 13.6107C42.4959 13.7547 42.7539 13.9437 42.9339 14.1777C43.1139 14.4057 43.2039 14.6937 43.2039 15.0417C43.2039 15.4257 43.1019 15.7617 42.8979 16.0497C42.6939 16.3317 42.3999 16.5507 42.0159 16.7067C41.6319 16.8627 41.1789 16.9407 40.6569 16.9407Z" fill="#DFE3FF"/>
<path d="M44.1989 16.8595V12.3145H45.3149V16.8595H44.1989ZM44.1269 10.2534H45.3779V11.3605H44.1269V10.2534Z" fill="#DFE3FF"/>
<path d="M50.9376 12.3143V16.7153C50.9376 17.4233 50.7426 17.9603 50.3526 18.3263C49.9626 18.6923 49.3896 18.8753 48.6336 18.8753C47.9316 18.8753 47.3136 18.7283 46.7796 18.4343L46.9596 17.5793C47.5116 17.8673 48.0606 18.0113 48.6066 18.0113C49.4166 18.0113 49.8216 17.6093 49.8216 16.8053V15.9053C49.6836 16.1513 49.4826 16.3523 49.2186 16.5083C48.9546 16.6583 48.6576 16.7333 48.3276 16.7333C47.9316 16.7333 47.5776 16.6403 47.2656 16.4543C46.9596 16.2623 46.7196 15.9953 46.5456 15.6533C46.3776 15.3053 46.2936 14.9093 46.2936 14.4653C46.2936 14.0213 46.3776 13.6283 46.5456 13.2863C46.7196 12.9383 46.9596 12.6713 47.2656 12.4853C47.5776 12.2933 47.9316 12.1973 48.3276 12.1973C48.6636 12.1973 48.9606 12.2693 49.2186 12.4133C49.4826 12.5513 49.6836 12.7463 49.8216 12.9983V12.3143H50.9376ZM48.6246 15.8513C48.9966 15.8513 49.2876 15.7283 49.4976 15.4823C49.7136 15.2363 49.8216 14.8973 49.8216 14.4653C49.8216 14.0333 49.7166 13.6943 49.5066 13.4483C49.2966 13.2023 49.0026 13.0793 48.6246 13.0793C48.2526 13.0793 47.9586 13.2023 47.7426 13.4483C47.5326 13.6943 47.4276 14.0333 47.4276 14.4653C47.4276 14.8973 47.5326 15.2363 47.7426 15.4823C47.9586 15.7283 48.2526 15.8513 48.6246 15.8513Z" fill="#DFE3FF"/>
<path d="M54.754 12.1973C55.84 12.1973 56.383 12.8213 56.383 14.0693V16.8593H55.258V14.1233C55.258 13.7633 55.189 13.5023 55.051 13.3403C54.913 13.1723 54.7 13.0883 54.412 13.0883C54.07 13.0883 53.794 13.1993 53.584 13.4213C53.374 13.6373 53.269 13.9253 53.269 14.2853V16.8593H52.153V13.6013C52.153 13.1213 52.129 12.6923 52.081 12.3143H53.134L53.215 13.0613C53.371 12.7853 53.581 12.5723 53.845 12.4223C54.115 12.2723 54.418 12.1973 54.754 12.1973Z" fill="#DFE3FF"/>
<path d="M60.0456 16.8595V12.3145H61.1616V16.8595H60.0456ZM59.9736 10.2534H61.2246V11.3605H59.9736V10.2534Z" fill="#DFE3FF"/>
<path d="M64.9932 12.1973C66.0792 12.1973 66.6222 12.8213 66.6222 14.0693V16.8593H65.4972V14.1233C65.4972 13.7633 65.4282 13.5023 65.2902 13.3403C65.1522 13.1723 64.9392 13.0883 64.6512 13.0883C64.3092 13.0883 64.0332 13.1993 63.8232 13.4213C63.6132 13.6373 63.5082 13.9253 63.5082 14.2853V16.8593H62.3922V13.6013C62.3922 13.1213 62.3682 12.6923 62.3202 12.3143H63.3732L63.4542 13.0613C63.6102 12.7853 63.8202 12.5723 64.0842 12.4223C64.3542 12.2723 64.6572 12.1973 64.9932 12.1973Z" fill="#DFE3FF"/>
<path d="M71.7158 13.1606V15.1946C71.7158 15.7286 71.9648 15.9956 72.4628 15.9956C72.6008 15.9956 72.7508 15.9716 72.9128 15.9236V16.8146C72.7148 16.8866 72.4748 16.9226 72.1928 16.9226C71.6768 16.9226 71.2808 16.7786 71.0048 16.4906C70.7288 16.2026 70.5908 15.7886 70.5908 15.2486V13.1606H69.7178V12.3146H70.5908V11.2076L71.7158 10.8296V12.3146H72.9218V13.1606H71.7158Z" fill="#DFE3FF"/>
<path d="M75.756 16.9313C75.294 16.9313 74.886 16.8353 74.532 16.6433C74.184 16.4513 73.914 16.1783 73.722 15.8243C73.536 15.4643 73.443 15.0443 73.443 14.5643C73.443 14.0843 73.536 13.6673 73.722 13.3133C73.914 12.9533 74.184 12.6773 74.532 12.4853C74.886 12.2933 75.294 12.1973 75.756 12.1973C76.212 12.1973 76.614 12.2933 76.962 12.4853C77.31 12.6773 77.577 12.9533 77.763 13.3133C77.955 13.6673 78.051 14.0843 78.051 14.5643C78.051 15.0443 77.955 15.4643 77.763 15.8243C77.577 16.1783 77.31 16.4513 76.962 16.6433C76.614 16.8353 76.212 16.9313 75.756 16.9313ZM75.747 16.0493C76.131 16.0493 76.422 15.9263 76.62 15.6803C76.824 15.4283 76.926 15.0563 76.926 14.5643C76.926 14.0783 76.824 13.7093 76.62 13.4573C76.416 13.1993 76.128 13.0703 75.756 13.0703C75.378 13.0703 75.087 13.1993 74.883 13.4573C74.679 13.7093 74.577 14.0783 74.577 14.5643C74.577 15.0563 74.676 15.4283 74.874 15.6803C75.078 15.9263 75.369 16.0493 75.747 16.0493Z" fill="#DFE3FF"/>
<path d="M96.0246 16.8743H94.5222L92.6992 14.6006V16.8743H91.4071V9.86279H92.6992V14.0697L94.422 11.8661H95.9645L93.9512 14.3401L96.0246 16.8743Z" fill="#DFE3FF"/>
<path d="M99.3787 11.8657H100.671V16.8739H99.3787V16.313C99.0649 16.7804 98.5674 17.0141 97.8863 17.0141C97.3387 17.0141 96.8846 16.8305 96.524 16.4632C96.1701 16.0959 95.9932 15.5884 95.9932 14.9407V11.8657H97.2853V14.7804C97.2853 15.1143 97.3754 15.3714 97.5557 15.5517C97.736 15.7253 97.9764 15.8121 98.2769 15.8121C98.6108 15.8121 98.8779 15.7086 99.0782 15.5016C99.2785 15.2946 99.3787 14.9841 99.3787 14.5701V11.8657Z" fill="#DFE3FF"/>
<path d="M105.25 9.86279H106.542V16.8743H105.25V16.2833C104.869 16.7708 104.328 17.0145 103.627 17.0145C102.953 17.0145 102.375 16.7608 101.894 16.2533C101.42 15.7391 101.183 15.1114 101.183 14.3702C101.183 13.629 101.42 13.0046 101.894 12.4971C102.375 11.9829 102.953 11.7259 103.627 11.7259C104.328 11.7259 104.869 11.9696 105.25 12.4571V9.86279ZM102.866 15.3918C103.133 15.6523 103.467 15.7825 103.868 15.7825C104.268 15.7825 104.599 15.6523 104.859 15.3918C105.12 15.1247 105.25 14.7842 105.25 14.3702C105.25 13.9562 105.12 13.6189 104.859 13.3585C104.599 13.0914 104.268 12.9579 103.868 12.9579C103.467 12.9579 103.133 13.0914 102.866 13.3585C102.605 13.6189 102.475 13.9562 102.475 14.3702C102.475 14.7842 102.605 15.1247 102.866 15.3918Z" fill="#DFE3FF"/>
<path d="M111.129 11.8658H112.421V16.874H111.129V16.283C110.742 16.7705 110.198 17.0142 109.496 17.0142C108.829 17.0142 108.254 16.7605 107.774 16.253C107.3 15.7388 107.063 15.1111 107.063 14.3699C107.063 13.6287 107.3 13.0043 107.774 12.4968C108.254 11.9826 108.829 11.7256 109.496 11.7256C110.198 11.7256 110.742 11.9693 111.129 12.4568V11.8658ZM108.745 15.3915C109.006 15.652 109.336 15.7822 109.737 15.7822C110.138 15.7822 110.468 15.652 110.729 15.3915C110.996 15.1244 111.129 14.7839 111.129 14.3699C111.129 13.9559 110.996 13.6186 110.729 13.3582C110.468 13.0911 110.138 12.9576 109.737 12.9576C109.336 12.9576 109.006 13.0911 108.745 13.3582C108.485 13.6186 108.355 13.9559 108.355 14.3699C108.355 14.7839 108.485 15.1244 108.745 15.3915Z" fill="#DFE3FF"/>
<path d="M114.545 16.7537C114.378 16.9206 114.177 17.0041 113.944 17.0041C113.71 17.0041 113.509 16.9206 113.343 16.7537C113.176 16.5867 113.092 16.3864 113.092 16.1527C113.092 15.919 113.176 15.7186 113.343 15.5517C113.509 15.3848 113.71 15.3013 113.944 15.3013C114.177 15.3013 114.378 15.3848 114.545 15.5517C114.711 15.7186 114.795 15.919 114.795 16.1527C114.795 16.3864 114.711 16.5867 114.545 16.7537Z" fill="#DFE3FF"/>
<path d="M86.6744 9.85986H88.2565L85.588 13.367L88.2565 16.8741H86.6744L84.006 13.367L86.6744 9.85986Z" fill="#DFE3FF"/>
<path d="M84.7684 9.85986H85.8739L83.9678 13.367L85.8739 16.8741H84.7684L82.8623 13.367L84.7684 9.85986Z" fill="#DFE3FF"/>
<path d="M83.6247 9.85986H84.2537L82.8242 13.367L84.2537 16.8741H83.6247L82.1952 13.367L83.6247 9.85986Z" fill="#DFE3FF"/>
<path d="M81.7949 9.85986H82.1475V16.8741H81.7949V9.85986Z" fill="#DFE3FF"/>
</svg>
