<svg width="109" height="110" viewBox="0 0 109 110" fill="none" xmlns="http://www.w3.org/2000/svg">
<g filter="url(#filter0_d_1_2027)">
<g clip-path="url(#clip0_1_2027)">
<rect x="25" y="10.46" width="29" height="29" rx="14.5" fill="white" fill-opacity="0.01" shape-rendering="crispEdges"/>
<path d="M39.5 38.46C46.9558 38.46 53 32.4158 53 24.96C53 17.5041 46.9558 11.46 39.5 11.46C32.0442 11.46 26 17.5041 26 24.96C26 32.4158 32.0442 38.46 39.5 38.46Z" fill="#EFF1FF" stroke="#40196D" stroke-width="0.5"/>
<path d="M33 18.9859H36.6865L40.094 23.5694L44.3355 18.8809L45.3433 18.8984L40.5964 24.2288L45.4645 30.7759H41.7795L38.5633 26.5045L34.6344 30.8809H33.6426L38.0755 25.8802L33 18.9859ZM36.3389 19.6628H34.3919L42.1811 30.0815H44.093L36.3389 19.6628Z" fill="#40196D"/>
</g>
</g>
<defs>
<filter id="filter0_d_1_2027" x="0" y="0.459961" width="109" height="109" filterUnits="userSpaceOnUse" color-interpolation-filters="sRGB">
<feFlood flood-opacity="0" result="BackgroundImageFix"/>
<feColorMatrix in="SourceAlpha" type="matrix" values="0 0 0 0 0 0 0 0 0 0 0 0 0 0 0 0 0 0 127 0" result="hardAlpha"/>
<feOffset dx="15" dy="30"/>
<feGaussianBlur stdDeviation="20"/>
<feComposite in2="hardAlpha" operator="out"/>
<feColorMatrix type="matrix" values="0 0 0 0 0.25098 0 0 0 0 0.0980392 0 0 0 0 0.427451 0 0 0 0.07 0"/>
<feBlend mode="normal" in2="BackgroundImageFix" result="effect1_dropShadow_1_2027"/>
<feBlend mode="normal" in="SourceGraphic" in2="effect1_dropShadow_1_2027" result="shape"/>
</filter>
<clipPath id="clip0_1_2027">
<rect x="25" y="10.46" width="29" height="29" rx="14.5" fill="white"/>
</clipPath>
</defs>
</svg>
