<svg width="109" height="110" viewBox="0 0 109 110" fill="none" xmlns="http://www.w3.org/2000/svg">
<g filter="url(#filter0_d_1_2047)">
<g clip-path="url(#clip0_1_2047)">
<rect x="25" y="10.46" width="29" height="29" rx="14.5" fill="white" fill-opacity="0.01" shape-rendering="crispEdges"/>
<path d="M39.5 38.46C46.9558 38.46 53 32.4158 53 24.96C53 17.5041 46.9558 11.46 39.5 11.46C32.0442 11.46 26 17.5041 26 24.96C26 32.4158 32.0442 38.46 39.5 38.46Z" fill="#EFF1FF" stroke="#40196D" stroke-width="0.5"/>
<mask id="mask0_1_2047" style="mask-type:luminance" maskUnits="userSpaceOnUse" x="33" y="18" width="13" height="15">
<path d="M45.9231 18.46H33V32.46H45.9231V18.46Z" fill="white"/>
</mask>
<g mask="url(#mask0_1_2047)">
<path d="M46.0079 22.5138C46.0079 21.3711 45.1674 20.4518 44.1287 20.4518C42.7219 20.3857 41.2871 20.3604 39.8219 20.3604C39.7457 20.3604 39.6695 20.3604 39.5933 20.3604C39.5172 20.3604 39.441 20.3604 39.3648 20.3604C37.9021 20.3604 36.4648 20.3857 35.0579 20.4518C34.0219 20.4518 33.1813 21.3762 33.1813 22.5189C33.1178 23.4229 33.0899 24.327 33.0924 25.231C33.0899 26.135 33.1178 27.039 33.1788 27.9456C33.1788 29.0884 34.0193 30.0152 35.0554 30.0152C36.5333 30.0838 38.0494 30.1143 39.5908 30.1117C41.1348 30.1168 42.6457 30.0863 44.1262 30.0152C45.1648 30.0152 46.0054 29.0884 46.0054 27.9456C46.0663 27.039 46.0942 26.135 46.0917 25.2284C46.0968 24.3244 46.0688 23.4204 46.0079 22.5138ZM38.349 27.7221V22.7322L42.0312 25.2259L38.349 27.7221Z" fill="#40196D"/>
</g>
</g>
</g>
<defs>
<filter id="filter0_d_1_2047" x="0" y="0.459961" width="109" height="109" filterUnits="userSpaceOnUse" color-interpolation-filters="sRGB">
<feFlood flood-opacity="0" result="BackgroundImageFix"/>
<feColorMatrix in="SourceAlpha" type="matrix" values="0 0 0 0 0 0 0 0 0 0 0 0 0 0 0 0 0 0 127 0" result="hardAlpha"/>
<feOffset dx="15" dy="30"/>
<feGaussianBlur stdDeviation="20"/>
<feComposite in2="hardAlpha" operator="out"/>
<feColorMatrix type="matrix" values="0 0 0 0 0.25098 0 0 0 0 0.0980392 0 0 0 0 0.427451 0 0 0 0.07 0"/>
<feBlend mode="normal" in2="BackgroundImageFix" result="effect1_dropShadow_1_2047"/>
<feBlend mode="normal" in="SourceGraphic" in2="effect1_dropShadow_1_2047" result="shape"/>
</filter>
<clipPath id="clip0_1_2047">
<rect x="25" y="10.46" width="29" height="29" rx="14.5" fill="white"/>
</clipPath>
</defs>
</svg>
